<svg width="28" height="28" viewBox="0 0 28 28" fill="none" xmlns="http://www.w3.org/2000/svg">
<g filter="url(#filter0_d_309_1299)">
<g clip-path="url(#clip0_309_1299)">
<path d="M2 2H26V26H2V2Z" fill="#74ACDF"/>
<path d="M2 10H26V18.0016H2V10Z" fill="white"/>
<path d="M14.9234 12.23L16.2914 15.206C16.2914 15.206 16.3154 15.2636 16.3538 15.2492C16.3922 15.23 16.3682 15.1724 16.3682 15.1724L15.2306 12.1004M15.197 13.262C15.1778 13.7132 15.4562 13.9628 15.4226 14.366C15.3842 14.774 15.605 14.9996 15.6626 15.158C15.7106 15.3164 15.605 15.4076 15.6482 15.4316C15.6962 15.4556 15.7922 15.3308 15.7634 15.1052C15.7298 14.8844 15.5618 14.8172 15.6002 14.3228C15.6386 13.8284 15.3986 13.7132 15.4562 13.2668" fill="#F6B40E"/>
<path d="M14.9234 12.23L16.2914 15.206C16.2914 15.206 16.3154 15.2636 16.3538 15.2492C16.3922 15.23 16.3682 15.1724 16.3682 15.1724L15.2306 12.1004M15.197 13.262C15.1778 13.7132 15.4562 13.9628 15.4226 14.366C15.3842 14.774 15.605 14.9996 15.6626 15.158C15.7106 15.3164 15.605 15.4076 15.6482 15.4316C15.6962 15.4556 15.7922 15.3308 15.7634 15.1052C15.7298 14.8844 15.5618 14.8172 15.6002 14.3228C15.6386 13.8284 15.3986 13.7132 15.4562 13.2668" stroke="#85340A" stroke-width="0.135168"/>
<path d="M14.9112 12.1665L15.0362 15.4395C15.0362 15.4395 15.0364 15.5019 15.0773 15.5033C15.1202 15.5002 15.12 15.4378 15.12 15.4378L15.2446 12.1643M14.7691 13.2246C14.5787 13.6341 14.7404 13.9713 14.555 14.3309C14.3634 14.6932 14.4811 14.9861 14.4737 15.1545C14.4574 15.3192 14.3249 15.3631 14.3556 15.4018C14.3908 15.4423 14.5273 15.3637 14.587 15.1443C14.6404 14.9274 14.5109 14.8011 14.7356 14.359C14.9603 13.9169 14.7827 13.7186 15.0067 13.3283" fill="#F6B40E"/>
<path d="M14.9112 12.1665L15.0362 15.4395C15.0362 15.4395 15.0364 15.5019 15.0773 15.5033C15.1202 15.5002 15.12 15.4378 15.12 15.4378L15.2446 12.1643M14.7691 13.2246C14.5787 13.6341 14.7404 13.9713 14.555 14.3309C14.3634 14.6932 14.4811 14.9861 14.4737 15.1545C14.4574 15.3192 14.3249 15.3631 14.3556 15.4018C14.3908 15.4423 14.5273 15.3637 14.587 15.1443C14.6404 14.9274 14.5109 14.8011 14.7356 14.359C14.9603 13.9169 14.7827 13.7186 15.0067 13.3283" stroke="#85340A" stroke-width="0.135168"/>
<path d="M14.9243 12.1031L13.7873 15.1748C13.7873 15.1748 13.7635 15.2325 13.8008 15.2495C13.8416 15.2631 13.8653 15.2054 13.8653 15.2054L15.2332 12.2287M14.388 13.0263C14.0554 13.3318 14.0758 13.7052 13.7669 13.9665C13.4512 14.2279 13.4479 14.5435 13.3766 14.6962C13.2985 14.8422 13.1594 14.832 13.1729 14.8795C13.1899 14.9304 13.346 14.9101 13.4852 14.7302C13.6176 14.5503 13.5463 14.384 13.923 14.0615C14.2998 13.7391 14.2115 13.4879 14.5679 13.213" fill="#F6B40E"/>
<path d="M14.9243 12.1031L13.7873 15.1748C13.7873 15.1748 13.7635 15.2325 13.8008 15.2495C13.8416 15.2631 13.8653 15.2054 13.8653 15.2054L15.2332 12.2287M14.388 13.0263C14.0554 13.3318 14.0758 13.7052 13.7669 13.9665C13.4512 14.2279 13.4479 14.5435 13.3766 14.6962C13.2985 14.8422 13.1594 14.832 13.1729 14.8795C13.1899 14.9304 13.346 14.9101 13.4852 14.7302C13.6176 14.5503 13.5463 14.384 13.923 14.0615C14.2998 13.7391 14.2115 13.4879 14.5679 13.213" stroke="#85340A" stroke-width="0.135168"/>
<path d="M14.9606 12.0496L12.7346 14.4523C12.7346 14.4523 12.6906 14.4965 12.7186 14.5265C12.751 14.5546 12.7951 14.5104 12.7951 14.5104L15.1979 12.2838M14.1118 12.6973C13.6876 12.8522 13.5636 13.205 13.1782 13.3282C12.7866 13.4489 12.6626 13.7392 12.5383 13.853C12.4104 13.958 12.2857 13.8953 12.2801 13.9444C12.2763 13.998 12.4283 14.0389 12.6257 13.9259C12.8168 13.8104 12.8146 13.6295 13.2861 13.4758C13.7576 13.322 13.7721 13.0562 14.2066 12.9386" fill="#F6B40E"/>
<path d="M14.9606 12.0496L12.7346 14.4523C12.7346 14.4523 12.6906 14.4965 12.7186 14.5265C12.751 14.5546 12.7951 14.5104 12.7951 14.5104L15.1979 12.2838M14.1118 12.6973C13.6876 12.8522 13.5636 13.205 13.1782 13.3282C12.7866 13.4489 12.6626 13.7392 12.5383 13.853C12.4104 13.958 12.2857 13.8953 12.2801 13.9444C12.2763 13.998 12.4283 14.0389 12.6257 13.9259C12.8168 13.8104 12.8146 13.6295 13.2861 13.4758C13.7576 13.322 13.7721 13.0562 14.2066 12.9386" stroke="#85340A" stroke-width="0.135168"/>
<path d="M15.2834 13.3388C15.3074 13.7708 15.5522 13.9628 15.5042 14.3612C15.6098 14.0492 15.3554 13.8044 15.3698 13.3436M15.0002 12.2012L15.9362 14.246L15.1538 12.1388" fill="#85340A"/>
<path d="M14.8195 13.3287C14.6764 13.737 14.8291 14.008 14.6322 14.3577C14.8492 14.1099 14.7079 13.7864 14.8975 13.3662M14.9932 12.1693L15.0755 14.4166L15.159 12.1704" fill="#85340A"/>
<path d="M14.3948 13.1417C14.1063 13.4642 14.1437 13.773 13.828 14.0208C14.1233 13.8749 14.1165 13.5219 14.4525 13.2062M14.999 12.1371L14.2149 14.2448L15.1517 12.2016" fill="#85340A"/>
<path d="M14.0739 12.8065C13.684 12.994 13.6003 13.2936 13.2139 13.4018C13.5425 13.3799 13.6713 13.0512 14.1026 12.8882M15.0166 12.1095L13.4856 13.7568L15.133 12.2276" fill="#85340A"/>
<path d="M15.77 14.9234L12.794 16.2914C12.794 16.2914 12.7364 16.3154 12.7508 16.3538C12.77 16.3922 12.8276 16.3682 12.8276 16.3682L15.8996 15.2306M14.738 15.197C14.2868 15.1778 14.0372 15.4562 13.634 15.4226C13.226 15.3842 13.0004 15.605 12.842 15.6626C12.6836 15.7106 12.5924 15.605 12.5684 15.6482C12.5444 15.6962 12.6692 15.7922 12.8948 15.7634C13.1156 15.7298 13.1828 15.5618 13.6772 15.6002C14.1716 15.6386 14.2868 15.3986 14.7332 15.4562" fill="#F6B40E"/>
<path d="M15.77 14.9234L12.794 16.2914C12.794 16.2914 12.7364 16.3154 12.7508 16.3538C12.77 16.3922 12.8276 16.3682 12.8276 16.3682L15.8996 15.2306M14.738 15.197C14.2868 15.1778 14.0372 15.4562 13.634 15.4226C13.226 15.3842 13.0004 15.605 12.842 15.6626C12.6836 15.7106 12.5924 15.605 12.5684 15.6482C12.5444 15.6962 12.6692 15.7922 12.8948 15.7634C13.1156 15.7298 13.1828 15.5618 13.6772 15.6002C14.1716 15.6386 14.2868 15.3986 14.7332 15.4562" stroke="#85340A" stroke-width="0.135168"/>
<path d="M15.8335 14.9112L12.5605 15.0362C12.5605 15.0362 12.4981 15.0364 12.4967 15.0774C12.4998 15.1202 12.5622 15.12 12.5622 15.12L15.8357 15.2446M14.7754 14.7691C14.3659 14.5787 14.0287 14.7404 13.6691 14.555C13.3068 14.3634 13.0139 14.4811 12.8455 14.4737C12.6808 14.4574 12.637 14.3249 12.5983 14.3557C12.5577 14.3908 12.6363 14.5273 12.8557 14.587C13.0726 14.6405 13.1989 14.511 13.641 14.7356C14.0831 14.9603 14.2814 14.7827 14.6717 15.0067" fill="#F6B40E"/>
<path d="M15.8335 14.9112L12.5605 15.0362C12.5605 15.0362 12.4981 15.0364 12.4967 15.0774C12.4998 15.1202 12.5622 15.12 12.5622 15.12L15.8357 15.2446M14.7754 14.7691C14.3659 14.5787 14.0287 14.7404 13.6691 14.555C13.3068 14.3634 13.0139 14.4811 12.8455 14.4737C12.6808 14.4574 12.637 14.3249 12.5983 14.3557C12.5577 14.3908 12.6363 14.5273 12.8557 14.587C13.0726 14.6405 13.1989 14.511 13.641 14.7356C14.0831 14.9603 14.2814 14.7827 14.6717 15.0067" stroke="#85340A" stroke-width="0.135168"/>
<path d="M15.8969 14.9243L12.8252 13.7873C12.8252 13.7873 12.7675 13.7635 12.7505 13.8008C12.737 13.8416 12.7947 13.8653 12.7947 13.8653L15.7713 15.2332M14.9737 14.388C14.6682 14.0554 14.2949 14.0758 14.0335 13.7669C13.7722 13.4512 13.4565 13.4479 13.3038 13.3766C13.1578 13.2985 13.168 13.1594 13.1205 13.1729C13.0696 13.1899 13.09 13.346 13.2698 13.4852C13.4497 13.6176 13.616 13.5463 13.9385 13.923C14.2609 14.2998 14.5121 14.2115 14.787 14.5679" fill="#F6B40E"/>
<path d="M15.8969 14.9243L12.8252 13.7873C12.8252 13.7873 12.7675 13.7635 12.7505 13.8008C12.737 13.8416 12.7947 13.8653 12.7947 13.8653L15.7713 15.2332M14.9737 14.388C14.6682 14.0554 14.2949 14.0758 14.0335 13.7669C13.7722 13.4512 13.4565 13.4479 13.3038 13.3766C13.1578 13.2985 13.168 13.1594 13.1205 13.1729C13.0696 13.1899 13.09 13.346 13.2698 13.4852C13.4497 13.6176 13.616 13.5463 13.9385 13.923C14.2609 14.2998 14.5121 14.2115 14.787 14.5679" stroke="#85340A" stroke-width="0.135168"/>
<path d="M15.9504 14.9606L13.5477 12.7346C13.5477 12.7346 13.5035 12.6906 13.4735 12.7186C13.4454 12.751 13.4896 12.7951 13.4896 12.7951L15.7162 15.1979M15.3027 14.1119C15.1478 13.6877 14.795 13.5636 14.6718 13.1782C14.5511 12.7866 14.2608 12.6627 14.147 12.5384C14.042 12.4104 14.1047 12.2857 14.0556 12.2801C14.002 12.2763 13.9611 12.4283 14.0741 12.6257C14.1896 12.8168 14.3705 12.8146 14.5242 13.2861C14.678 13.7576 14.9438 13.7721 15.0614 14.2066" fill="#F6B40E"/>
<path d="M15.9504 14.9606L13.5477 12.7346C13.5477 12.7346 13.5035 12.6906 13.4735 12.7186C13.4454 12.751 13.4896 12.7951 13.4896 12.7951L15.7162 15.1979M15.3027 14.1119C15.1478 13.6877 14.795 13.5636 14.6718 13.1782C14.5511 12.7866 14.2608 12.6627 14.147 12.5384C14.042 12.4104 14.1047 12.2857 14.0556 12.2801C14.002 12.2763 13.9611 12.4283 14.0741 12.6257C14.1896 12.8168 14.3705 12.8146 14.5242 13.2861C14.678 13.7576 14.9438 13.7721 15.0614 14.2066" stroke="#85340A" stroke-width="0.135168"/>
<path d="M14.6612 15.2834C14.2292 15.3074 14.0372 15.5522 13.6388 15.5042C13.9508 15.6098 14.1956 15.3554 14.6564 15.3698M15.7988 15.0002L13.754 15.9362L15.8612 15.1538" fill="#85340A"/>
<path d="M14.6713 14.8195C14.263 14.6764 13.992 14.8291 13.6423 14.6322C13.8901 14.8492 14.2136 14.7079 14.6338 14.8975M15.8307 14.9932L13.5834 15.0755L15.8296 15.159" fill="#85340A"/>
<path d="M14.8583 14.3948C14.5358 14.1063 14.227 14.1436 13.9792 13.828C14.1251 14.1233 14.4781 14.1165 14.7938 14.4525M15.8629 14.999L13.7552 14.2149L15.7984 15.1517" fill="#85340A"/>
<path d="M15.1935 14.074C15.006 13.684 14.7064 13.6003 14.5983 13.2139C14.6201 13.5425 14.9488 13.6714 15.1118 14.1026M15.8905 15.0166L14.2432 13.4856L15.7725 15.133" fill="#85340A"/>
<path d="M13.0766 15.77L11.7086 12.794C11.7086 12.794 11.6846 12.7364 11.6462 12.7508C11.6078 12.77 11.6318 12.8276 11.6318 12.8276L12.7694 15.8996M12.803 14.738C12.8222 14.2868 12.5438 14.0372 12.5774 13.634C12.6158 13.226 12.395 13.0004 12.3374 12.842C12.2894 12.6836 12.395 12.5924 12.3518 12.5684C12.3038 12.5444 12.2078 12.6692 12.2366 12.8948C12.2702 13.1156 12.4382 13.1828 12.3998 13.6772C12.3614 14.1716 12.6014 14.2868 12.5438 14.7332" fill="#F6B40E"/>
<path d="M13.0766 15.77L11.7086 12.794C11.7086 12.794 11.6846 12.7364 11.6462 12.7508C11.6078 12.77 11.6318 12.8276 11.6318 12.8276L12.7694 15.8996M12.803 14.738C12.8222 14.2868 12.5438 14.0372 12.5774 13.634C12.6158 13.226 12.395 13.0004 12.3374 12.842C12.2894 12.6836 12.395 12.5924 12.3518 12.5684C12.3038 12.5444 12.2078 12.6692 12.2366 12.8948C12.2702 13.1156 12.4382 13.1828 12.3998 13.6772C12.3614 14.1716 12.6014 14.2868 12.5438 14.7332" stroke="#85340A" stroke-width="0.135168"/>
<path d="M13.0888 15.8335L12.9638 12.5605C12.9638 12.5605 12.9636 12.4981 12.9227 12.4967C12.8798 12.4998 12.88 12.5622 12.88 12.5622L12.7554 15.8357M13.2309 14.7754C13.4213 14.3659 13.2596 14.0287 13.445 13.6691C13.6366 13.3068 13.5189 13.0139 13.5263 12.8455C13.5426 12.6808 13.6751 12.6369 13.6444 12.5982C13.6092 12.5577 13.4727 12.6363 13.413 12.8557C13.3596 13.0726 13.4891 13.1989 13.2644 13.641C13.0397 14.0831 13.2173 14.2814 12.9933 14.6717" fill="#F6B40E"/>
<path d="M13.0888 15.8335L12.9638 12.5605C12.9638 12.5605 12.9636 12.4981 12.9227 12.4967C12.8798 12.4998 12.88 12.5622 12.88 12.5622L12.7554 15.8357M13.2309 14.7754C13.4213 14.3659 13.2596 14.0287 13.445 13.6691C13.6366 13.3068 13.5189 13.0139 13.5263 12.8455C13.5426 12.6808 13.6751 12.6369 13.6444 12.5982C13.6092 12.5577 13.4727 12.6363 13.413 12.8557C13.3596 13.0726 13.4891 13.1989 13.2644 13.641C13.0397 14.0831 13.2173 14.2814 12.9933 14.6717" stroke="#85340A" stroke-width="0.135168"/>
<path d="M13.0757 15.8969L14.2127 12.8252C14.2127 12.8252 14.2365 12.7675 14.1992 12.7505C14.1584 12.7369 14.1347 12.7946 14.1347 12.7946L12.7668 15.7713M13.612 14.9737C13.9446 14.6682 13.9242 14.2948 14.2331 14.0335C14.5488 13.7721 14.5521 13.4565 14.6234 13.3038C14.7015 13.1578 14.8406 13.168 14.8271 13.1205C14.8101 13.0696 14.654 13.0899 14.5148 13.2698C14.3824 13.4497 14.4537 13.616 14.077 13.9385C13.7002 14.2609 13.7885 14.5121 13.4321 14.787" fill="#F6B40E"/>
<path d="M13.0757 15.8969L14.2127 12.8252C14.2127 12.8252 14.2365 12.7675 14.1992 12.7505C14.1584 12.7369 14.1347 12.7946 14.1347 12.7946L12.7668 15.7713M13.612 14.9737C13.9446 14.6682 13.9242 14.2948 14.2331 14.0335C14.5488 13.7721 14.5521 13.4565 14.6234 13.3038C14.7015 13.1578 14.8406 13.168 14.8271 13.1205C14.8101 13.0696 14.654 13.0899 14.5148 13.2698C14.3824 13.4497 14.4537 13.616 14.077 13.9385C13.7002 14.2609 13.7885 14.5121 13.4321 14.787" stroke="#85340A" stroke-width="0.135168"/>
<path d="M13.0394 15.9504L15.2654 13.5477C15.2654 13.5477 15.3094 13.5035 15.2814 13.4735C15.249 13.4454 15.2049 13.4896 15.2049 13.4896L12.8021 15.7162M13.8882 15.3027C14.3124 15.1478 14.4364 14.795 14.8218 14.6718C15.2134 14.5511 15.3374 14.2608 15.4617 14.147C15.5896 14.042 15.7143 14.1047 15.7199 14.0556C15.7237 14.002 15.5717 13.9611 15.3743 14.0741C15.1832 14.1896 15.1854 14.3705 14.7139 14.5242C14.2424 14.678 14.2279 14.9438 13.7934 15.0614" fill="#F6B40E"/>
<path d="M13.0394 15.9504L15.2654 13.5477C15.2654 13.5477 15.3094 13.5035 15.2814 13.4735C15.249 13.4454 15.2049 13.4896 15.2049 13.4896L12.8021 15.7162M13.8882 15.3027C14.3124 15.1478 14.4364 14.795 14.8218 14.6718C15.2134 14.5511 15.3374 14.2608 15.4617 14.147C15.5896 14.042 15.7143 14.1047 15.7199 14.0556C15.7237 14.002 15.5717 13.9611 15.3743 14.0741C15.1832 14.1896 15.1854 14.3705 14.7139 14.5242C14.2424 14.678 14.2279 14.9438 13.7934 15.0614" stroke="#85340A" stroke-width="0.135168"/>
<path d="M12.7166 14.6612C12.6926 14.2292 12.4478 14.0372 12.4958 13.6388C12.3902 13.9508 12.6446 14.1956 12.6302 14.6564M12.9998 15.7988L12.0638 13.754L12.8462 15.8612" fill="#85340A"/>
<path d="M13.1805 14.6713C13.3236 14.263 13.1709 13.992 13.3678 13.6423C13.1508 13.8901 13.2921 14.2136 13.1025 14.6338M13.0068 15.8307L12.9245 13.5834L12.841 15.8296" fill="#85340A"/>
<path d="M13.6052 14.8583C13.8937 14.5358 13.8563 14.227 14.172 13.9792C13.8767 14.1251 13.8835 14.4781 13.5475 14.7938M13.001 15.8629L13.7851 13.7552L12.8483 15.7984" fill="#85340A"/>
<path d="M13.9261 15.1935C14.316 15.006 14.3997 14.7064 14.7861 14.5982C14.4575 14.6201 14.3287 14.9488 13.8974 15.1118M12.9834 15.8905L14.5144 14.2432L12.867 15.7724" fill="#85340A"/>
<path d="M12.23 13.0766L15.206 11.7086C15.206 11.7086 15.2636 11.6846 15.2492 11.6462C15.23 11.6078 15.1724 11.6318 15.1724 11.6318L12.1004 12.7694M13.262 12.803C13.7132 12.8222 13.9628 12.5438 14.366 12.5774C14.774 12.6158 14.9996 12.395 15.158 12.3374C15.3164 12.2894 15.4076 12.395 15.4316 12.3518C15.4556 12.3038 15.3308 12.2078 15.1052 12.2366C14.8844 12.2702 14.8172 12.4382 14.3228 12.3998C13.8284 12.3614 13.7132 12.6014 13.2668 12.5438" fill="#F6B40E"/>
<path d="M12.23 13.0766L15.206 11.7086C15.206 11.7086 15.2636 11.6846 15.2492 11.6462C15.23 11.6078 15.1724 11.6318 15.1724 11.6318L12.1004 12.7694M13.262 12.803C13.7132 12.8222 13.9628 12.5438 14.366 12.5774C14.774 12.6158 14.9996 12.395 15.158 12.3374C15.3164 12.2894 15.4076 12.395 15.4316 12.3518C15.4556 12.3038 15.3308 12.2078 15.1052 12.2366C14.8844 12.2702 14.8172 12.4382 14.3228 12.3998C13.8284 12.3614 13.7132 12.6014 13.2668 12.5438" stroke="#85340A" stroke-width="0.135168"/>
<path d="M12.1665 13.0888L15.4395 12.9638C15.4395 12.9638 15.5019 12.9636 15.5033 12.9226C15.5002 12.8798 15.4378 12.88 15.4378 12.88L12.1643 12.7554M13.2246 13.2309C13.6341 13.4213 13.9713 13.2596 14.3309 13.445C14.6932 13.6366 14.9861 13.5189 15.1545 13.5263C15.3192 13.5426 15.363 13.6751 15.4017 13.6443C15.4423 13.6092 15.3637 13.4727 15.1443 13.413C14.9274 13.3595 14.8011 13.489 14.359 13.2644C13.9169 13.0397 13.7186 13.2173 13.3283 12.9933" fill="#F6B40E"/>
<path d="M12.1665 13.0888L15.4395 12.9638C15.4395 12.9638 15.5019 12.9636 15.5033 12.9226C15.5002 12.8798 15.4378 12.88 15.4378 12.88L12.1643 12.7554M13.2246 13.2309C13.6341 13.4213 13.9713 13.2596 14.3309 13.445C14.6932 13.6366 14.9861 13.5189 15.1545 13.5263C15.3192 13.5426 15.363 13.6751 15.4017 13.6443C15.4423 13.6092 15.3637 13.4727 15.1443 13.413C14.9274 13.3595 14.8011 13.489 14.359 13.2644C13.9169 13.0397 13.7186 13.2173 13.3283 12.9933" stroke="#85340A" stroke-width="0.135168"/>
<path d="M12.1031 13.0757L15.1748 14.2127C15.1748 14.2127 15.2325 14.2365 15.2495 14.1992C15.263 14.1584 15.2053 14.1347 15.2053 14.1347L12.2287 12.7668M13.0263 13.612C13.3318 13.9446 13.7051 13.9242 13.9665 14.2331C14.2278 14.5488 14.5435 14.5521 14.6962 14.6234C14.8422 14.7015 14.832 14.8406 14.8795 14.8271C14.9304 14.8101 14.91 14.654 14.7302 14.5148C14.5503 14.3824 14.384 14.4537 14.0615 14.077C13.7391 13.7002 13.4879 13.7885 13.213 13.4321" fill="#F6B40E"/>
<path d="M12.1031 13.0757L15.1748 14.2127C15.1748 14.2127 15.2325 14.2365 15.2495 14.1992C15.263 14.1584 15.2053 14.1347 15.2053 14.1347L12.2287 12.7668M13.0263 13.612C13.3318 13.9446 13.7051 13.9242 13.9665 14.2331C14.2278 14.5488 14.5435 14.5521 14.6962 14.6234C14.8422 14.7015 14.832 14.8406 14.8795 14.8271C14.9304 14.8101 14.91 14.654 14.7302 14.5148C14.5503 14.3824 14.384 14.4537 14.0615 14.077C13.7391 13.7002 13.4879 13.7885 13.213 13.4321" stroke="#85340A" stroke-width="0.135168"/>
<path d="M12.0496 13.0394L14.4523 15.2654C14.4523 15.2654 14.4965 15.3094 14.5265 15.2814C14.5546 15.249 14.5104 15.2049 14.5104 15.2049L12.2838 12.8021M12.6973 13.8881C12.8522 14.3123 13.205 14.4364 13.3282 14.8218C13.4489 15.2134 13.7392 15.3373 13.853 15.4616C13.958 15.5896 13.8953 15.7143 13.9444 15.7199C13.998 15.7237 14.0389 15.5717 13.9259 15.3743C13.8104 15.1832 13.6295 15.1854 13.4758 14.7139C13.322 14.2424 13.0562 14.2279 12.9386 13.7934" fill="#F6B40E"/>
<path d="M12.0496 13.0394L14.4523 15.2654C14.4523 15.2654 14.4965 15.3094 14.5265 15.2814C14.5546 15.249 14.5104 15.2049 14.5104 15.2049L12.2838 12.8021M12.6973 13.8881C12.8522 14.3123 13.205 14.4364 13.3282 14.8218C13.4489 15.2134 13.7392 15.3373 13.853 15.4616C13.958 15.5896 13.8953 15.7143 13.9444 15.7199C13.998 15.7237 14.0389 15.5717 13.9259 15.3743C13.8104 15.1832 13.6295 15.1854 13.4758 14.7139C13.322 14.2424 13.0562 14.2279 12.9386 13.7934" stroke="#85340A" stroke-width="0.135168"/>
<path d="M13.3388 12.7166C13.7708 12.6926 13.9628 12.4478 14.3612 12.4958C14.0492 12.3902 13.8044 12.6446 13.3436 12.6302M12.2012 12.9998L14.246 12.0638L12.1388 12.8462" fill="#85340A"/>
<path d="M13.3287 13.1805C13.737 13.3236 14.008 13.1709 14.3577 13.3677C14.1099 13.1508 13.7864 13.2921 13.3662 13.1025M12.1693 13.0068L14.4166 12.9245L12.1704 12.841" fill="#85340A"/>
<path d="M13.1417 13.6052C13.4642 13.8937 13.773 13.8564 14.0208 14.172C13.8749 13.8767 13.5219 13.8835 13.2062 13.5475M12.1371 13.001L14.2448 13.7851L12.2016 12.8483" fill="#85340A"/>
<path d="M12.8065 13.926C12.994 14.316 13.2936 14.3997 13.4017 14.7861C13.3799 14.4575 13.0512 14.3286 12.8882 13.8974M12.1095 12.9834L13.7568 14.5144L12.2275 12.867" fill="#85340A"/>
<path d="M14.3312 15.6625C15.0665 15.6625 15.6625 15.0665 15.6625 14.3312C15.6625 13.596 15.0665 13 14.3312 13C13.596 13 13 13.596 13 14.3312C13 15.0665 13.596 15.6625 14.3312 15.6625Z" fill="#F6B40E" stroke="#85340A" stroke-width="0.18"/>
<path d="M14.2297 14.0047C14.1359 14.0047 14.0516 14.0422 14 14.1219C14.1031 14.2156 14.3281 14.225 14.4828 14.1125C14.4504 14.0776 14.4113 14.0496 14.3678 14.0303C14.3243 14.0109 14.2773 14.0006 14.2297 14V14.0047ZM14.2297 14.0234C14.3188 14.0234 14.3984 14.0609 14.4125 14.1031C14.3094 14.2156 14.1453 14.2063 14.0422 14.1219C14.0891 14.0516 14.1594 14.0234 14.2297 14.0234Z" fill="#843511"/>
<path d="M13.6887 14C13.5575 14 13.5247 14.0281 13.4637 14.0797C13.4028 14.1312 13.37 14.1219 13.3606 14.1312C13.3512 14.1406 13.3606 14.1734 13.3794 14.1641C13.4028 14.15 13.445 14.1312 13.5059 14.0797C13.5669 14.0328 13.6278 14.0328 13.6934 14.0328C13.8715 14.0328 13.9747 14.1828 13.9981 14.1734C14.0169 14.1641 13.895 14 13.6887 14Z" fill="#85340A"/>
<path d="M14 14.2392C13.7656 14.033 13.4656 14.0049 13.3016 14.1549C13.2632 14.2059 13.2375 14.2654 13.2266 14.3283C13.2031 14.4455 13.2406 14.5721 13.3344 14.7033C13.3203 14.7033 13.3016 14.708 13.2875 14.7221C13.2078 14.5627 13.1797 14.4033 13.2078 14.2533L13.2406 14.1361C13.4656 13.9486 13.775 13.9299 14 14.2392Z" fill="#85340A"/>
<path d="M14.0938 14.1875C14.1455 14.1875 14.1875 14.1455 14.1875 14.0938C14.1875 14.042 14.1455 14 14.0938 14C14.042 14 14 14.042 14 14.0938C14 14.1455 14.042 14.1875 14.0938 14.1875Z" fill="#85340A"/>
<path d="M13.9953 14.0234C13.8219 14.1547 13.6484 14.1453 13.5453 14.0844C13.4422 14.0234 13.4422 14 13.4656 14C13.4844 14 13.5078 14.0234 13.5875 14.0656C13.6719 14.1031 13.7937 14.1031 14 14.0188L13.9953 14.0234Z" fill="#85340A"/>
<path d="M14.1313 14.0047C14.1156 14.0069 14.1007 14.0131 14.088 14.0226C14.0753 14.0321 14.0653 14.0447 14.0588 14.0592C14.0523 14.0736 14.0496 14.0895 14.0509 14.1053C14.0522 14.1211 14.0575 14.1363 14.0663 14.1495C14.0751 14.1627 14.0871 14.1735 14.1012 14.1808C14.1153 14.1881 14.131 14.1917 14.1468 14.1912C14.1627 14.1908 14.1782 14.1864 14.1918 14.1784C14.2055 14.1703 14.2169 14.159 14.225 14.1453C14.2625 14.1734 14.3094 14.1734 14.3375 14.1734H14.3516C14.375 14.1734 14.4266 14.1734 14.4594 14.1453C14.4781 14.1688 14.5063 14.1828 14.5344 14.1828C14.5559 14.1807 14.576 14.1712 14.5914 14.156C14.6067 14.1407 14.6163 14.1206 14.6185 14.0991C14.6207 14.0776 14.6154 14.0559 14.6035 14.0379C14.5916 14.0198 14.5738 14.0064 14.5531 14C14.5766 14.0094 14.5953 14.0328 14.5953 14.0609C14.5953 14.0777 14.5886 14.0938 14.5768 14.1057C14.5649 14.1176 14.5488 14.1242 14.532 14.1242C14.5152 14.1242 14.4992 14.1176 14.4873 14.1057C14.4754 14.0938 14.4687 14.0777 14.4687 14.0609C14.458 14.0857 14.4403 14.1068 14.4179 14.1217C14.3954 14.1367 14.3692 14.1449 14.3422 14.1453C14.3156 14.1433 14.29 14.1345 14.2678 14.1198C14.2456 14.105 14.2277 14.0847 14.2156 14.0609C14.2156 14.0938 14.1875 14.1219 14.1547 14.1219C14.1385 14.1244 14.122 14.1203 14.1089 14.1107C14.0957 14.101 14.0869 14.0865 14.0844 14.0703C14.0819 14.0542 14.0859 14.0377 14.0956 14.0245C14.1053 14.0113 14.1198 14.0025 14.1359 14L14.1313 14.0047ZM14.2344 14.2766C14.1312 14.2766 14.0938 14.3703 14 14.4313C14.0469 14.4078 14.0938 14.3703 14.1641 14.3281C14.2344 14.2859 14.2953 14.3375 14.3375 14.3375C14.3797 14.3375 14.4406 14.2859 14.5109 14.3281C14.5813 14.3703 14.6234 14.4078 14.675 14.4313C14.5813 14.3656 14.5438 14.2766 14.4406 14.2766C14.4048 14.2793 14.3698 14.2888 14.3375 14.3047C14.2906 14.2859 14.2531 14.2766 14.2344 14.2766Z" fill="#85340A"/>
<path d="M14.1688 14C14.1313 14 14.075 14.0141 14 14.0375C14.1875 13.9906 14.225 14.0563 14.3094 14.0563C14.3891 14.0563 14.4313 13.9953 14.6188 14.0375C14.4125 13.9719 14.3703 14.0141 14.3094 14.0141C14.2672 14.0141 14.2391 14 14.1688 14Z" fill="#85340A"/>
<path d="M14.0375 14H14C14.2156 14.0234 14.1125 14.1453 14.3375 14.1453C14.5625 14.1453 14.4594 14.0234 14.675 14.0047C14.45 13.9813 14.5203 14.1172 14.3375 14.1172C14.1641 14.1172 14.2156 14 14.0375 14Z" fill="#85340A"/>
<path d="M13 14.2392C13.2344 14.033 13.5344 14.0049 13.6984 14.1549C13.7368 14.2059 13.7625 14.2654 13.7734 14.3283C13.7969 14.4455 13.7594 14.5721 13.6656 14.7033C13.6797 14.7033 13.6984 14.708 13.7125 14.7221C13.7922 14.5627 13.8203 14.4033 13.7922 14.2533L13.7594 14.1361C13.5344 13.9486 13.225 13.9299 13 14.2392Z" fill="#85340A"/>
<path d="M14.3113 14C14.4425 14 14.4753 14.0281 14.5363 14.0797C14.5972 14.1312 14.63 14.1219 14.6394 14.1312C14.6488 14.1406 14.6394 14.1734 14.6206 14.1641C14.5972 14.15 14.555 14.1312 14.4941 14.0797C14.4331 14.0328 14.3722 14.0328 14.3066 14.0328C14.1285 14.0328 14.0253 14.1828 14.0019 14.1734C13.9831 14.1641 14.105 14 14.3113 14Z" fill="#85340A"/>
<path d="M14.2297 14.0047C14.1359 14.0047 14.0516 14.0422 14 14.1219C14.1031 14.2156 14.3281 14.225 14.4828 14.1125C14.4504 14.0776 14.4113 14.0496 14.3678 14.0303C14.3243 14.0109 14.2773 14.0006 14.2297 14V14.0047ZM14.2297 14.0234C14.3188 14.0234 14.3984 14.0609 14.4125 14.1031C14.3094 14.2156 14.1453 14.2063 14.0422 14.1219C14.0891 14.0516 14.1594 14.0234 14.2297 14.0234Z" fill="#843511"/>
<path d="M14.0938 14.1875C14.1455 14.1875 14.1875 14.1455 14.1875 14.0938C14.1875 14.042 14.1455 14 14.0938 14C14.042 14 14 14.042 14 14.0938C14 14.1455 14.042 14.1875 14.0938 14.1875Z" fill="#85340A"/>
<path d="M14.0047 14.0234C14.1781 14.1547 14.3516 14.1453 14.4547 14.0844C14.5578 14.0234 14.5578 14 14.5344 14C14.5156 14 14.4922 14.0234 14.4125 14.0656C14.3281 14.1031 14.2063 14.1031 14 14.0188L14.0047 14.0234Z" fill="#85340A"/>
</g>
</g>
<defs>
<filter id="filter0_d_309_1299" x="0.32" y="0.32" width="27.36" height="27.36" filterUnits="userSpaceOnUse" color-interpolation-filters="sRGB">
<feFlood flood-opacity="0" result="BackgroundImageFix"/>
<feColorMatrix in="SourceAlpha" type="matrix" values="0 0 0 0 0 0 0 0 0 0 0 0 0 0 0 0 0 0 127 0" result="hardAlpha"/>
<feMorphology radius="0.24" operator="dilate" in="SourceAlpha" result="effect1_dropShadow_309_1299"/>
<feOffset/>
<feGaussianBlur stdDeviation="0.72"/>
<feComposite in2="hardAlpha" operator="out"/>
<feColorMatrix type="matrix" values="0 0 0 0 0 0 0 0 0 0 0 0 0 0 0 0 0 0 0.08 0"/>
<feBlend mode="normal" in2="BackgroundImageFix" result="effect1_dropShadow_309_1299"/>
<feBlend mode="normal" in="SourceGraphic" in2="effect1_dropShadow_309_1299" result="shape"/>
</filter>
<clipPath id="clip0_309_1299">
<rect x="2" y="2" width="24" height="24" rx="6" fill="white"/>
</clipPath>
</defs>
</svg>
