<svg width="52" height="52" viewBox="0 0 52 52" fill="none" xmlns="http://www.w3.org/2000/svg">
<g filter="url(#filter0_d_552_5832)">
<g clip-path="url(#clip0_552_5832)">
<g clip-path="url(#clip1_552_5832)">
<path d="M14 14H38V38H14V14Z" fill="#00008B"/>
<path d="M26 14V15.5L21.5469 20L26 24.3828V26H24.4297L19.9531 21.5938L15.5938 26H14V24.4062L18.3594 20.0234L14 15.7344V14H15.4531L19.9531 18.4062L24.3125 14H26Z" fill="white"/>
<path d="M18.3125 21.5938L18.5703 22.3906L14.9844 26H14V25.9297L18.3125 21.5938ZM21.2188 21.3125L22.4844 21.5L26 24.9453V26L21.2188 21.3125ZM26 14L21.5 18.5938L21.4062 17.5625L24.9219 14H26ZM14 14.0234L18.5234 18.4531L17.1406 18.2656L14 15.1484V14.0234Z" fill="#FF0000"/>
<path d="M18.125 14V26H21.875V14H18.125ZM14 18.125V21.875H26V18.125H14Z" fill="white"/>
<path d="M14 18.875V21.125H26V18.875H14ZM18.875 14V26H21.125V14H18.875Z" fill="#FF0000"/>
<path d="M23.4688 32.8812L21.3219 33.1343L21.5375 35.2859L20 33.7672L18.4531 35.2765L18.6828 33.125L16.5359 32.8531L18.3594 31.6906L17.2344 29.8437L19.2781 30.5468L20.0188 28.5125L20.7453 30.5515L22.7938 29.8625L21.6547 31.7L23.4734 32.8765L23.4688 32.8812ZM33.9078 33.2562L32.9469 33.3781L33.05 34.339L32.3563 33.664L31.6672 34.3437L31.7609 33.3828L30.8 33.2703L31.611 32.7453L31.1 31.925L32.0188 32.2297L32.3422 31.3156L32.675 32.225L33.5891 31.9109L33.0875 32.7359L33.9078 33.2562ZM33.4531 27.7625L33.5797 27.1531L33.1203 26.7312L33.7391 26.6609L33.9969 26.0937L34.2547 26.6609L34.8734 26.7312L34.4141 27.1531L34.5406 27.7625L33.9969 27.4531L33.4531 27.7625ZM29.5109 24.95L28.5594 25.0531L28.6438 26.0047L27.9688 25.325L27.275 25.9859L27.3875 25.0343L26.4406 24.9078L27.2516 24.4015L26.7594 23.5812L27.6641 23.9L28.0016 23.0047L28.3156 23.9093L29.225 23.614L28.7141 24.425L29.5109 24.95ZM37.7516 23.4125L36.7719 23.539L36.8797 24.5187L36.1719 23.8297L35.4688 24.5234L35.5672 23.539L34.5875 23.4265L35.4172 22.8875L34.8969 22.0484L35.8344 22.3625L36.1625 21.4343L36.5 22.3625L37.4328 22.039L36.9172 22.8828L37.7516 23.4125ZM33.9031 19.4984L32.9328 19.6062L33.0219 20.5812L32.3328 19.8875L31.625 20.5625L31.7375 19.5922L30.7672 19.4609L31.5969 18.9453L31.0953 18.1062L32.0188 18.4297L32.361 17.5156L32.6797 18.439L33.6078 18.1343L33.0875 18.9593L33.9031 19.4984Z" fill="white"/>
</g>
</g>
</g>
<defs>
<filter id="filter0_d_552_5832" x="0" y="0" width="52" height="52" filterUnits="userSpaceOnUse" color-interpolation-filters="sRGB">
<feFlood flood-opacity="0" result="BackgroundImageFix"/>
<feColorMatrix in="SourceAlpha" type="matrix" values="0 0 0 0 0 0 0 0 0 0 0 0 0 0 0 0 0 0 127 0" result="hardAlpha"/>
<feMorphology radius="2" operator="dilate" in="SourceAlpha" result="effect1_dropShadow_552_5832"/>
<feOffset/>
<feGaussianBlur stdDeviation="6"/>
<feComposite in2="hardAlpha" operator="out"/>
<feColorMatrix type="matrix" values="0 0 0 0 0 0 0 0 0 0 0 0 0 0 0 0 0 0 0.08 0"/>
<feBlend mode="normal" in2="BackgroundImageFix" result="effect1_dropShadow_552_5832"/>
<feBlend mode="normal" in="SourceGraphic" in2="effect1_dropShadow_552_5832" result="shape"/>
</filter>
<clipPath id="clip0_552_5832">
<rect x="14" y="14" width="24" height="24" rx="6" fill="white"/>
</clipPath>
<clipPath id="clip1_552_5832">
<rect width="24" height="24" fill="white" transform="translate(14 14)"/>
</clipPath>
</defs>
</svg>
