<svg width="52" height="52" viewBox="0 0 52 52" fill="none" xmlns="http://www.w3.org/2000/svg">
<g filter="url(#filter0_d_552_6980)">
<g clip-path="url(#clip0_552_6980)">
<g clip-path="url(#clip1_552_6980)">
<mask id="mask0_552_6980" style="mask-type:luminance" maskUnits="userSpaceOnUse" x="14" y="14" width="24" height="24">
<path d="M14 14H37.994V37.994H14V14Z" fill="white"/>
</mask>
<g mask="url(#mask0_552_6980)">
<path fill-rule="evenodd" clip-rule="evenodd" d="M14 14H61.9928V29.9396H14V14Z" fill="#B20000"/>
<path fill-rule="evenodd" clip-rule="evenodd" d="M14 29.9396H61.9928V37.9989H14V29.9396Z" fill="#429F00"/>
<path fill-rule="evenodd" clip-rule="evenodd" d="M14 14H19.3116V37.994H14V14Z" fill="white"/>
<path fill-rule="evenodd" clip-rule="evenodd" d="M14.2516 14.4064H14.5079V14.8127H14.2516V14.4064ZM15.011 14.4064H15.7705V14.8127H15.0159L15.011 14.4064ZM15.2626 14H15.519V14.4064H15.2578L15.2626 14ZM16.53 14H16.7816V14.4064H16.53V14ZM17.5459 14.4064H18.3005V14.8127H17.541L17.5459 14.4064ZM17.7926 14H18.0442V14.4064H17.7926V14ZM14.7595 14.8127H15.2674V15.2191H14.7595V14.8127ZM15.519 14.8127H16.0269V15.2191H15.519V14.8127ZM17.2895 14.8127H17.7974V15.2191H17.2895V14.8127ZM18.049 14.8127H18.5473V15.2191H18.0538L18.049 14.8127ZM14.5079 15.2191H15.011V15.6254H14.5079V15.2191ZM15.7705 15.2191H16.2785V15.6254H15.7705V15.2191ZM17.038 15.2191H17.541V15.6254H17.038V15.2191ZM18.3005 15.2191H18.8085V15.6254H18.3005V15.2191ZM18.8085 14.4064H19.06V14.8127H18.8085V14.4064ZM14.2516 15.6254H14.7595V16.0318H14.2516V15.6254ZM16.0221 15.6254H16.53V16.0318H16.0221V15.6254ZM18.5569 15.6254H19.06V16.0318H18.5569V15.6254ZM14.5079 16.8541H15.011V17.2605H14.5079V16.8541ZM14.7595 17.2605H15.2674V17.6668H14.7595V17.2605ZM15.7754 16.8541H16.2736V17.2605H15.7705L15.7754 16.8541ZM15.519 17.2605H16.0221V17.6668H15.519V17.2605ZM15.011 17.6668H15.7705V18.0635H15.0159L15.011 17.6668ZM15.2626 18.0635H15.519V18.4747H15.2578L15.2626 18.0635ZM17.038 16.8445H17.541V17.2556H17.038V16.8445ZM17.2895 17.2556H17.7974V17.662H17.2895V17.2556ZM18.3054 16.8493H18.8085V17.2556H18.3005L18.3054 16.8493ZM18.049 17.2556H18.5473V17.662H18.0538L18.049 17.2556ZM17.541 17.662H18.3054V18.0635H17.541V17.662ZM17.7974 18.0635H18.049V18.4747H17.7974V18.0635ZM16.53 17.662H16.7816V18.0635H16.53V17.662ZM14 17.662H14.2516V18.0635H14V17.662ZM19.06 17.662H19.3116V18.0635H19.06V17.662ZM15.2626 19.6937H15.519V20.1001H15.2578L15.2626 19.6937ZM15.011 20.1001H15.7705V20.5064H15.0159L15.011 20.1001ZM14.7595 20.5064H16.0269V20.9128H14.7595V20.5064ZM17.7974 19.6937H18.049V20.1001H17.7974V19.6937Z" fill="#B20000"/>
<path fill-rule="evenodd" clip-rule="evenodd" d="M17.541 20.1001H18.3054V20.5064H17.541V20.1001ZM17.2895 20.5064H18.5521V20.9128H17.2895V20.5064ZM17.541 22.5382H18.8085V22.9494H17.541V22.5382ZM17.038 20.9176H18.8085V21.324H17.038V20.9176ZM14.5079 20.9176H16.2736V21.324H14.5079V20.9176ZM14.7595 22.9494H15.519V23.3606H14.7595V22.9494ZM14.5079 22.5479H15.7705V22.9542H14.5079V22.5479ZM18.049 21.7303H19.3116V22.1415H18.0538L18.049 21.7303ZM17.7974 22.9494H18.5569V23.3557H17.7974V22.9494ZM15.011 23.3557H15.2674V23.7621H15.011V23.3557ZM18.049 23.3557H18.3005V23.7621H18.049V23.3557ZM14 21.7255H15.2674V22.1367H14V21.7255ZM16.2736 22.543H17.038V22.9494H16.2736V22.543ZM16.53 22.9494H16.7816V23.3557H16.53V22.9494ZM15.7705 21.7255H17.541V22.1367H15.7705V21.7255ZM16.7864 15.6302H17.2895V16.0318H16.7816L16.7864 15.6302ZM16.2736 16.0318H17.0331V16.4381H16.2736V16.0318ZM16.0172 16.4381H16.5252V16.8445H16.0221L16.0172 16.4381ZM16.7767 16.4381H17.2895V16.8445H16.7816L16.7767 16.4381ZM14 16.0318H14.5079V16.4381H14V16.0318ZM14.2516 16.4381H14.7595V16.8445H14.2516V16.4381ZM18.8085 16.0318H19.3116V16.4381H18.8085V16.0318ZM18.5473 16.4381H19.0552V16.8445H18.5569L18.5473 16.4381ZM14 20.1001H14.2516V20.5064H14V20.1001ZM19.06 20.1001H19.3116V20.5064H19.06V20.1001ZM16.2785 23.3557H17.038V23.7621H16.2736L16.2785 23.3557ZM16.0221 23.7621H16.53V24.1684H16.0221V23.7621ZM16.7816 23.7621H17.2895V24.1684H16.7816V23.7621ZM15.7705 24.1684H16.2785V24.5748H15.7705V24.1684ZM17.038 24.1684H17.541V24.5748H17.038V24.1684ZM15.519 24.5748H16.0269V24.9811H15.519V24.5748ZM17.2895 24.5748H17.7974V24.9811H17.2895V24.5748ZM15.2626 24.9811H15.7705V25.3875H15.2626V24.9811ZM17.541 24.9811H18.049V25.3875H17.541V24.9811ZM14.7595 25.3875H15.519V25.7938H14.7595V25.3875ZM17.7974 25.3875H18.5569V25.7938H17.7974V25.3875ZM18.3005 24.9811H18.8085V25.3875H18.3005V24.9811ZM18.5569 24.5748H19.06V24.9811H18.5569V24.5748ZM18.8085 24.1684H19.3116V24.5748H18.8085V24.1684ZM14.5031 24.9811H15.0159V25.3875H14.5079L14.5031 24.9811ZM14.2516 24.5748H14.7595V24.9811H14.2516V24.5748Z" fill="#B20000"/>
<path fill-rule="evenodd" clip-rule="evenodd" d="M14 24.1685H14.5079V24.5748H14V24.1685ZM15.0159 25.7939H15.2674V26.2002H15.011L15.0159 25.7939ZM18.049 25.7939H18.3005V26.2002H18.049V25.7939ZM16.53 24.5748H16.7816V24.9812H16.53V24.5748ZM15.7705 25.7939H16.0221V26.2002H15.7705V25.7939ZM17.2895 25.7939H17.541V26.2002H17.2895V25.7939ZM16.53 25.7939H16.7816V26.2002H16.53V25.7939ZM14 25.7939H14.2516V26.2002H14V25.7939ZM19.06 25.7939H19.3116V26.2002H19.06V25.7939ZM16.53 20.1001H16.7816V20.5065H16.53V20.1001ZM15.2674 16.0366H15.519V16.4381H15.2674V16.0366ZM17.7974 16.0366H18.049V16.4381H17.7974V16.0366ZM16.2736 18.8762H17.0331V19.2826H16.2736V18.8762ZM15.7705 19.2874H16.53V19.6938H15.7705V19.2874Z" fill="#B20000"/>
<path fill-rule="evenodd" clip-rule="evenodd" d="M16.0221 19.6938H16.2785V20.1001H16.0221V19.6938ZM15.519 18.8811H16.0269V19.2874H15.519V18.8811ZM15.7705 18.4747H16.53V18.8811H15.7705V18.4747ZM16.0221 18.0684H16.2785V18.4747H16.0221V18.0684ZM16.7816 18.4747H17.5411V18.8811H16.7816V18.4747ZM17.038 18.0684H17.2895V18.4747H17.038V18.0684ZM17.2895 18.8811H17.7974V19.2874H17.2895V18.8811ZM16.7816 19.2874H17.5411V19.6938H16.7816V19.2874ZM17.038 19.6938H17.2895V20.1001H17.038V19.6938ZM18.049 18.8811H18.5569V19.2874H18.049V18.8811ZM18.3005 18.4747H19.06V18.8811H18.3054L18.3005 18.4747ZM18.8085 18.8811H19.3116V19.2874H18.8085V18.8811Z" fill="#B20000"/>
<path fill-rule="evenodd" clip-rule="evenodd" d="M18.3054 19.2874H19.06V19.6938H18.3054V19.2874ZM18.5569 19.6938H18.8085V20.1001H18.5569V19.6938ZM18.5569 18.0684H18.8085V18.4747H18.5569V18.0684ZM14 18.8811H14.5079V19.2874H14V18.8811ZM14.2515 18.4747H15.0159V18.8811H14.2515V18.4747ZM14.7595 18.8811H15.2674V19.2874H14.7595V18.8811Z" fill="#B20000"/>
<path fill-rule="evenodd" clip-rule="evenodd" d="M14.2516 19.2874H15.0159V19.6938H14.2516V19.2874ZM14.5079 19.6938H14.7595V20.1001H14.5079V19.6938ZM14.5079 18.0684H14.7595V18.4747H14.5079V18.0684ZM14.2516 21.3192H15.2674V21.7255H14.2516V21.3192ZM15.519 21.3192H16.5349V21.7255H15.519V21.3192ZM16.7816 21.3192H17.7974V21.7255H16.7816V21.3192ZM18.049 21.3192H19.0649V21.7255H18.049V21.3192ZM16.0221 22.1319H17.2895V22.543H16.0221V22.1319ZM14.2516 22.1319H15.519V22.543H14.2516V22.1319ZM17.7974 22.1319H19.06V22.543H17.7974V22.1319ZM19.06 23.7621H19.3116V24.1684H19.06V23.7621ZM14 23.7621H14.2516V24.1684H14V23.7621ZM14.2516 37.5925H14.5079V37.1813H14.2516V37.5925ZM15.011 37.5925H15.7705V37.1813H15.0159L15.011 37.5925ZM15.2626 37.994H15.519V37.5925H15.2578L15.2626 37.994ZM16.53 37.994H16.7816V37.5925H16.53V37.994ZM17.5459 37.5925H18.3005V37.1862H17.541L17.5459 37.5925ZM17.7974 37.994H18.049V37.5925H17.7974V37.994ZM14.7595 37.1813H15.2674V36.775H14.7595V37.1813ZM15.519 37.1813H16.0269V36.775H15.519V37.1813ZM17.2895 37.1813H17.7974V36.775H17.2895V37.1813ZM18.049 37.1813H18.5473V36.775H18.0538L18.049 37.1813ZM15.7754 36.775H16.2736V36.3686H15.7705L15.7754 36.775ZM17.0331 36.775H17.541V36.3686H17.038L17.0331 36.775ZM18.3005 36.775H18.8085V36.3686H18.3005V36.775ZM18.8085 37.5925H19.06V37.1813H18.8085V37.5925ZM14.2516 36.3686H14.7595V35.9623H14.2516V36.3686ZM16.0221 36.3686H16.53V35.9623H16.0221V36.3686ZM18.5569 36.3686H19.06V35.9623H18.5569V36.3686ZM14.5079 35.1496H15.011V34.7432H14.5079V35.1496ZM14.7595 34.7432H15.2674V34.3369H14.7595V34.7432ZM15.7754 35.1496H16.2736V34.7432H15.7705L15.7754 35.1496ZM15.519 34.7432H16.0221V34.3369H15.519V34.7432ZM15.011 34.3369H15.7705V33.9305H15.0159L15.011 34.3369ZM15.2626 33.9305H15.519V33.5242H15.2578L15.2626 33.9305ZM17.038 35.1496H17.541V34.7432H17.038V35.1496ZM17.2895 34.7432H17.7974V34.3369H17.2895V34.7432ZM18.3054 35.1496H18.8085V34.7432H18.3005L18.3054 35.1496ZM18.049 34.7432H18.5473V34.3369H18.0538L18.049 34.7432ZM17.541 34.3369H18.3054V33.9305H17.541V34.3369ZM17.7974 33.9305H18.049V33.5242H17.7974V33.9305ZM16.53 34.3369H16.7816V33.9305H16.53V34.3369ZM14 34.3369H14.2516V33.9305H14V34.3369ZM19.06 34.3369H19.3116V33.9305H19.06V34.3369ZM15.2674 32.3051H15.519V31.8939H15.2674V32.3051Z" fill="#B20000"/>
<path fill-rule="evenodd" clip-rule="evenodd" d="M15.0159 31.8988H15.7705V31.4876H15.0159V31.8988ZM14.7595 31.4876H16.0269V31.0813H14.7595V31.4876ZM17.7974 32.3003H18.049V31.8988H17.7974V32.3003ZM17.541 31.8988H18.3054V31.4876H17.541V31.8988ZM17.2895 31.4876H18.5521V31.0813H17.2895V31.4876ZM17.541 29.4559H18.8085V29.0495H17.541V29.4559ZM17.038 31.0813H18.8085V30.6749H17.038V31.0813ZM14.5079 31.0813H16.2736V30.6749H14.5079V31.0813ZM14.7595 29.0495H15.519V28.6432H14.7595V29.0495ZM14.5079 29.4559H15.7705V29.0495H14.5079V29.4559ZM18.049 30.2686H19.3116V29.867H18.0538L18.049 30.2686ZM17.7974 29.0495H18.5569V28.6432H17.7974V29.0495ZM14 30.2686H15.2674V29.867H14V30.2686ZM16.2736 29.4559H17.038V29.0495H16.2736V29.4559ZM16.53 29.0495H16.7816V28.6432H16.53V29.0495ZM15.7705 30.2686H17.541V29.867H15.7705V30.2686ZM16.7864 36.3686H17.2895V35.9623H16.7816L16.7864 36.3686ZM16.2736 35.9623H17.0331V35.5559H16.2736V35.9623ZM16.0172 35.5559H16.5252V35.1496H16.0221L16.0172 35.5559ZM16.7767 35.5559H17.2895V35.1496H16.7816L16.7767 35.5559ZM14 35.9623H14.5079V35.5559H14V35.9623ZM14.2516 35.5559H14.7595V35.1496H14.2516V35.5559ZM18.8085 35.9623H19.3116V35.5559H18.8085V35.9623ZM18.5521 35.5559H19.06V35.1496H18.5569L18.5521 35.5559ZM14 31.8988H14.2516V31.4924H14V31.8988ZM19.06 31.8988H19.3116V31.4924H19.06V31.8988ZM16.0221 28.2416H16.53V27.8353H16.0221V28.2416ZM16.7816 28.2416H17.2895V27.8353H16.7816V28.2416ZM15.7705 27.8353H16.2785V27.4289H15.7705V27.8353ZM17.038 27.8353H17.541V27.4289H17.038V27.8353ZM15.519 27.4241H16.0221V27.0129H15.519V27.4241ZM17.2895 27.4241H17.7974V27.0129H17.2895V27.4241ZM15.2626 27.0129H15.7705V26.6114H15.2626V27.0129ZM17.541 27.0129H18.049V26.6114H17.541V27.0129ZM14.7595 26.6114H15.519V26.2002H14.7595V26.6114ZM17.7974 26.6114H18.5569V26.2002H17.7974V26.6114ZM18.3005 27.0178H18.8085V26.6066H18.3005V27.0178ZM18.5569 27.4193H19.06V27.0178H18.5569V27.4193ZM18.8085 27.8305H19.3116V27.4241H18.8085V27.8305ZM14.5031 27.0178H15.0159V26.6066H14.5079L14.5031 27.0178ZM14.2516 27.4193H14.7595V27.0178H14.2516V27.4193ZM14 27.8353H14.5079V27.4289H14V27.8353ZM15.0159 26.2051H15.2674V25.7987H15.011L15.0159 26.2051ZM16.53 27.4289H16.7816V27.0129H16.53V27.4289ZM16.53 31.9036H16.7816V31.4924H16.53V31.9036ZM15.2674 35.9671H15.519V35.5608H15.2674V35.9671ZM17.7974 35.9671H18.049V35.5608H17.7974V35.9671ZM16.2736 33.1178H17.0331V32.7115H16.2736V33.1178ZM15.7657 32.7115H16.5252V32.3051H15.7705L15.7657 32.7115ZM16.0172 32.3003H16.2736V31.8988H16.0172V32.3003ZM15.5141 33.1178H16.0172V32.7115H15.519L15.5141 33.1178ZM15.7705 33.5242H16.53V33.1178H15.7705V33.5242ZM16.0221 33.9305H16.2785V33.5242H16.0221V33.9305ZM16.7816 33.5242H17.541V33.1178H16.7816V33.5242ZM17.038 33.9305H17.2895V33.5242H17.038V33.9305ZM17.2895 33.1178H17.7974V32.7115H17.2895V33.1178ZM16.7816 32.7115H17.541V32.3051H16.7816V32.7115ZM17.038 32.3003H17.2895V31.8988H17.038V32.3003ZM18.049 33.1178H18.5473V32.7115H18.0538L18.049 33.1178ZM18.3005 33.5242H19.06V33.1178H18.3054L18.3005 33.5242ZM18.8085 33.1178H19.3116V32.7115H18.8085V33.1178ZM18.3005 32.7115H19.06V32.3051H18.3054L18.3005 32.7115ZM18.5569 32.3003H18.8085V31.8988H18.5569V32.3003ZM18.5569 33.9305H18.8085V33.5242H18.5569V33.9305ZM14 33.1178H14.5079V32.7115H14V33.1178Z" fill="#B20000"/>
<path fill-rule="evenodd" clip-rule="evenodd" d="M14.2516 33.5241H15.0159V33.1178H14.2516V33.5241ZM14.7595 33.1178H15.2674V32.7114H14.7595V33.1178ZM14.2516 32.7114H15.0159V32.3051H14.2516V32.7114ZM14.5079 32.3002H14.7595V31.8987H14.5079V32.3002ZM14.5079 33.9305H14.7595V33.5241H14.5079V33.9305ZM14.2516 30.6748H15.2674V30.2685H14.2516V30.6748ZM15.519 30.6748H16.5349V30.2685H15.519V30.6748ZM16.7816 30.6748H17.7974V30.2685H16.7816V30.6748ZM18.049 30.6748H19.0649V30.2685H18.049V30.6748ZM16.0221 29.867H17.2895V29.4606H16.0221V29.867ZM14.2516 29.867H15.519V29.4606H14.2516V29.867ZM17.7974 29.867H19.06V29.4606H17.7974V29.867ZM19.06 28.2416H19.3116V27.8352H19.06V28.2416ZM14 28.2367H14.2516V27.8304H14V28.2367ZM16.2736 26.205H16.53V26.6065H16.2785L16.2736 26.205ZM16.7816 26.205H17.038V26.6065H16.7816V26.205ZM16.7816 25.3875H17.038V25.7938H16.7816V25.3875ZM16.2785 25.3875H16.53V25.7938H16.2785V25.3875ZM14.5079 36.3686H15.011V36.7749H14.5079V36.3686ZM18.049 28.6431H18.3005V28.2367H18.049V28.6431ZM15.011 28.6431H15.2626V28.2367H15.0159L15.011 28.6431ZM16.2785 28.2367H17.038V28.6431H16.2736L16.2785 28.2367Z" fill="#B20000"/>
</g>
</g>
</g>
</g>
<defs>
<filter id="filter0_d_552_6980" x="0" y="0" width="52" height="52" filterUnits="userSpaceOnUse" color-interpolation-filters="sRGB">
<feFlood flood-opacity="0" result="BackgroundImageFix"/>
<feColorMatrix in="SourceAlpha" type="matrix" values="0 0 0 0 0 0 0 0 0 0 0 0 0 0 0 0 0 0 127 0" result="hardAlpha"/>
<feMorphology radius="2" operator="dilate" in="SourceAlpha" result="effect1_dropShadow_552_6980"/>
<feOffset/>
<feGaussianBlur stdDeviation="6"/>
<feComposite in2="hardAlpha" operator="out"/>
<feColorMatrix type="matrix" values="0 0 0 0 0 0 0 0 0 0 0 0 0 0 0 0 0 0 0.08 0"/>
<feBlend mode="normal" in2="BackgroundImageFix" result="effect1_dropShadow_552_6980"/>
<feBlend mode="normal" in="SourceGraphic" in2="effect1_dropShadow_552_6980" result="shape"/>
</filter>
<clipPath id="clip0_552_6980">
<rect x="14" y="14" width="24" height="24" rx="6" fill="white"/>
</clipPath>
<clipPath id="clip1_552_6980">
<rect width="24" height="24" fill="white" transform="translate(14 14)"/>
</clipPath>
</defs>
</svg>
