<svg width="52" height="52" viewBox="0 0 52 52" fill="none" xmlns="http://www.w3.org/2000/svg">
<g filter="url(#filter0_d_552_5882)">
<g clip-path="url(#clip0_552_5882)">
<g clip-path="url(#clip1_552_5882)">
<path fill-rule="evenodd" clip-rule="evenodd" d="M14 14H38V38H14V14Z" fill="#229E45"/>
<path fill-rule="evenodd" clip-rule="evenodd" d="M26.253 33.0032L37.0249 26.0094L26.1874 18.9969L15.3734 26.0282L26.2484 33.0032H26.253Z" fill="#F8E509"/>
<path fill-rule="evenodd" clip-rule="evenodd" d="M30.9453 26C30.9642 26.6104 30.8603 27.2183 30.6396 27.7877C30.419 28.357 30.0862 28.8763 29.6609 29.3145C29.2357 29.7527 28.7267 30.1009 28.1642 30.3385C27.6017 30.5761 26.9971 30.6983 26.3865 30.6976C25.7759 30.697 25.1716 30.5736 24.6096 30.3349C24.0476 30.0961 23.5393 29.7468 23.115 29.3077C22.6906 28.8686 22.3589 28.3487 22.1394 27.7789C21.9199 27.2091 21.8173 26.601 21.8375 25.9907C21.8766 24.8082 22.3742 23.6873 23.2249 22.8651C24.0756 22.043 25.2128 21.5839 26.3959 21.5851C27.579 21.5864 28.7152 22.0477 29.5643 22.8717C30.4133 23.6956 30.9086 24.8175 30.9453 26Z" fill="#2B49A3"/>
<path fill-rule="evenodd" clip-rule="evenodd" d="M24.889 28.7282L24.7484 28.6438L24.6031 28.7188L24.6359 28.5547L24.5234 28.4375L24.6828 28.4188L24.7578 28.2688L24.8281 28.4235L24.9875 28.4516L24.8656 28.5641M27.9453 29.5016L27.8046 29.4172L27.6546 29.4922L27.6875 29.3282L27.575 29.211L27.739 29.1922L27.814 29.0422L27.8796 29.1969L28.039 29.225L27.9218 29.3375M26.6281 28.2641L26.5062 28.1938L26.3796 28.2547L26.4078 28.1141L26.314 28.011L26.45 27.9969L26.5156 27.8704L26.5718 28.0016L26.7125 28.025L26.6093 28.1188M29.7125 27.8188L29.5906 27.7485L29.4687 27.8094L29.4968 27.6735L29.4031 27.575L29.539 27.5563L29.6 27.4344L29.6609 27.561L29.7968 27.5844L29.6937 27.6782M26.5718 26.8954L26.4312 26.811L26.2859 26.886L26.3187 26.7219L26.2062 26.6047L26.3656 26.586L26.4406 26.4407L26.5109 26.5907L26.6703 26.6188L26.5484 26.7313M22.8125 25.4844L22.6718 25.4L22.5312 25.475L22.5593 25.311L22.4468 25.1938L22.6109 25.175L22.6859 25.025L22.7515 25.1797L22.9109 25.2079L22.7937 25.3204M23.2671 27.3594L23.1265 27.2797L22.9812 27.35L23.014 27.1907L22.9015 27.0688L23.0609 27.05L23.1359 26.9094L23.2062 27.0547L23.3656 27.0875L23.2437 27.1954M27.9593 24.7907L27.8375 24.7204L27.7062 24.7813L27.7343 24.6407L27.6406 24.5329L27.7812 24.5188L27.8468 24.3875L27.9078 24.5235L28.0484 24.5469L27.9406 24.6454M27.7062 26.0141L27.5937 25.9532L27.4953 26L27.514 25.8875L27.439 25.8079L27.5515 25.7938L27.6031 25.6907L27.65 25.7985L27.7625 25.8172L27.6781 25.8922M22.5968 27.6969L22.5031 27.6407L22.4046 27.6875L22.4234 27.5797L22.3484 27.5L22.4609 27.4907L22.5078 27.3969L22.5546 27.4907L22.6625 27.5141L22.5828 27.5891M29.7359 28.1282L29.6562 28.0907L29.5765 28.1235L29.5953 28.0438L29.5343 27.9829L29.6234 27.9735L29.6656 27.9032L29.6984 27.9782L29.7875 27.9922L29.7218 28.0485" fill="#FFFFEF"/>
<path fill-rule="evenodd" clip-rule="evenodd" d="M22.6015 27.7016L22.5078 27.6453L22.4093 27.6922L22.4328 27.5844L22.3531 27.5047L22.4609 27.4953L22.5125 27.4016L22.5593 27.4953L22.6672 27.5188L22.5875 27.5938" fill="#FFFFEF"/>
<path fill-rule="evenodd" clip-rule="evenodd" d="M22.6015 27.7016L22.5078 27.6453L22.4093 27.6922L22.4328 27.5844L22.3531 27.5047L22.4609 27.4953L22.5125 27.4016L22.5593 27.4953L22.6672 27.5188L22.5875 27.5938M24.0968 27.7016L24.0031 27.6453L23.9093 27.6922L23.9281 27.5844L23.8531 27.5047L23.9609 27.4953L24.0078 27.3969L24.0547 27.4953L24.1625 27.5188L24.0828 27.5938M23.9093 28.2031L23.8156 28.1469L23.7218 28.1938L23.7406 28.086L23.6656 28.0063L23.7734 27.9922L23.8203 27.8985L23.8672 27.9922L23.975 28.0156L23.8953 28.0906M27.0218 27.2938L26.9281 27.2375L26.8297 27.2844L26.8484 27.1766L26.7734 27.0969L26.8812 27.0875L26.9328 26.9891L26.9797 27.0875L27.0828 27.1063L27.0031 27.1813M26.1078 27.2938L26.014 27.2375L25.9156 27.2844L25.939 27.1766L25.864 27.0969L25.9718 27.0875L26.0187 26.9891L26.0656 27.0875L26.1734 27.1063L26.0937 27.1813M23.6328 26.975L23.5765 26.9422L23.5156 26.9703L23.525 26.9L23.4781 26.8531L23.5484 26.8438L23.5812 26.7828L23.6047 26.8485L23.675 26.8578L23.6281 26.9047M29.6187 28.5313L29.525 28.4797L29.4265 28.5266L29.45 28.4188L29.375 28.3391L29.4828 28.325L29.5297 28.2313L29.5765 28.325L29.6843 28.3485L29.6047 28.4235M28.8547 28.6297L28.7797 28.5828L28.7 28.6297L28.7187 28.536L28.6531 28.4703L28.7468 28.461L28.7843 28.3813L28.8218 28.461L28.9156 28.4797L28.8453 28.5406M29.2203 28.625L29.1453 28.5781L29.0703 28.6203L29.0843 28.536L29.0281 28.475L29.1125 28.4656L29.15 28.3906L29.1828 28.4656L29.2672 28.4797L29.2062 28.5406M30.2468 27.725L30.1765 27.6828L30.1015 27.7203L30.1203 27.6406L30.064 27.5797L30.1437 27.5703L30.1812 27.5L30.214 27.575L30.2937 27.5891L30.2328 27.6453M28.8593 29.136L28.7656 29.0844L28.6718 29.1313L28.6953 29.0281L28.6203 28.9578L28.7234 28.9438L28.775 28.8547L28.8218 28.9485L28.9203 28.9672L28.8453 29.0328M28.864 29.5438L28.7797 29.4969L28.6953 29.5391L28.714 29.436L28.6484 29.3656L28.7422 29.3516L28.789 29.2625L28.8265 29.3563L28.9203 29.375L28.85 29.4406M28.1703 28.625L28.1 28.5828L28.025 28.6203L28.0437 28.536L27.9875 28.4797L28.0672 28.4703L28.1047 28.3953L28.1375 28.4703L28.2172 28.4844L28.1562 28.5406M27.5234 28.625L27.4531 28.5828L27.3781 28.6203L27.3968 28.536L27.3406 28.4797L27.4203 28.4703L27.4578 28.3953L27.4906 28.4703L27.5703 28.4844L27.514 28.5406M26.4218 27.6594L26.3515 27.6172L26.2765 27.6547L26.2953 27.575L26.239 27.5141L26.3187 27.5047L26.3562 27.4344L26.389 27.5094L26.4687 27.5235L26.4078 27.575M26.5437 29.6141L26.4828 29.5813L26.4218 29.6141L26.4359 29.5438L26.389 29.4969L26.4547 29.4828L26.4875 29.4219L26.5156 29.4875L26.5859 29.4969L26.5343 29.5438M24.8843 26.45L24.7437 26.3703L24.5984 26.4406L24.6312 26.2813L24.5187 26.1594L24.6781 26.1406L24.7531 25.9953L24.8234 26.1453L24.9828 26.1735L24.8609 26.286" fill="#FFFFEF"/>
<path fill-rule="evenodd" clip-rule="evenodd" d="M30.6453 27.6407C30.7335 27.4108 30.8024 27.1741 30.8515 26.9329C28.4328 24.8047 25.7328 23.7125 22.3203 23.9375C22.198 24.1764 22.0976 24.4259 22.0203 24.6829C23.5858 24.5248 25.167 24.7068 26.6556 25.2165C28.1443 25.7262 29.5052 26.5515 30.6453 27.636V27.6407Z" fill="white"/>
<path d="M29.5578 26.4406L29.6421 26.4875C29.629 26.5136 29.6257 26.5436 29.6328 26.5719C29.6374 26.5906 29.6562 26.6141 29.6796 26.6281C29.7078 26.6469 29.7312 26.6563 29.7546 26.6563C29.7734 26.6563 29.7921 26.6422 29.8015 26.6281C29.8062 26.6188 29.8109 26.6094 29.8062 26.5953L29.7921 26.5578L29.7359 26.4969C29.706 26.4665 29.6835 26.4296 29.6703 26.3891C29.6621 26.3586 29.6651 26.3262 29.6789 26.2977C29.6927 26.2693 29.7162 26.2468 29.7453 26.2344C29.7703 26.2233 29.798 26.2201 29.8249 26.225C29.8588 26.2324 29.8907 26.2468 29.9187 26.2672C29.9593 26.2958 29.9917 26.3346 30.0124 26.3797C30.0181 26.4005 30.019 26.4222 30.0149 26.4434C30.0108 26.4645 30.002 26.4844 29.989 26.5016L29.9046 26.45C29.914 26.4266 29.9187 26.4031 29.914 26.3844C29.9093 26.3703 29.8906 26.3516 29.8671 26.3375C29.8437 26.3188 29.8203 26.3141 29.8015 26.3141C29.7961 26.3142 29.7907 26.3156 29.7859 26.318C29.781 26.3205 29.7768 26.3239 29.7734 26.3281C29.7701 26.3329 29.768 26.3383 29.7672 26.344C29.7664 26.3497 29.7669 26.3555 29.7687 26.361C29.7687 26.3797 29.7921 26.4078 29.8249 26.4406L29.8953 26.5344C29.908 26.5577 29.9139 26.5842 29.9123 26.6108C29.9106 26.6373 29.9015 26.6628 29.8859 26.6844C29.8695 26.7076 29.8467 26.7256 29.8203 26.736C29.7924 26.7487 29.7611 26.752 29.7312 26.7453C29.6956 26.7363 29.6622 26.7204 29.6328 26.6985C29.5885 26.6719 29.5552 26.6303 29.539 26.5813C29.5249 26.5391 29.5296 26.4922 29.5578 26.4406ZM29.1453 26.1735L29.239 26.2203C29.228 26.2437 29.2247 26.27 29.2296 26.2953C29.2343 26.3188 29.2531 26.3422 29.2765 26.3563C29.3046 26.375 29.3281 26.3797 29.3515 26.375C29.3703 26.375 29.389 26.3656 29.3984 26.3469C29.4028 26.3382 29.4045 26.3284 29.4031 26.3188C29.4031 26.3047 29.3984 26.2953 29.3843 26.2813L29.3281 26.2203C29.2972 26.1917 29.2732 26.1564 29.2578 26.1172C29.2515 26.0986 29.2496 26.0788 29.252 26.0594C29.2544 26.0399 29.2612 26.0212 29.2718 26.0047C29.2857 25.9841 29.3052 25.9678 29.3281 25.9578C29.3532 25.947 29.3808 25.9438 29.4078 25.9485C29.4359 25.9485 29.464 25.9625 29.5015 25.986C29.5484 26.0188 29.5859 26.0516 29.5953 26.0938C29.6023 26.1138 29.6046 26.1352 29.6022 26.1563C29.5998 26.1774 29.5926 26.1977 29.5812 26.2156L29.4921 26.1641C29.5062 26.1406 29.5062 26.1172 29.5015 26.1031C29.4921 26.0844 29.4781 26.0703 29.4546 26.0563C29.4345 26.0407 29.4097 26.0325 29.3843 26.0328C29.3785 26.0335 29.3729 26.0356 29.368 26.0389C29.3631 26.0421 29.3591 26.0465 29.3562 26.0516C29.3537 26.0567 29.3524 26.0623 29.3524 26.068C29.3524 26.0737 29.3537 26.0793 29.3562 26.0844C29.3562 26.0985 29.3796 26.1266 29.4124 26.1641C29.4499 26.1969 29.4734 26.2297 29.4874 26.2485C29.5019 26.2719 29.5091 26.299 29.5083 26.3265C29.5075 26.354 29.4986 26.3806 29.4828 26.4031C29.4668 26.4274 29.4441 26.4466 29.4175 26.4582C29.3909 26.4699 29.3614 26.4735 29.3328 26.4688C29.2959 26.4616 29.2609 26.4473 29.2296 26.4266C29.1847 26.4017 29.1499 26.3619 29.1312 26.3141C29.1178 26.2671 29.1229 26.2168 29.1453 26.1735ZM28.639 26.0328L28.9015 25.611L29.2156 25.7985L29.1687 25.8735L28.9437 25.7328L28.8828 25.8266L29.0984 25.9578L29.0515 26.0328L28.8406 25.9016L28.7703 26.0188L29.0046 26.1594L28.9624 26.2344L28.639 26.0375V26.0328ZM27.8984 25.4281L27.9406 25.3531L28.1281 25.4563L28.039 25.6297C27.963 25.6466 27.8835 25.6366 27.814 25.6016C27.7721 25.5798 27.7365 25.5475 27.7109 25.5078C27.6861 25.472 27.673 25.4295 27.6734 25.386C27.6734 25.3391 27.6874 25.2969 27.7109 25.2547C27.7325 25.2114 27.7648 25.1743 27.8046 25.1469C27.8374 25.1188 27.8843 25.1047 27.9312 25.1047C27.964 25.1047 28.0062 25.1188 28.0484 25.1375C28.0946 25.1592 28.1324 25.1954 28.1562 25.2406C28.1749 25.2781 28.1796 25.3203 28.1703 25.3672L28.0718 25.3391C28.0771 25.3153 28.0738 25.2904 28.0624 25.2688C28.05 25.2458 28.0302 25.2276 28.0062 25.2172C27.9896 25.2069 27.9709 25.2003 27.9515 25.1979C27.9321 25.1955 27.9123 25.1973 27.8937 25.2031C27.8609 25.2172 27.8281 25.25 27.7999 25.2969C27.7771 25.34 27.7689 25.3893 27.7765 25.4375C27.7859 25.475 27.8093 25.5031 27.8515 25.5219L27.9124 25.5406H27.9734L28.0015 25.4844L27.8984 25.4281ZM24.6734 24.6313L24.7484 24.1344L24.8984 24.1578L24.9359 24.5094L25.0765 24.1813L25.2218 24.2047L25.1515 24.7016L25.0578 24.6875L25.114 24.2985L24.9593 24.6735L24.8656 24.6594L24.8234 24.2516L24.7671 24.6453L24.6734 24.6313ZM24.1718 24.5703L24.2187 24.0735L24.5843 24.1063L24.5796 24.1906L24.3078 24.1672L24.2984 24.275L24.5468 24.2985L24.5421 24.3828L24.2937 24.3594L24.2796 24.5L24.5562 24.5235L24.5468 24.6078L24.1718 24.5703Z" fill="#309E3A"/>
<path d="M22.5031 24.2563C22.5031 24.2094 22.5125 24.1625 22.5265 24.1297L22.5734 24.0641L22.6437 24.0172C22.6783 24.0053 22.715 24.0005 22.7515 24.0031C22.7841 24.0029 22.8163 24.0095 22.8461 24.0224C22.876 24.0353 22.9028 24.0543 22.925 24.0781C22.9718 24.125 22.9859 24.186 22.9859 24.2656C22.9859 24.35 22.9578 24.411 22.9156 24.4531C22.8921 24.4759 22.8641 24.4935 22.8335 24.5048C22.8028 24.5161 22.7701 24.5209 22.7375 24.5188C22.7053 24.5196 22.6733 24.5138 22.6434 24.5017C22.6136 24.4896 22.5866 24.4715 22.564 24.4485C22.5409 24.4235 22.5234 24.3938 22.5129 24.3614C22.5024 24.329 22.499 24.2948 22.5031 24.261V24.2563Z" fill="#309E3A"/>
<path d="M22.6063 24.2563C22.6063 24.3125 22.6156 24.3594 22.6437 24.3875C22.6672 24.4203 22.7 24.4344 22.7375 24.4344C22.7567 24.4348 22.7757 24.4312 22.7934 24.424C22.8112 24.4167 22.8272 24.4059 22.8406 24.3922C22.8641 24.3641 22.8781 24.3219 22.8828 24.2656C22.8828 24.2047 22.8734 24.1625 22.8453 24.1344C22.8339 24.1203 22.8197 24.1089 22.8035 24.1008C22.7873 24.0927 22.7696 24.0882 22.7516 24.0875C22.7047 24.0875 22.6719 24.1016 22.6484 24.1297C22.6203 24.1578 22.6063 24.2 22.6016 24.2563H22.6063Z" fill="#F7FFFF"/>
<path d="M23.0937 24.5188L23.0984 24.0172H23.3093C23.3656 24.0172 23.4031 24.0266 23.4265 24.036C23.4499 24.0453 23.4734 24.0594 23.4828 24.0828C23.4921 24.1063 23.5062 24.1297 23.5062 24.1625C23.5062 24.2 23.4921 24.2281 23.4734 24.2563C23.4499 24.2797 23.4171 24.2938 23.3703 24.3031C23.3937 24.3125 23.4124 24.3266 23.4265 24.3406L23.4828 24.425L23.5437 24.5188H23.4218L23.3515 24.411C23.3343 24.3848 23.3155 24.3598 23.2953 24.336C23.2874 24.3277 23.2778 24.3212 23.2671 24.3172C23.252 24.3118 23.2363 24.3087 23.2203 24.3078H23.1968V24.5188H23.0937Z" fill="#309E3A"/>
<path d="M23.1968 24.2282H23.2718C23.3029 24.232 23.3344 24.232 23.3655 24.2282L23.389 24.2047C23.3983 24.1954 23.403 24.1813 23.403 24.1672C23.403 24.1485 23.3983 24.1344 23.389 24.125C23.3791 24.1146 23.3658 24.1079 23.3515 24.1063H23.2015V24.2282H23.1968Z" fill="white"/>
<path d="M23.6656 24.0406L23.8484 24.05C23.8801 24.0505 23.9117 24.0552 23.9421 24.0641C23.9688 24.0742 23.9929 24.0902 24.0125 24.111C24.0343 24.1369 24.0503 24.1673 24.0593 24.2C24.0687 24.2328 24.0687 24.2703 24.0687 24.3172C24.0701 24.3531 24.0637 24.3889 24.0499 24.422C24.0362 24.4552 24.0154 24.485 23.989 24.5094C23.9703 24.5235 23.9468 24.5375 23.9187 24.5469H23.825L23.6375 24.5422L23.6656 24.0406Z" fill="#309E3A"/>
<path d="M23.7593 24.1297L23.7452 24.4579L23.8202 24.4672H23.8812L23.9234 24.4438C23.9374 24.4344 23.9421 24.4204 23.9515 24.3969L23.9656 24.3032L23.9609 24.2188C23.9515 24.1954 23.9468 24.1813 23.9327 24.1719C23.9203 24.1581 23.9039 24.1483 23.8859 24.1438C23.8596 24.1383 23.833 24.1352 23.8062 24.1344H23.7593V24.1297Z" fill="white"/>
<path d="M26.1171 24.936L26.2343 24.4485L26.389 24.486C26.4499 24.5 26.4874 24.5141 26.5062 24.5235C26.5296 24.5375 26.5531 24.5563 26.5624 24.5844C26.5765 24.6172 26.5765 24.65 26.5671 24.6875C26.563 24.7117 26.5526 24.7344 26.5369 24.7533C26.5213 24.7722 26.501 24.7867 26.4781 24.7953C26.4619 24.8033 26.4444 24.808 26.4265 24.8094C26.3916 24.8064 26.3571 24.8001 26.3234 24.7906L26.2578 24.7766L26.2109 24.9594L26.1171 24.936Z" fill="#309E3A"/>
<path d="M26.3092 24.5562L26.2764 24.6969L26.3327 24.7062C26.3702 24.7156 26.3983 24.7203 26.4124 24.7156C26.4253 24.7143 26.4376 24.7091 26.4476 24.7008C26.4577 24.6924 26.465 24.6813 26.4686 24.6687L26.4639 24.6172C26.4559 24.602 26.4425 24.5904 26.4264 24.5844L26.3561 24.5656L26.3092 24.5562Z" fill="white"/>
<path d="M26.5812 25.0766L26.7452 24.6031L26.9468 24.6735C26.9834 24.6838 27.0181 24.6996 27.0499 24.7203C27.0687 24.7391 27.0827 24.7625 27.0921 24.7906C27.1015 24.8188 27.0921 24.8422 27.0827 24.8703C27.0734 24.9078 27.0499 24.9313 27.0218 24.9453C27.0057 24.9547 26.9878 24.9608 26.9693 24.9632C26.9508 24.9656 26.932 24.9643 26.914 24.9594L26.9515 25.0156L26.9796 25.1094L27.0031 25.2219L26.8906 25.1844L26.8577 25.0578C26.8504 25.0275 26.841 24.9978 26.8296 24.9688C26.8256 24.9581 26.8192 24.9485 26.8109 24.9406C26.7966 24.9303 26.7808 24.9224 26.764 24.9172L26.7452 24.9125L26.6749 25.1094L26.5812 25.0766Z" fill="#309E3A"/>
<path d="M26.7687 24.8375L26.839 24.861L26.9281 24.8844C26.9421 24.8844 26.9515 24.8844 26.9609 24.875L26.9843 24.8422V24.7954C26.9783 24.7831 26.9684 24.7732 26.9562 24.7672L26.8859 24.7438L26.8109 24.7157L26.7687 24.8375Z" fill="white"/>
<path d="M27.1671 25.0578C27.179 25.015 27.1998 24.975 27.228 24.9407C27.2421 24.9172 27.2655 24.9032 27.289 24.8891C27.3122 24.8763 27.3377 24.8684 27.364 24.8657C27.3968 24.8657 27.4343 24.8657 27.4718 24.8797C27.5036 24.8877 27.5334 24.9022 27.5592 24.9224C27.5851 24.9426 27.6064 24.968 27.6218 24.9969C27.6499 25.0532 27.6546 25.1235 27.6265 25.1985C27.6187 25.2322 27.6044 25.264 27.5843 25.2922C27.5642 25.3204 27.5387 25.3443 27.5093 25.3625C27.4804 25.3769 27.4488 25.3852 27.4165 25.3868C27.3843 25.3884 27.352 25.3834 27.3218 25.3719C27.29 25.364 27.2602 25.3494 27.2344 25.3292C27.2085 25.309 27.1872 25.2837 27.1718 25.2547C27.1442 25.1923 27.1426 25.1215 27.1671 25.0578Z" fill="#309E3A"/>
<path d="M27.2655 25.086C27.2514 25.1375 27.2514 25.1797 27.2655 25.2172C27.2842 25.2547 27.3124 25.2782 27.3499 25.2922C27.3874 25.3016 27.4202 25.2969 27.453 25.2782C27.4858 25.2594 27.5139 25.2219 27.5327 25.1657C27.5467 25.1094 27.5467 25.0672 27.5327 25.0297C27.5248 25.0124 27.5131 24.9971 27.4985 24.9849C27.4839 24.9728 27.4667 24.964 27.4483 24.9594C27.4304 24.9536 27.4115 24.9518 27.3928 24.9543C27.3742 24.9567 27.3563 24.9633 27.3405 24.9735C27.3077 24.9922 27.2842 25.0297 27.2655 25.086Z" fill="white"/>
<path d="M28.1422 25.7563L28.3718 25.311L28.5593 25.4047C28.6062 25.4328 28.639 25.4516 28.6531 25.4703C28.6718 25.4938 28.6812 25.5172 28.6859 25.5407C28.6906 25.5641 28.6859 25.5969 28.6672 25.6203C28.6531 25.6532 28.6297 25.6766 28.5968 25.6907C28.564 25.7 28.5312 25.7 28.489 25.686C28.5031 25.7047 28.5125 25.7282 28.5172 25.7469L28.5312 25.8453L28.5406 25.9625L28.4328 25.9063L28.4187 25.775L28.4046 25.6813C28.4006 25.6706 28.3942 25.661 28.3859 25.6532C28.3734 25.6417 28.3591 25.6322 28.3437 25.625L28.325 25.6157L28.2312 25.8032L28.1422 25.7563Z" fill="#309E3A"/>
<path d="M28.3625 25.5453L28.4281 25.5781L28.5125 25.6156C28.5266 25.6156 28.5359 25.6156 28.5453 25.6063C28.5579 25.5997 28.5683 25.5895 28.575 25.5769C28.5817 25.5644 28.5844 25.5501 28.5828 25.536C28.5777 25.522 28.5677 25.5103 28.5547 25.5031C28.5348 25.4899 28.5145 25.4774 28.4937 25.4656L28.4234 25.4328L28.3625 25.5453Z" fill="white"/>
<path d="M29.9937 26.6703C30.0218 26.6235 30.0499 26.5953 30.0874 26.5766C30.1103 26.5613 30.1357 26.5502 30.1624 26.5438C30.1872 26.539 30.2126 26.539 30.2374 26.5438C30.2702 26.5485 30.3077 26.5625 30.3405 26.5906C30.3682 26.6076 30.3921 26.63 30.4107 26.6567C30.4292 26.6833 30.4421 26.7135 30.4483 26.7453C30.4552 26.8135 30.4368 26.8819 30.3968 26.9375C30.379 26.9678 30.3553 26.9941 30.3271 27.0151C30.2989 27.036 30.2668 27.0511 30.2327 27.0594C30.201 27.0653 30.1684 27.0646 30.1369 27.0574C30.1055 27.0501 30.0758 27.0364 30.0499 27.0172C30.0222 27.0003 29.9983 26.9778 29.9798 26.9512C29.9612 26.9246 29.9484 26.8944 29.9421 26.8625C29.9369 26.829 29.9383 26.7947 29.9464 26.7617C29.9544 26.7288 29.9689 26.6977 29.989 26.6703H29.9937Z" fill="#309E3A"/>
<path d="M30.078 26.7219C30.0499 26.7688 30.0358 26.8157 30.0405 26.8532C30.0437 26.8721 30.0508 26.8902 30.0612 26.9064C30.0717 26.9225 30.0854 26.9363 30.1014 26.9469C30.1163 26.9572 30.1332 26.9642 30.151 26.9675C30.1688 26.9707 30.187 26.9701 30.2046 26.9657C30.2421 26.9563 30.2796 26.9282 30.3124 26.8766C30.3452 26.8297 30.3592 26.7875 30.3499 26.75C30.3499 26.7125 30.3264 26.6844 30.2936 26.6563C30.2608 26.6282 30.2233 26.6282 30.1858 26.6375C30.1483 26.6469 30.1155 26.675 30.0827 26.7219H30.078Z" fill="white"/>
<path d="M25.5499 24.7344L25.6296 24.3781L25.8921 24.4391L25.8781 24.5L25.6906 24.4531L25.6718 24.5328L25.8452 24.575L25.8312 24.636L25.6577 24.5891L25.6343 24.6875L25.8312 24.7344L25.8171 24.7953L25.5499 24.7344Z" fill="#309E3A"/>
</g>
</g>
</g>
<defs>
<filter id="filter0_d_552_5882" x="0" y="0" width="52" height="52" filterUnits="userSpaceOnUse" color-interpolation-filters="sRGB">
<feFlood flood-opacity="0" result="BackgroundImageFix"/>
<feColorMatrix in="SourceAlpha" type="matrix" values="0 0 0 0 0 0 0 0 0 0 0 0 0 0 0 0 0 0 127 0" result="hardAlpha"/>
<feMorphology radius="2" operator="dilate" in="SourceAlpha" result="effect1_dropShadow_552_5882"/>
<feOffset/>
<feGaussianBlur stdDeviation="6"/>
<feComposite in2="hardAlpha" operator="out"/>
<feColorMatrix type="matrix" values="0 0 0 0 0 0 0 0 0 0 0 0 0 0 0 0 0 0 0.08 0"/>
<feBlend mode="normal" in2="BackgroundImageFix" result="effect1_dropShadow_552_5882"/>
<feBlend mode="normal" in="SourceGraphic" in2="effect1_dropShadow_552_5882" result="shape"/>
</filter>
<clipPath id="clip0_552_5882">
<rect x="14" y="14" width="24" height="24" rx="6" fill="white"/>
</clipPath>
<clipPath id="clip1_552_5882">
<rect width="24" height="24" fill="white" transform="translate(14 14)"/>
</clipPath>
</defs>
</svg>
