<svg width="52" height="52" viewBox="0 0 52 52" fill="none" xmlns="http://www.w3.org/2000/svg">
<g filter="url(#filter0_d_552_9842)">
<g clip-path="url(#clip0_552_9842)">
<g clip-path="url(#clip1_552_9842)">
<path d="M14 14H38V38H14V14Z" fill="#032EA1"/>
<path d="M14 19.9999H38V31.9999H14V19.9999Z" fill="#E00025"/>
<path d="M22.6211 25.3147H29.4491V27.9427H22.6211V25.3147Z" fill="white" stroke="black" stroke-width="0.06" stroke-linejoin="bevel"/>
<path d="M29.1011 26.7607H29.3111V27.7507H29.1011V26.7607ZM22.6211 26.2747H29.4491V26.5747H22.6211V26.2747ZM22.6211 25.8547H29.4491V26.1307H22.6211V25.8547Z" fill="white" stroke="black" stroke-width="0.06" stroke-linejoin="bevel"/>
<path d="M22.6211 25.4467H29.4491V25.7047H22.6211V25.4467Z" fill="white" stroke="black" stroke-width="0.054" stroke-linejoin="bevel"/>
<path d="M24.4212 26.7607H24.6372V27.7507H24.4212V26.7607ZM27.3612 26.7607H27.5772V27.7507H27.3612V26.7607ZM22.6812 26.7607H22.8912V27.7507H22.6812V26.7607ZM23.1012 26.7607H23.3112V27.7507H23.1012V26.7607ZM23.5512 26.7607H23.7612V27.7507H23.5512V26.7607ZM24.0012 26.7607H24.2112V27.7507H24.0012V26.7607ZM27.7692 26.7607H27.9852V27.7507H27.7692V26.7607ZM28.2192 26.7607H28.4352V27.7507H28.2192V26.7607ZM28.6692 26.7607H28.8852V27.7507H28.6692V26.7607Z" fill="white" stroke="black" stroke-width="0.06" stroke-linejoin="bevel"/>
<path d="M19.9511 28.0747C20.0766 28.0064 20.1711 27.8926 20.2151 27.7567H31.8011C31.8452 27.8926 31.9397 28.0064 32.0651 28.0747H19.9511Z" fill="white" stroke="black" stroke-width="0.06"/>
<path d="M25.8612 21.3125C25.8612 21.3125 25.8552 21.0665 25.9992 21.0605C26.1372 21.0605 26.1312 21.3125 26.1312 21.3125H25.8612ZM25.1112 24.5825V24.2525C25.1112 24.0845 24.9432 24.0725 24.9432 23.9525C24.9432 23.9525 24.9192 23.7725 24.9672 23.6885C25.0332 23.9286 25.1472 23.8865 25.1472 23.7845C25.1472 23.7005 25.0872 23.6165 24.9492 23.4065C24.9012 23.3405 24.9312 23.1305 24.9912 23.0525C25.0152 23.2325 25.0452 23.3225 25.1232 23.3225C25.1712 23.3225 25.2072 23.2925 25.2072 23.2025C25.2072 23.0825 25.1292 23.0225 25.0872 22.9145C25.0665 22.8608 25.0617 22.8022 25.0734 22.7458C25.0851 22.6895 25.1128 22.6376 25.1532 22.5965C25.1832 22.7765 25.1772 22.8485 25.2552 22.8485C25.4172 22.7945 25.2552 22.5605 25.2192 22.5005C25.1832 22.4345 25.2792 22.2965 25.2792 22.2965C25.3272 22.4585 25.3392 22.4705 25.3992 22.4525C25.4712 22.4345 25.4592 22.3325 25.3752 22.2485C25.3212 22.1885 25.3272 22.1105 25.3872 22.0505C25.4472 22.1645 25.5192 22.1585 25.5252 22.0865L25.4772 21.8225H26.5212L26.4672 22.0805C26.4552 22.1525 26.5512 22.1705 26.6112 22.0505C26.6712 22.1105 26.6772 22.1945 26.6232 22.2485C26.5392 22.3325 26.5272 22.4345 26.5992 22.4525C26.6592 22.4705 26.6712 22.4525 26.7192 22.2965C26.7192 22.2965 26.8092 22.3865 26.7792 22.5005C26.7432 22.5605 26.5812 22.8005 26.7432 22.8485C26.8212 22.8485 26.8152 22.7765 26.8452 22.5965C26.8845 22.6383 26.9111 22.6904 26.9217 22.7468C26.9324 22.8031 26.9266 22.8614 26.9052 22.9145C26.8692 23.0225 26.7852 23.0825 26.7852 23.2025C26.7852 23.2925 26.8272 23.3225 26.8752 23.3225C26.9532 23.3225 26.9832 23.2385 27.0072 23.0525C27.0672 23.1305 27.0972 23.3405 27.0492 23.4125C26.9112 23.6165 26.8452 23.7005 26.8452 23.7845C26.8452 23.8865 26.9652 23.9286 27.0252 23.6885C27.0792 23.7725 27.0552 23.9525 27.0552 23.9525C27.0552 24.0725 26.8932 24.0845 26.8872 24.2525V24.5825H25.1112ZM25.5432 21.8225L25.5192 21.6365H26.4732L26.4492 21.8225H25.5432ZM25.6032 21.6305L25.5912 21.4805H26.4012L26.3832 21.6305H25.6032ZM25.7412 21.4745L25.7232 21.3185H26.2632L26.2572 21.4745H25.7412ZM27.7212 28.0745C27.6012 28.0325 27.4212 27.9005 27.4212 27.7745V26.3165L27.5772 26.1125H24.4212L24.5712 26.3165V27.7745C24.5712 27.9005 24.4512 28.0325 24.3312 28.0745H27.7212Z" fill="white" stroke="black" stroke-width="0.06"/>
<path d="M24.9732 26.7606H25.1892V27.7506H24.9732V26.7606ZM26.7972 26.7606H27.0132V27.7506H26.7972V26.7606Z" fill="white" stroke="black" stroke-width="0.06" stroke-linejoin="bevel"/>
<path d="M24.3612 24.4565V26.1125H27.6012V24.4565C27.5637 24.4702 27.5301 24.4926 27.503 24.5218C27.4758 24.551 27.456 24.5862 27.4452 24.6245V25.3325H24.5232V24.6245C24.5232 24.6245 24.4872 24.5045 24.3552 24.4565H24.3612Z" fill="white" stroke="black" stroke-width="0.06"/>
<path d="M27.1572 28.0746C27.0492 28.0326 26.8212 27.9006 26.8212 27.7746V26.1426C26.8452 26.0526 26.9652 25.9986 27.0432 25.9386H24.9012C25.0032 25.9986 25.1172 26.0406 25.1592 26.1426V27.7746C25.1592 27.9006 24.9792 28.0326 24.8712 28.0746H27.1572Z" fill="white" stroke="black" stroke-width="0.06"/>
<path d="M27.4452 25.9566V24.7806H27.1512V24.6666H24.8232V24.7866H24.5232V25.9566H27.4452ZM26.7012 28.0746C26.5932 28.0326 26.4432 27.9006 26.4432 27.7746V26.3826L26.5272 26.2566H25.4652L25.5552 26.3766V27.7746C25.5552 27.9006 25.3992 28.0326 25.2972 28.0746H26.7012Z" fill="white" stroke="black" stroke-width="0.06"/>
<path d="M25.7232 26.2566H26.2632V28.0746H25.7232V26.2566Z" fill="white" stroke="black" stroke-width="0.06"/>
<path d="M26.5452 25.8546C26.5452 25.7346 26.8932 25.7286 27.0732 25.6266H24.9132C25.0932 25.7286 25.4352 25.7346 25.4352 25.8546L25.5072 26.0886L26.4072 26.1246L26.5452 25.8546Z" fill="white" stroke="black" stroke-width="0.06" stroke-linejoin="bevel"/>
<path d="M26.9652 24.5826C26.9652 24.2886 26.9772 24.1806 27.0672 24.1806V25.1046C26.8452 25.1886 26.6892 25.4646 26.6892 25.4646H25.2972C25.2972 25.4646 25.1412 25.1886 24.9192 25.1046V24.1746C25.0272 24.1746 25.0272 24.2946 25.0272 24.5766L26.9652 24.5826ZM27.0672 24.4626C27.0672 24.1266 27.3612 24.0906 27.3612 24.0906V24.3906C27.2472 24.3846 27.1932 24.4866 27.1932 24.6306C27.1932 24.7806 27.2832 24.7806 27.2832 24.7806V25.6326H27.0672V24.4626Z" fill="white" stroke="black" stroke-width="0.06"/>
<path d="M24.9192 24.4626C24.9192 24.1266 24.6252 24.0906 24.6252 24.0906V24.3906C24.7392 24.3846 24.7932 24.4866 24.7932 24.6306C24.7932 24.7806 24.7032 24.7806 24.7032 24.7806V25.6326H24.9192V24.4626Z" fill="white" stroke="black" stroke-width="0.06"/>
<path d="M25.4891 22.1406H26.5211M25.3691 22.4646H26.6291M25.2491 22.8546H26.7431M25.1231 23.3286H26.8931M25.0811 23.8686H26.9051" stroke="black" stroke-width="0.048"/>
<path d="M24.5291 25.6445H27.4451M25.4531 25.6445H26.5331V26.0405H25.4531V25.6445Z" stroke="black" stroke-width="0.06"/>
<path d="M25.3212 24.7566C25.5012 24.9726 25.4772 25.3386 25.4772 25.5546H26.5212C26.5212 25.3386 26.4972 24.9726 26.6772 24.7566H25.3212ZM25.9032 22.2966L25.7592 22.2186V22.0086C25.8192 22.0266 25.8792 22.0326 25.8912 22.1286C25.9092 21.9906 25.9512 22.0026 26.0052 21.9486C26.0652 22.0026 26.0952 21.9906 26.1192 22.1286C26.1192 22.0326 26.1912 22.0266 26.2452 22.0086V22.2186L26.1072 22.2906L25.9032 22.2966Z" fill="white" stroke="black" stroke-width="0.06"/>
<path d="M25.8912 22.6385L25.6512 22.4705V22.2845C25.7412 22.3025 25.8312 22.3145 25.8432 22.4165C25.8672 22.2665 25.9212 22.1945 26.0052 22.1345C26.0832 22.1945 26.1372 22.2665 26.1672 22.4165C26.1732 22.3145 26.2692 22.3025 26.3472 22.2845V22.4765L26.1132 22.6385H25.8912Z" fill="white" stroke="black" stroke-width="0.06"/>
<path d="M25.8732 23.1726L25.6032 22.9326V22.6506C25.6992 22.6746 25.8072 22.6866 25.8192 22.8366C25.8492 22.6266 25.9092 22.5126 25.9992 22.4286C26.0952 22.5126 26.1552 22.6266 26.1912 22.8366C26.2032 22.6866 26.3112 22.6746 26.4072 22.6506V22.9326L26.1312 23.1726H25.8732ZM26.3772 23.4906L26.1372 23.8326H25.8552L25.6092 23.4906H26.3772ZM25.4652 24.0606C25.5852 24.1266 25.6332 24.2646 25.6452 24.5166H26.3412C26.3532 24.2646 26.4012 24.1266 26.5212 24.0606H25.4652Z" fill="white" stroke="black" stroke-width="0.06"/>
<path d="M26.5332 23.4845V23.1485C26.4815 23.1596 26.4335 23.1835 26.3936 23.2181C26.3538 23.2528 26.3233 23.2969 26.3052 23.3465C26.3052 23.2265 26.1552 22.9685 25.9932 22.8365C25.8312 22.9805 25.6752 23.2205 25.6812 23.3405C25.6512 23.2505 25.5732 23.1785 25.4532 23.1485V23.4905L26.5332 23.4845Z" fill="white" stroke="black" stroke-width="0.06" stroke-linejoin="bevel"/>
<path d="M26.5812 24.0606V23.7246C26.4552 23.7606 26.3712 23.8266 26.3352 23.9226C26.3352 23.8026 26.1732 23.5446 25.9932 23.4126C25.8132 23.5626 25.6452 23.7966 25.6512 23.9226C25.6212 23.8326 25.5312 23.7606 25.4052 23.7246V24.0666L26.5812 24.0606Z" fill="white" stroke="black" stroke-width="0.06" stroke-linejoin="bevel"/>
<path d="M26.7252 24.7625V24.3665C26.6002 24.4055 26.4923 24.486 26.4192 24.5945C26.4192 24.3845 26.1792 24.0545 25.9932 23.9525C25.8012 24.0605 25.5672 24.3965 25.5672 24.5945C25.4922 24.4852 25.3821 24.4048 25.2552 24.3665V24.7625H26.7252Z" fill="white" stroke="black" stroke-width="0.06" stroke-linejoin="bevel"/>
<path d="M26.6412 25.6446V25.2366C26.4972 25.2906 26.4612 25.4226 26.4132 25.5186C26.4312 25.1046 26.1852 24.6666 25.9932 24.5526C25.8012 24.6666 25.5492 25.1166 25.5732 25.5126C25.5252 25.4286 25.4832 25.2906 25.3452 25.2366V25.6386L26.6412 25.6446Z" fill="white" stroke="black" stroke-width="0.06" stroke-linejoin="bevel"/>
<path d="M26.5452 26.2566V25.8486C26.3952 25.8846 26.3892 25.9386 26.3412 26.0286C26.3592 25.7826 26.1852 25.5006 25.9932 25.3926C25.8012 25.5006 25.6332 25.7826 25.6452 26.0286C25.5972 25.9386 25.5912 25.8846 25.4412 25.8486V26.2566H26.5452Z" fill="white" stroke="black" stroke-width="0.06"/>
<path d="M20.2213 27.7565V26.5325C20.1793 26.3765 20.0413 26.2325 19.9453 26.2085V25.1285L20.1673 25.2485L20.4253 26.3825V27.7625L20.2213 27.7565Z" fill="white" stroke="black" stroke-width="0.06"/>
<path d="M20.2213 27.7625V26.5325C20.1793 26.3765 20.0413 26.2325 19.9453 26.2085V25.0565C20.0953 25.0565 20.1673 25.2485 20.1673 25.2485L20.4253 26.3825V27.7565L20.2213 27.7625Z" fill="white" stroke="black" stroke-width="0.06"/>
<path d="M20.0593 28.0745C20.1613 28.0325 20.3113 27.9005 20.3113 27.7745V26.2385L20.2393 26.1185H22.8613L22.7593 26.2385V27.7745C22.7637 27.8381 22.7849 27.8994 22.8207 27.9521C22.8566 28.0048 22.9057 28.0471 22.9633 28.0745H20.0593Z" fill="white" stroke="black" stroke-width="0.06"/>
<path d="M22.4292 28.0745C22.3272 28.0325 22.1772 27.9005 22.1772 27.7745V26.3166L22.3932 26.1125H20.6172L20.8332 26.3166V27.7745C20.8332 27.9005 20.6832 28.0325 20.5812 28.0745H22.4292Z" fill="white" stroke="black" stroke-width="0.06"/>
<path d="M22.1833 28.0746C22.0813 28.0326 21.9253 27.9006 21.9253 27.7746V26.4546L22.0693 26.2566H20.9413L21.0853 26.4546V27.7746C21.0853 27.9006 20.9353 28.0326 20.8273 28.0746H22.1833Z" fill="white" stroke="black" stroke-width="0.06"/>
<path d="M21.2412 26.2566H21.7752V28.0806H21.2352L21.2412 26.2566Z" fill="white" stroke="black" stroke-width="0.06"/>
<path d="M20.5033 26.7605H20.7193V27.7505H20.5033V26.7605ZM22.3513 26.7605H22.5613V27.7505H22.3453L22.3513 26.7605ZM20.3173 25.0925H20.5813V26.1125H20.3173V25.0925ZM20.3173 24.9005H20.5753V25.0925H20.3173V24.9005ZM22.4533 25.3145H22.8193V26.0945H22.4533V25.3145Z" fill="white"/>
<path d="M20.3173 25.0925H20.5813V26.1125H20.3173V25.0925ZM20.3173 25.0925H20.5753V24.9005H20.3173V25.0925ZM20.5033 26.7605H20.7193V27.7505H20.5033V26.7605ZM22.3513 26.7605H22.5613V27.7505H22.3453L22.3513 26.7605ZM22.4533 25.3145H22.8193V26.0945H22.4533V25.3145Z" stroke="black" stroke-width="0.06" stroke-linejoin="bevel"/>
<path d="M20.5753 26.1005V24.3605C20.6473 24.3605 20.6593 24.6185 20.8273 24.6185C20.9173 24.6185 20.9113 24.5105 20.8573 24.4265C20.8153 24.3485 20.7613 24.2465 20.8333 24.0485C20.8873 24.1985 21.0193 24.2465 20.9953 24.1565C20.9533 23.9945 20.8273 23.9645 20.9233 23.7185C20.9533 23.9225 21.0853 23.9165 21.0553 23.7965C21.0193 23.6585 20.9413 23.5985 21.0373 23.4065C21.0913 23.6285 21.1573 23.6165 21.1573 23.4785C21.1573 23.2745 21.1573 23.0585 21.4093 22.9805C21.4093 22.9805 21.4273 22.8005 21.5233 22.8005C21.6133 22.8005 21.6313 22.9805 21.6313 22.9805C21.8893 23.0585 21.8833 23.2805 21.8833 23.4785C21.8833 23.6165 21.9493 23.6285 22.0033 23.4065C22.0993 23.5985 22.0213 23.6585 21.9853 23.7965C21.9553 23.9165 22.0873 23.9225 22.1173 23.7185C22.2133 23.9645 22.0873 23.9945 22.0453 24.1565C22.0213 24.2465 22.1533 24.1985 22.2073 24.0485C22.2793 24.2465 22.2253 24.3485 22.1833 24.4265C22.1353 24.5105 22.1233 24.6185 22.2133 24.6185C22.3813 24.6185 22.3933 24.3665 22.4653 24.3665V26.1005H20.5753ZM20.1613 24.7865V26.1125H20.3113V24.7865C20.2573 24.7565 20.2093 24.7565 20.1613 24.7865Z" fill="white" stroke="black" stroke-width="0.06"/>
<path d="M20.1732 25.6446C20.3592 25.7406 20.5452 25.8546 20.5932 26.1126H20.1732V25.6446ZM22.7652 25.2486V26.1126H22.8852V25.2486C22.8492 25.2306 22.7952 25.2246 22.7652 25.2486Z" fill="white" stroke="black" stroke-width="0.06"/>
<path d="M22.8852 25.6446C22.6992 25.7346 22.5132 25.8426 22.4652 26.1066H22.8852V25.6446ZM21.6492 23.6226L21.7572 23.5326V23.4126C21.7212 23.4126 21.6972 23.4306 21.6672 23.4726C21.6556 23.4341 21.6363 23.3983 21.6105 23.3674C21.5848 23.3364 21.553 23.311 21.5172 23.2926C21.4809 23.3097 21.4484 23.3339 21.4216 23.3638C21.3948 23.3937 21.3743 23.4286 21.3612 23.4666C21.3312 23.4246 21.3132 23.4186 21.2712 23.4066V23.5266L21.3792 23.6226H21.6492Z" fill="white" stroke="black" stroke-width="0.06"/>
<path d="M21.7092 23.9166L21.7572 23.8026V23.6526C21.7212 23.6526 21.6972 23.6706 21.6672 23.7126C21.6556 23.6741 21.6363 23.6383 21.6105 23.6073C21.5848 23.5764 21.553 23.551 21.5172 23.5326C21.4809 23.5497 21.4484 23.5739 21.4216 23.6038C21.3948 23.6337 21.3743 23.6686 21.3612 23.7066C21.3312 23.6646 21.3132 23.6586 21.2712 23.6526V23.8026L21.3192 23.9166H21.7092Z" fill="white" stroke="black" stroke-width="0.06"/>
<path d="M21.7212 24.3125L21.8772 24.1145V23.9225C21.8172 23.9225 21.7872 23.9525 21.7452 24.0185C21.7032 23.8805 21.6252 23.8565 21.5172 23.7905C21.4032 23.8505 21.3252 23.8805 21.2892 24.0125C21.2412 23.9465 21.2112 23.9285 21.1512 23.9225V24.1145L21.3132 24.3125H21.7212Z" fill="white" stroke="black" stroke-width="0.06"/>
<path d="M21.7633 24.7026C21.7633 24.7026 21.9553 24.5406 21.9613 24.4506V24.2406C21.8893 24.2466 21.8233 24.2646 21.7693 24.3546C21.7213 24.1806 21.6493 24.1326 21.5173 24.0546C21.3793 24.1326 21.3073 24.1806 21.2653 24.3546C21.2053 24.2646 21.1453 24.2466 21.0673 24.2346V24.4506C21.1177 24.5457 21.1847 24.6311 21.2653 24.7026H21.7633Z" fill="white" stroke="black" stroke-width="0.06"/>
<path d="M21.8412 25.4226C21.8412 25.4226 22.1052 25.1406 22.1112 25.0266V24.7026C22.0152 24.7146 21.9192 24.7806 21.8472 24.9186C21.7872 24.6486 21.6912 24.4626 21.5172 24.3306C21.3372 24.4626 21.2412 24.6486 21.1812 24.9186C21.1092 24.7806 21.0192 24.7146 20.9232 24.7026V25.0266C20.9412 25.1406 21.1872 25.4226 21.1872 25.4226H21.8412Z" fill="white" stroke="black" stroke-width="0.06"/>
<path d="M21.8412 25.8486C21.8412 25.8486 22.0632 25.6266 22.1112 25.5306V25.2066C22.0152 25.2186 21.9192 25.2846 21.8472 25.4166C21.8312 25.3074 21.7938 25.2025 21.7371 25.1078C21.6805 25.0131 21.6058 24.9304 21.5172 24.8646C21.3372 24.9966 21.2412 25.1466 21.1812 25.4166C21.1092 25.2846 21.0192 25.2186 20.9232 25.2066V25.5306C20.9832 25.6266 21.1872 25.8486 21.1872 25.8486H21.8412Z" fill="white" stroke="black" stroke-width="0.06"/>
<path d="M21.9312 26.1006C21.8712 25.8186 21.8112 25.6086 21.5052 25.3986C21.1932 25.6086 21.1392 25.8186 21.0732 26.1006H21.9312Z" fill="white" stroke="black" stroke-width="0.06"/>
<path d="M22.0932 26.2566V25.8486C21.9492 25.9086 21.8232 25.9866 21.7752 26.0766C21.7272 25.8486 21.6252 25.7526 21.4992 25.6146C21.3732 25.7526 21.2892 25.8546 21.2352 26.0766C21.1872 25.9866 21.0612 25.9026 20.9232 25.8486V26.2566H22.0932Z" fill="white" stroke="black" stroke-width="0.06"/>
<path d="M31.7833 27.7565V26.5325C31.8253 26.3765 31.9633 26.2325 32.0593 26.2085V25.1285L31.8373 25.2485L31.5793 26.3825V27.7625L31.7833 27.7565Z" fill="white" stroke="black" stroke-width="0.06"/>
<path d="M31.7833 27.7625V26.5325C31.8253 26.3765 31.9633 26.2325 32.0593 26.2085V25.0565C31.9093 25.0565 31.8373 25.2485 31.8373 25.2485L31.5793 26.3825V27.7565L31.7833 27.7625Z" fill="white" stroke="black" stroke-width="0.06"/>
<path d="M31.9453 28.0745C31.8433 28.0325 31.6933 27.9005 31.6933 27.7745V26.2385L31.7653 26.1185H29.1433L29.2453 26.2385V27.7745C29.2409 27.8381 29.2196 27.8994 29.1838 27.9521C29.148 28.0048 29.0988 28.0471 29.0413 28.0745H31.9453Z" fill="white" stroke="black" stroke-width="0.06"/>
<path d="M29.5753 28.0745C29.6773 28.0325 29.8273 27.9005 29.8273 27.7745V26.3166L29.6113 26.1125H31.3873L31.1713 26.3166V27.7745C31.1713 27.9005 31.3213 28.0325 31.4233 28.0745H29.5753Z" fill="white" stroke="black" stroke-width="0.06"/>
<path d="M29.8212 28.0746C29.9232 28.0326 30.0792 27.9006 30.0792 27.7746V26.4546L29.9352 26.2566H31.0632L30.9192 26.4546V27.7746C30.9192 27.9006 31.0692 28.0326 31.1772 28.0746H29.8212Z" fill="white" stroke="black" stroke-width="0.06"/>
<path d="M30.7632 26.2566H30.2292V28.0806H30.7692L30.7632 26.2566Z" fill="white" stroke="black" stroke-width="0.06"/>
<path d="M31.5013 26.7605H31.2853V27.7505H31.5013V26.7605ZM29.6533 26.7605H29.4433V27.7505H29.6593L29.6533 26.7605ZM31.6873 25.0925H31.4233V26.1125H31.6873V25.0925ZM31.6873 24.9005H31.4293V25.0925H31.6873V24.9005ZM29.5513 25.3145H29.1853V26.0945H29.5513V25.3145Z" fill="white"/>
<path d="M31.6873 25.0925H31.4233V26.1125H31.6873V25.0925ZM31.6873 25.0925H31.4293V24.9005H31.6873V25.0925ZM31.5013 26.7605H31.2853V27.7505H31.5013V26.7605ZM29.6533 26.7605H29.4433V27.7505H29.6593L29.6533 26.7605ZM29.5513 25.3145H29.1853V26.0945H29.5513V25.3145Z" stroke="black" stroke-width="0.06" stroke-linejoin="bevel"/>
<path d="M31.4293 26.1005V24.3605C31.3573 24.3605 31.3453 24.6185 31.1773 24.6185C31.0873 24.6185 31.0933 24.5105 31.1473 24.4265C31.1893 24.3485 31.2433 24.2465 31.1713 24.0485C31.1173 24.1985 30.9853 24.2465 31.0093 24.1565C31.0513 23.9945 31.1773 23.9645 31.0813 23.7185C31.0513 23.9225 30.9193 23.9165 30.9493 23.7965C30.9853 23.6585 31.0633 23.5985 30.9673 23.4065C30.9133 23.6285 30.8473 23.6165 30.8473 23.4785C30.8473 23.2745 30.8473 23.0585 30.5953 22.9805C30.5953 22.9805 30.5773 22.8005 30.4813 22.8005C30.3913 22.8005 30.3733 22.9805 30.3733 22.9805C30.1153 23.0585 30.1213 23.2805 30.1213 23.4785C30.1213 23.6165 30.0553 23.6285 30.0013 23.4065C29.9053 23.5985 29.9833 23.6585 30.0193 23.7965C30.0493 23.9165 29.9173 23.9225 29.8873 23.7185C29.7913 23.9645 29.9173 23.9945 29.9593 24.1565C29.9833 24.2465 29.8513 24.1985 29.7973 24.0485C29.7253 24.2465 29.7793 24.3485 29.8213 24.4265C29.8693 24.5105 29.8813 24.6185 29.7913 24.6185C29.6233 24.6185 29.6113 24.3665 29.5393 24.3665V26.1005H31.4293ZM31.8433 24.7865V26.1125H31.6933V24.7865C31.7473 24.7565 31.7953 24.7565 31.8433 24.7865Z" fill="white" stroke="black" stroke-width="0.06"/>
<path d="M31.8312 25.6446C31.6452 25.7406 31.4592 25.8546 31.4112 26.1126H31.8312V25.6446ZM29.2392 25.2486V26.1126H29.1192V25.2486C29.1552 25.2306 29.2092 25.2246 29.2392 25.2486Z" fill="white" stroke="black" stroke-width="0.06"/>
<path d="M29.1193 25.6446C29.3053 25.7346 29.4913 25.8426 29.5393 26.1066H29.1193V25.6446ZM30.3553 23.6226L30.2473 23.5326V23.4126C30.2833 23.4126 30.3073 23.4306 30.3373 23.4726C30.3489 23.4341 30.3682 23.3983 30.394 23.3674C30.4197 23.3364 30.4515 23.311 30.4873 23.2926C30.5236 23.3097 30.5561 23.3339 30.5829 23.3638C30.6097 23.3937 30.6302 23.4286 30.6433 23.4666C30.6733 23.4246 30.6913 23.4186 30.7333 23.4066V23.5266L30.6253 23.6226H30.3553Z" fill="white" stroke="black" stroke-width="0.06"/>
<path d="M30.2953 23.9166L30.2473 23.8026V23.6526C30.2833 23.6526 30.3073 23.6706 30.3373 23.7126C30.3489 23.6741 30.3682 23.6383 30.394 23.6073C30.4197 23.5764 30.4515 23.551 30.4873 23.5326C30.5236 23.5497 30.5561 23.5739 30.5829 23.6038C30.6097 23.6337 30.6302 23.6686 30.6433 23.7066C30.6733 23.6646 30.6913 23.6586 30.7333 23.6526V23.8026L30.6853 23.9166H30.2953Z" fill="white" stroke="black" stroke-width="0.06"/>
<path d="M30.2833 24.3125L30.1273 24.1145V23.9225C30.1873 23.9225 30.2173 23.9525 30.2593 24.0185C30.3013 23.8805 30.3793 23.8565 30.4873 23.7905C30.6013 23.8505 30.6793 23.8805 30.7153 24.0125C30.7633 23.9465 30.7933 23.9285 30.8533 23.9225V24.1145L30.6913 24.3125H30.2833Z" fill="white" stroke="black" stroke-width="0.06"/>
<path d="M30.2413 24.7026C30.2413 24.7026 30.0493 24.5406 30.0433 24.4506V24.2406C30.1153 24.2466 30.1813 24.2646 30.2353 24.3546C30.2833 24.1806 30.3553 24.1326 30.4873 24.0546C30.6253 24.1326 30.6973 24.1806 30.7393 24.3546C30.7993 24.2646 30.8593 24.2466 30.9373 24.2346V24.4506C30.8869 24.5457 30.8198 24.6311 30.7393 24.7026H30.2413Z" fill="white" stroke="black" stroke-width="0.06"/>
<path d="M30.1632 25.4226C30.1632 25.4226 29.8992 25.1406 29.8932 25.0266V24.7026C29.9892 24.7146 30.0852 24.7806 30.1572 24.9186C30.2172 24.6486 30.3132 24.4626 30.4872 24.3306C30.6672 24.4626 30.7632 24.6486 30.8232 24.9186C30.8952 24.7806 30.9852 24.7146 31.0812 24.7026V25.0266C31.0632 25.1406 30.8172 25.4226 30.8172 25.4226H30.1632Z" fill="white" stroke="black" stroke-width="0.06"/>
<path d="M30.1632 25.8486C30.1632 25.8486 29.9412 25.6266 29.8932 25.5306V25.2066C29.9892 25.2186 30.0852 25.2846 30.1572 25.4166C30.1733 25.3074 30.2107 25.2025 30.2673 25.1078C30.3239 25.0131 30.3987 24.9304 30.4872 24.8646C30.6672 24.9966 30.7632 25.1466 30.8232 25.4166C30.8952 25.2846 30.9852 25.2186 31.0812 25.2066V25.5306C31.0212 25.6266 30.8172 25.8486 30.8172 25.8486H30.1632Z" fill="white" stroke="black" stroke-width="0.06"/>
<path d="M30.0733 26.1006C30.1333 25.8186 30.1933 25.6086 30.4993 25.3986C30.8113 25.6086 30.8653 25.8186 30.9313 26.1006H30.0733Z" fill="white" stroke="black" stroke-width="0.06"/>
<path d="M29.9112 26.2566V25.8486C30.0552 25.9086 30.1812 25.9866 30.2292 26.0766C30.2772 25.8486 30.3792 25.7526 30.5052 25.6146C30.6312 25.7526 30.7152 25.8546 30.7692 26.0766C30.8172 25.9866 30.9432 25.9026 31.0812 25.8486V26.2566H29.9112Z" fill="white" stroke="black" stroke-width="0.06"/>
<path d="M18.6432 29.5626H33.3612V30.3126H18.6432V29.5626ZM18.2532 30.3126H33.7512V31.0626H18.2532V30.3126ZM19.4172 28.4346H32.5812V28.9206H19.4172V28.4346Z" fill="white" stroke="black" stroke-width="0.06"/>
<path d="M19.0332 28.9206H32.9772V29.5566H19.0332V28.9206ZM19.6452 28.0626H32.3652V28.4346H19.6452V28.0626Z" fill="white" stroke="black" stroke-width="0.06"/>
<path d="M21.0252 28.0626H21.9852V31.0626H21.0252V28.0626Z" fill="white" stroke="black" stroke-width="0.06"/>
<path d="M21.2412 28.0626H21.7752V31.0626H21.2352L21.2412 28.0626ZM25.5012 28.0626H26.4612V31.0626H25.5012V28.0626Z" fill="white" stroke="black" stroke-width="0.06"/>
<path d="M25.7232 28.0626H26.2632V31.0626H25.7232V28.0626ZM30.0132 28.0626H30.9732V31.0626H30.0132V28.0626Z" fill="white" stroke="black" stroke-width="0.06"/>
<path d="M30.2232 28.0626H30.7632V31.0626H30.2232V28.0626Z" fill="white" stroke="black" stroke-width="0.06"/>
<path d="M20.2212 27.7566H31.8012M21.2292 30.6846H21.7812M21.2292 30.3066H21.7812M21.2292 29.9346H21.7812M21.2292 29.5566H21.7812M21.2292 29.1846H21.7812M21.2292 28.8066H21.7812M21.2292 28.4346H21.7812M25.7292 30.6846H26.2452M25.7292 30.3066H26.2452M25.7292 29.9346H26.2452M25.7292 29.5566H26.2452M25.7292 29.1846H26.2452M25.7292 28.8066H26.2452M25.7292 28.4346H26.2452M30.2172 30.6846H30.7692M30.2172 30.3066H30.7692M30.2172 29.9346H30.7692M30.2172 29.5566H30.7692M30.2172 29.1846H30.7692M30.2172 28.8066H30.7692M30.2172 28.4346H30.7692" stroke="black" stroke-width="0.06"/>
</g>
</g>
</g>
<defs>
<filter id="filter0_d_552_9842" x="0" y="0" width="52" height="52" filterUnits="userSpaceOnUse" color-interpolation-filters="sRGB">
<feFlood flood-opacity="0" result="BackgroundImageFix"/>
<feColorMatrix in="SourceAlpha" type="matrix" values="0 0 0 0 0 0 0 0 0 0 0 0 0 0 0 0 0 0 127 0" result="hardAlpha"/>
<feMorphology radius="2" operator="dilate" in="SourceAlpha" result="effect1_dropShadow_552_9842"/>
<feOffset/>
<feGaussianBlur stdDeviation="6"/>
<feComposite in2="hardAlpha" operator="out"/>
<feColorMatrix type="matrix" values="0 0 0 0 0 0 0 0 0 0 0 0 0 0 0 0 0 0 0.08 0"/>
<feBlend mode="normal" in2="BackgroundImageFix" result="effect1_dropShadow_552_9842"/>
<feBlend mode="normal" in="SourceGraphic" in2="effect1_dropShadow_552_9842" result="shape"/>
</filter>
<clipPath id="clip0_552_9842">
<rect x="14" y="14" width="24" height="24" rx="6" fill="white"/>
</clipPath>
<clipPath id="clip1_552_9842">
<rect width="24" height="24" fill="white" transform="translate(14 14)"/>
</clipPath>
</defs>
</svg>
