<svg width="52" height="52" viewBox="0 0 52 52" fill="none" xmlns="http://www.w3.org/2000/svg">
<g filter="url(#filter0_d_552_5978)">
<g clip-path="url(#clip0_552_5978)">
<g clip-path="url(#clip1_552_5978)">
<mask id="mask0_552_5978" style="mask-type:luminance" maskUnits="userSpaceOnUse" x="14" y="14" width="24" height="24">
<path d="M14 14H37.9851V37.9851H14V14Z" fill="white"/>
</mask>
<g mask="url(#mask0_552_5978)">
<path fill-rule="evenodd" clip-rule="evenodd" d="M25.9908 14H49.9758V25.9908H25.9908V14Z" fill="white"/>
<path fill-rule="evenodd" clip-rule="evenodd" d="M14 14H25.9908V25.9908H14V14Z" fill="#0039A6"/>
<path fill-rule="evenodd" clip-rule="evenodd" d="M21.8618 22.9788L20.0004 21.5878L18.1559 22.9923L18.843 20.7078L16.9985 19.2966L19.2795 19.2762L19.9903 16.9986L20.7111 19.2729H22.9956L21.1545 20.7011L21.8584 22.9821L21.8618 22.9788Z" fill="white"/>
<path fill-rule="evenodd" clip-rule="evenodd" d="M13.9999 25.9908H49.9758V37.9851H13.9999V25.9908Z" fill="#D52B1E"/>
</g>
</g>
</g>
</g>
<defs>
<filter id="filter0_d_552_5978" x="0" y="0" width="52" height="52" filterUnits="userSpaceOnUse" color-interpolation-filters="sRGB">
<feFlood flood-opacity="0" result="BackgroundImageFix"/>
<feColorMatrix in="SourceAlpha" type="matrix" values="0 0 0 0 0 0 0 0 0 0 0 0 0 0 0 0 0 0 127 0" result="hardAlpha"/>
<feMorphology radius="2" operator="dilate" in="SourceAlpha" result="effect1_dropShadow_552_5978"/>
<feOffset/>
<feGaussianBlur stdDeviation="6"/>
<feComposite in2="hardAlpha" operator="out"/>
<feColorMatrix type="matrix" values="0 0 0 0 0 0 0 0 0 0 0 0 0 0 0 0 0 0 0.08 0"/>
<feBlend mode="normal" in2="BackgroundImageFix" result="effect1_dropShadow_552_5978"/>
<feBlend mode="normal" in="SourceGraphic" in2="effect1_dropShadow_552_5978" result="shape"/>
</filter>
<clipPath id="clip0_552_5978">
<rect x="14" y="14" width="24" height="24" rx="6" fill="white"/>
</clipPath>
<clipPath id="clip1_552_5978">
<rect width="24" height="24" fill="white" transform="translate(14 14)"/>
</clipPath>
</defs>
</svg>
