<svg width="52" height="52" viewBox="0 0 52 52" fill="none" xmlns="http://www.w3.org/2000/svg">
<g filter="url(#filter0_d_552_10911)">
<g clip-path="url(#clip0_552_10911)">
<g clip-path="url(#clip1_552_10911)">
<path d="M14 14H38V38H14V14Z" fill="white"/>
<path d="M23.6094 14H28.3906V38H23.6094V14Z" fill="#FF0000"/>
<path d="M14 23.6094H38V28.3906H14V23.6094Z" fill="#FF0000"/>
<path fill-rule="evenodd" clip-rule="evenodd" d="M19.3484 32.6516C19.4 31.8078 19.55 31.0859 19.55 31.0859C19.55 31.0859 19.0531 31.1328 18.8047 31.1328C18.5562 31.1328 18.0594 31.0859 18.0594 31.0859C18.0594 31.0859 18.2094 31.8031 18.2609 32.6516C17.4172 32.6 16.6953 32.45 16.6953 32.45C16.6953 32.45 16.7422 32.825 16.7422 33.1953C16.7422 33.5656 16.6953 33.9406 16.6953 33.9406C16.6953 33.9406 17.4125 33.7906 18.2609 33.7391C18.2094 34.5828 18.0594 35.3047 18.0594 35.3047C18.0594 35.3047 18.4344 35.2578 18.8047 35.2578C19.1797 35.2578 19.55 35.3047 19.55 35.3047C19.55 35.3047 19.4 34.5875 19.3484 33.7391C20.1922 33.7906 20.9141 33.9406 20.9141 33.9406C20.9141 33.9406 20.8672 33.4438 20.8672 33.1953C20.8672 32.9469 20.9141 32.45 20.9141 32.45C20.9141 32.45 20.1969 32.6 19.3484 32.6516ZM33.7391 18.2609C33.7906 17.4172 33.9406 16.6953 33.9406 16.6953C33.9406 16.6953 33.4438 16.7422 33.1953 16.7422C32.9469 16.7422 32.45 16.6953 32.45 16.6953C32.45 16.6953 32.6 17.4172 32.6516 18.2609C31.8078 18.2094 31.0859 18.0594 31.0859 18.0594C31.0859 18.0594 31.1328 18.4344 31.1328 18.8047C31.1328 19.1797 31.0859 19.55 31.0859 19.55C31.0859 19.55 31.8031 19.4 32.6516 19.3484C32.6 20.1922 32.45 20.9141 32.45 20.9141C32.45 20.9141 32.825 20.8672 33.1953 20.8672C33.5656 20.8672 33.9406 20.9141 33.9406 20.9141C33.9406 20.9141 33.7906 20.1969 33.7391 19.3484C34.5828 19.4 35.3047 19.55 35.3047 19.55C35.3047 19.55 35.2578 19.0531 35.2578 18.8047C35.2578 18.5609 35.3047 18.0594 35.3047 18.0594C35.3047 18.0594 34.5828 18.2094 33.7391 18.2609ZM19.3484 18.2609C19.4 17.4172 19.55 16.6953 19.55 16.6953C19.55 16.6953 19.0531 16.7422 18.8047 16.7422C18.5562 16.7422 18.0594 16.6953 18.0594 16.6953C18.0594 16.6953 18.2094 17.4172 18.2609 18.2609C17.4172 18.2094 16.6953 18.0594 16.6953 18.0594C16.6953 18.0594 16.7422 18.4344 16.7422 18.8047C16.7422 19.1797 16.6953 19.55 16.6953 19.55C16.6953 19.55 17.4125 19.4 18.2609 19.3484C18.2094 20.1922 18.0594 20.9141 18.0594 20.9141C18.0594 20.9141 18.4344 20.8672 18.8047 20.8672C19.1797 20.8672 19.55 20.9141 19.55 20.9141C19.55 20.9141 19.4 20.1969 19.3484 19.3484C20.1922 19.4 20.9141 19.55 20.9141 19.55C20.9141 19.55 20.8672 19.0531 20.8672 18.8047C20.8672 18.5609 20.9141 18.0594 20.9141 18.0594C20.9141 18.0594 20.1969 18.2094 19.3484 18.2609ZM33.7391 32.6516C33.7906 31.8078 33.9406 31.0859 33.9406 31.0859C33.9406 31.0859 33.4438 31.1328 33.1953 31.1328C32.9469 31.1328 32.45 31.0859 32.45 31.0859C32.45 31.0859 32.6 31.8031 32.6516 32.6516C31.8078 32.6 31.0859 32.45 31.0859 32.45C31.0859 32.45 31.1328 32.825 31.1328 33.1953C31.1328 33.5656 31.0859 33.9406 31.0859 33.9406C31.0859 33.9406 31.8031 33.7906 32.6516 33.7391C32.6 34.5828 32.45 35.3047 32.45 35.3047C32.45 35.3047 32.825 35.2578 33.1953 35.2578C33.5656 35.2578 33.9406 35.3047 33.9406 35.3047C33.9406 35.3047 33.7906 34.5875 33.7391 33.7391C34.5828 33.7906 35.3047 33.9406 35.3047 33.9406C35.3047 33.9406 35.2578 33.4438 35.2578 33.1953C35.2578 32.9469 35.3047 32.45 35.3047 32.45C35.3047 32.45 34.5828 32.6 33.7391 32.6516Z" fill="#FF0000"/>
</g>
</g>
</g>
<defs>
<filter id="filter0_d_552_10911" x="0" y="0" width="52" height="52" filterUnits="userSpaceOnUse" color-interpolation-filters="sRGB">
<feFlood flood-opacity="0" result="BackgroundImageFix"/>
<feColorMatrix in="SourceAlpha" type="matrix" values="0 0 0 0 0 0 0 0 0 0 0 0 0 0 0 0 0 0 127 0" result="hardAlpha"/>
<feMorphology radius="2" operator="dilate" in="SourceAlpha" result="effect1_dropShadow_552_10911"/>
<feOffset/>
<feGaussianBlur stdDeviation="6"/>
<feComposite in2="hardAlpha" operator="out"/>
<feColorMatrix type="matrix" values="0 0 0 0 0 0 0 0 0 0 0 0 0 0 0 0 0 0 0.08 0"/>
<feBlend mode="normal" in2="BackgroundImageFix" result="effect1_dropShadow_552_10911"/>
<feBlend mode="normal" in="SourceGraphic" in2="effect1_dropShadow_552_10911" result="shape"/>
</filter>
<clipPath id="clip0_552_10911">
<rect x="14" y="14" width="24" height="24" rx="6" fill="white"/>
</clipPath>
<clipPath id="clip1_552_10911">
<rect width="24" height="24" fill="white" transform="translate(14 14)"/>
</clipPath>
</defs>
</svg>
