<svg width="52" height="52" viewBox="0 0 52 52" fill="none" xmlns="http://www.w3.org/2000/svg">
<g filter="url(#filter0_d_552_6382)">
<g clip-path="url(#clip0_552_6382)">
<g clip-path="url(#clip1_552_6382)">
<path fill-rule="evenodd" clip-rule="evenodd" d="M14 14H38V16.6719H14V14Z" fill="#0D5EAF"/>
<path fill-rule="evenodd" clip-rule="evenodd" d="M14.0001 16.6719H38.0001V19.3438H14.0001V16.6719Z" fill="white"/>
<path fill-rule="evenodd" clip-rule="evenodd" d="M14.0001 19.3438H38.0001V22.0157H14.0001V19.3438Z" fill="#0D5EAF"/>
<path fill-rule="evenodd" clip-rule="evenodd" d="M14.0001 22.0157H38.0001V24.6876H14.0001V22.0157Z" fill="white"/>
<path fill-rule="evenodd" clip-rule="evenodd" d="M14.0001 24.6876H38.0001V27.3547H14.0001V24.6876Z" fill="#0D5EAF"/>
<path fill-rule="evenodd" clip-rule="evenodd" d="M14.0001 27.3547H38.0001V30.0266H14.0001V27.3547Z" fill="white"/>
<path fill-rule="evenodd" clip-rule="evenodd" d="M14.0001 30.0266H38.0001V32.6985H14.0001V30.0266Z" fill="#0D5EAF"/>
<path fill-rule="evenodd" clip-rule="evenodd" d="M14.0001 32.6985H38.0001V35.3704H14.0001V32.6985Z" fill="white"/>
<path d="M14 14H27.3547V27.3547H14V14Z" fill="#0D5EAF"/>
<path fill-rule="evenodd" clip-rule="evenodd" d="M19.3438 14.0001H22.0157V27.3547H19.3438V14.0001Z" fill="white"/>
<path fill-rule="evenodd" clip-rule="evenodd" d="M14.0001 19.3438H27.3547V22.0157H14.0001V19.3438Z" fill="white"/>
<path fill-rule="evenodd" clip-rule="evenodd" d="M14.0001 35.3282H38.0001V38.0001H14.0001V35.3282Z" fill="#0D5EAF"/>
</g>
</g>
</g>
<defs>
<filter id="filter0_d_552_6382" x="0" y="0" width="52" height="52" filterUnits="userSpaceOnUse" color-interpolation-filters="sRGB">
<feFlood flood-opacity="0" result="BackgroundImageFix"/>
<feColorMatrix in="SourceAlpha" type="matrix" values="0 0 0 0 0 0 0 0 0 0 0 0 0 0 0 0 0 0 127 0" result="hardAlpha"/>
<feMorphology radius="2" operator="dilate" in="SourceAlpha" result="effect1_dropShadow_552_6382"/>
<feOffset/>
<feGaussianBlur stdDeviation="6"/>
<feComposite in2="hardAlpha" operator="out"/>
<feColorMatrix type="matrix" values="0 0 0 0 0 0 0 0 0 0 0 0 0 0 0 0 0 0 0.08 0"/>
<feBlend mode="normal" in2="BackgroundImageFix" result="effect1_dropShadow_552_6382"/>
<feBlend mode="normal" in="SourceGraphic" in2="effect1_dropShadow_552_6382" result="shape"/>
</filter>
<clipPath id="clip0_552_6382">
<rect x="14" y="14" width="24" height="24" rx="6" fill="white"/>
</clipPath>
<clipPath id="clip1_552_6382">
<rect width="24" height="24" fill="white" transform="translate(14 14)"/>
</clipPath>
</defs>
</svg>
