<svg width="52" height="52" viewBox="0 0 52 52" fill="none" xmlns="http://www.w3.org/2000/svg">
<g filter="url(#filter0_d_552_6481)">
<g clip-path="url(#clip0_552_6481)">
<g clip-path="url(#clip1_552_6481)">
<path d="M14 14H38V38H14" fill="#EC1B2E"/>
<path d="M27.2328 19.5875C23.5156 19.3437 21.8094 24.2187 25.325 26.0187C24.1062 24.9687 24.3594 23.4219 24.8515 22.625L24.9406 22.6719C24.2937 23.7781 24.4156 25.1469 25.4562 26C24.8656 25.4281 25.0156 24.1719 26.0281 23.7125C27.0406 23.2531 27.1344 21.8703 26.7969 21.4109C26.3375 20.6109 26.4828 20.0016 27.2328 19.5828V19.5875ZM25.4328 22.4375L25.2125 22.7844L25.1281 22.3812L24.725 22.2734L25.0906 22.0719L25.0625 21.65L25.3672 21.9406L25.7562 21.7859L25.5828 22.1609L25.8453 22.4844L25.4328 22.4375Z" fill="white"/>
<path d="M32.3927 25.6386C31.4759 22.028 26.3122 21.9117 25.6867 25.8115C26.3087 24.328 27.8581 24.0907 28.768 24.3125L28.751 24.4117C27.499 24.1384 26.2349 24.6772 25.7451 25.9306C26.1064 25.1921 27.3476 24.9466 28.0973 25.7676C28.8471 26.5886 30.1912 26.2504 30.5238 25.7875C31.1427 25.1034 31.7672 25.0533 32.3972 25.6371L32.3927 25.6386ZM29.126 24.8074L28.728 24.7051L29.0853 24.5002L29.0633 24.0835L29.368 24.369L29.7605 24.2119L29.5782 24.5914L29.8456 24.9137L29.4353 24.8646L29.2089 25.2142L29.126 24.8074Z" fill="white"/>
<path d="M28.2323 32.4159C31.3828 30.4282 29.8977 25.4813 25.9955 26.0915C27.5987 26.2246 28.3031 27.6249 28.3733 28.5589L28.2737 28.5733C28.1468 27.2981 27.2437 26.2624 25.9004 26.1839C26.7143 26.2994 27.3314 27.4038 26.7823 28.3706C26.2331 29.3374 26.9701 30.5112 27.5132 30.6845C28.355 31.0617 28.5956 31.6401 28.235 32.4197L28.2323 32.4159ZM28.0133 29.0522L27.9877 28.6421L28.2929 28.9186L28.6824 28.7689L28.505 29.1469L28.7758 29.4716L28.3585 29.4156L28.1346 29.7694L28.0545 29.3641L27.652 29.2567L28.0133 29.0522Z" fill="white"/>
<path d="M20.5011 30.5533C23.365 32.9354 27.6109 29.9944 25.8247 26.4717C26.1935 28.0376 25.0795 29.1402 24.2129 29.4956L24.1684 29.4053C25.342 28.8906 26.0479 27.7116 25.7075 26.4098C25.8492 27.2196 24.9894 28.1477 23.9003 27.9242C22.8111 27.7007 21.9225 28.7644 21.9255 29.3344C21.8269 30.2516 21.3512 30.6592 20.4983 30.5571L20.5011 30.5533ZM23.6325 29.3057L24.0146 29.1545L23.8459 29.5302L24.1087 29.8544L23.6944 29.8026L23.4692 30.1604L23.3935 29.7462L22.9878 29.6427L23.3486 29.4412L23.3263 29.0253L23.6325 29.3057Z" fill="white"/>
<path d="M19.8834 22.625C18.5029 26.0849 22.612 29.2141 25.4103 26.4268C24.0351 27.2614 22.6421 26.5427 22.0364 25.8283L22.1085 25.7581C22.9607 26.7152 24.3001 27.0222 25.433 26.2962C24.7066 26.6812 23.5582 26.1503 23.4342 25.0454C23.3102 23.9405 22.024 23.424 21.4828 23.603C20.58 23.7927 20.0454 23.4662 19.8789 22.6235L19.8834 22.625ZM22.0376 25.2176L22.2995 25.5343L21.89 25.49L21.6629 25.84L21.5842 25.43L21.1743 25.3264L21.5448 25.1264L21.5179 24.7086L21.821 24.9894L22.2097 24.8397L22.0376 25.2176Z" fill="white"/>
</g>
</g>
</g>
<defs>
<filter id="filter0_d_552_6481" x="0" y="0" width="52" height="52" filterUnits="userSpaceOnUse" color-interpolation-filters="sRGB">
<feFlood flood-opacity="0" result="BackgroundImageFix"/>
<feColorMatrix in="SourceAlpha" type="matrix" values="0 0 0 0 0 0 0 0 0 0 0 0 0 0 0 0 0 0 127 0" result="hardAlpha"/>
<feMorphology radius="2" operator="dilate" in="SourceAlpha" result="effect1_dropShadow_552_6481"/>
<feOffset/>
<feGaussianBlur stdDeviation="6"/>
<feComposite in2="hardAlpha" operator="out"/>
<feColorMatrix type="matrix" values="0 0 0 0 0 0 0 0 0 0 0 0 0 0 0 0 0 0 0.08 0"/>
<feBlend mode="normal" in2="BackgroundImageFix" result="effect1_dropShadow_552_6481"/>
<feBlend mode="normal" in="SourceGraphic" in2="effect1_dropShadow_552_6481" result="shape"/>
</filter>
<clipPath id="clip0_552_6481">
<rect x="14" y="14" width="24" height="24" rx="6" fill="white"/>
</clipPath>
<clipPath id="clip1_552_6481">
<rect width="24" height="24" fill="white" transform="translate(14 14)"/>
</clipPath>
</defs>
</svg>
