<svg width="52" height="52" viewBox="0 0 52 52" fill="none" xmlns="http://www.w3.org/2000/svg">
<g filter="url(#filter0_d_552_6150)">
<g clip-path="url(#clip0_552_6150)">
<g clip-path="url(#clip1_552_6150)">
<path d="M14 14H38V22.0016H14V14Z" fill="#FF9933"/>
<path d="M14 22.0016H38V29.9985H14V22.0016Z" fill="white"/>
<path d="M14 29.9984H38V38H14V29.9984Z" fill="#128807"/>
<path d="M26 29.2C27.7673 29.2 29.2 27.7673 29.2 26C29.2 24.2327 27.7673 22.8 26 22.8C24.2327 22.8 22.8 24.2327 22.8 26C22.8 27.7673 24.2327 29.2 26 29.2Z" fill="#000088"/>
<path d="M26 28.8C27.5464 28.8 28.8 27.5464 28.8 26C28.8 24.4536 27.5464 23.2 26 23.2C24.4536 23.2 23.2 24.4536 23.2 26C23.2 27.5464 24.4536 28.8 26 28.8Z" fill="white"/>
<path d="M26 26.56C26.3093 26.56 26.56 26.3093 26.56 26C26.56 25.6907 26.3093 25.44 26 25.44C25.6907 25.44 25.44 25.6907 25.44 26C25.44 26.3093 25.6907 26.56 26 26.56Z" fill="#000088"/>
<path d="M28.757 26.5093C28.8359 26.5197 28.9082 26.4642 28.9186 26.3853C28.929 26.3065 28.8735 26.2341 28.7946 26.2238C28.7158 26.2134 28.6434 26.2689 28.6331 26.3477C28.6227 26.4266 28.6782 26.4989 28.757 26.5093Z" fill="#000088"/>
<path d="M25.9998 28.8L26.0958 27.12L25.9998 26.32L25.9038 27.12L25.9998 28.8Z" fill="#000088"/>
<path d="M28.5313 27.2055C28.6048 27.236 28.689 27.2011 28.7195 27.1276C28.7499 27.0541 28.715 26.9699 28.6415 26.9394C28.568 26.909 28.4838 26.9439 28.4534 27.0174C28.4229 27.0909 28.4578 27.1751 28.5313 27.2055Z" fill="#000088"/>
<path d="M25.2752 28.7046L25.8027 27.1067L25.9171 26.3091L25.6173 27.057L25.2752 28.7046Z" fill="#000088"/>
<path d="M28.1331 27.8196C28.1962 27.868 28.2866 27.8561 28.335 27.793C28.3834 27.73 28.3715 27.6396 28.3084 27.5911C28.2453 27.5427 28.1549 27.5546 28.1065 27.6177C28.0581 27.6808 28.07 27.7712 28.1331 27.8196Z" fill="#000088"/>
<path d="M24.5999 28.4249L25.5231 27.0179L25.8399 26.2771L25.3568 26.9219L24.5999 28.4249Z" fill="#000088"/>
<path d="M27.5893 28.3098C27.6378 28.3729 27.7281 28.3848 27.7912 28.3363C27.8543 28.2879 27.8662 28.1975 27.8178 28.1344C27.7694 28.0714 27.679 28.0595 27.6159 28.1079C27.5528 28.1563 27.5409 28.2467 27.5893 28.3098Z" fill="#000088"/>
<path d="M24.0199 27.9799L25.2758 26.8598L25.7736 26.2263L25.14 26.7241L24.0199 27.9799Z" fill="#000088"/>
<path d="M26.9374 28.6424C26.9678 28.7159 27.0521 28.7508 27.1256 28.7204C27.199 28.6899 27.2339 28.6057 27.2035 28.5322C27.173 28.4587 27.0888 28.4238 27.0153 28.4543C26.9419 28.4847 26.907 28.5689 26.9374 28.6424Z" fill="#000088"/>
<path d="M23.575 27.4L25.0779 26.6431L25.7227 26.16L24.9819 26.4768L23.575 27.4Z" fill="#000088"/>
<path d="M26.2215 28.795C26.2319 28.8739 26.3043 28.9294 26.3831 28.919C26.462 28.9086 26.5175 28.8363 26.5071 28.7575C26.4967 28.6786 26.4244 28.6231 26.3455 28.6335C26.2667 28.6439 26.2112 28.7162 26.2215 28.795Z" fill="#000088"/>
<path d="M23.2953 26.7247L24.9429 26.3826L25.6908 26.0828L24.8932 26.1972L23.2953 26.7247Z" fill="#000088"/>
<path d="M25.4907 28.7572C25.4803 28.8361 25.5358 28.9084 25.6147 28.9188C25.6935 28.9292 25.7659 28.8737 25.7762 28.7948C25.7866 28.716 25.7311 28.6436 25.6523 28.6332C25.5734 28.6229 25.5011 28.6784 25.4907 28.7572Z" fill="#000088"/>
<path d="M23.2 26L24.88 26.096L25.68 26L24.88 25.904L23.2 26Z" fill="#000088"/>
<path d="M24.7945 28.5314C24.764 28.6049 24.7989 28.6891 24.8724 28.7196C24.9459 28.75 25.0301 28.7151 25.0606 28.6416C25.091 28.5682 25.0561 28.4839 24.9826 28.4535C24.9091 28.4231 24.8249 28.458 24.7945 28.5314Z" fill="#000088"/>
<path d="M23.2954 25.2753L24.8933 25.8029L25.6909 25.9172L24.943 25.6174L23.2954 25.2753Z" fill="#000088"/>
<path d="M24.1803 28.1331C24.1318 28.1962 24.1437 28.2866 24.2068 28.335C24.2699 28.3835 24.3603 28.3716 24.4087 28.3085C24.4572 28.2454 24.4453 28.155 24.3822 28.1066C24.3191 28.0581 24.2287 28.07 24.1803 28.1331Z" fill="#000088"/>
<path d="M23.575 24.6L24.9819 25.5231L25.7228 25.84L25.0779 25.3568L23.575 24.6Z" fill="#000088"/>
<path d="M23.6901 27.5895C23.627 27.6379 23.6151 27.7283 23.6635 27.7914C23.7119 27.8545 23.8023 27.8664 23.8654 27.818C23.9285 27.7696 23.9404 27.6792 23.892 27.6161C23.8436 27.553 23.7532 27.5411 23.6901 27.5895Z" fill="#000088"/>
<path d="M24.02 24.0201L25.14 25.276L25.7736 25.7738L25.2758 25.1402L24.02 24.0201Z" fill="#000088"/>
<path d="M23.3574 26.9375C23.2839 26.968 23.249 27.0522 23.2795 27.1257C23.3099 27.1991 23.3941 27.234 23.4676 27.2036C23.5411 27.1732 23.576 27.0889 23.5455 27.0155C23.5151 26.942 23.4309 26.9071 23.3574 26.9375Z" fill="#000088"/>
<path d="M24.5998 23.5751L25.3567 25.078L25.8398 25.7229L25.523 24.982L24.5998 23.5751Z" fill="#000088"/>
<path d="M23.2048 26.2217C23.126 26.232 23.0705 26.3044 23.0809 26.3832C23.0912 26.4621 23.1636 26.5176 23.2424 26.5072C23.3213 26.4968 23.3768 26.4245 23.3664 26.3456C23.356 26.2668 23.2837 26.2113 23.2048 26.2217Z" fill="#000088"/>
<path d="M25.2752 23.2954L25.6173 24.943L25.917 25.6909L25.8027 24.8933L25.2752 23.2954Z" fill="#000088"/>
<path d="M23.2429 25.4907C23.1641 25.4803 23.0917 25.5358 23.0813 25.6147C23.071 25.6935 23.1265 25.7659 23.2053 25.7762C23.2842 25.7866 23.3565 25.7311 23.3669 25.6523C23.3773 25.5734 23.3218 25.5011 23.2429 25.4907Z" fill="#000088"/>
<path d="M26.0001 23.2L25.9041 24.88L26.0001 25.68L26.0961 24.88L26.0001 23.2Z" fill="#000088"/>
<path d="M23.4686 24.7945C23.3952 24.764 23.3109 24.7989 23.2805 24.8724C23.25 24.9459 23.2849 25.0301 23.3584 25.0606C23.4319 25.091 23.5161 25.0561 23.5466 24.9826C23.577 24.9091 23.5421 24.8249 23.4686 24.7945Z" fill="#000088"/>
<path d="M26.7247 23.2954L26.1972 24.8933L26.0829 25.6909L26.3827 24.943L26.7247 23.2954Z" fill="#000088"/>
<path d="M23.8669 24.1804C23.8038 24.132 23.7134 24.1439 23.665 24.207C23.6165 24.27 23.6284 24.3604 23.6915 24.4089C23.7546 24.4573 23.845 24.4454 23.8934 24.3823C23.9419 24.3192 23.93 24.2288 23.8669 24.1804Z" fill="#000088"/>
<path d="M27.4 23.5751L26.4769 24.9821L26.16 25.7229L26.6432 25.0781L27.4 23.5751Z" fill="#000088"/>
<path d="M24.4106 23.6902C24.3622 23.6271 24.2718 23.6152 24.2087 23.6637C24.1456 23.7121 24.1337 23.8025 24.1821 23.8656C24.2305 23.9286 24.3209 23.9405 24.384 23.8921C24.4471 23.8437 24.459 23.7533 24.4106 23.6902Z" fill="#000088"/>
<path d="M27.98 24.0201L26.7242 25.1402L26.2264 25.7737L26.8599 25.2759L27.98 24.0201Z" fill="#000088"/>
<path d="M25.0625 23.3576C25.0321 23.2841 24.9479 23.2492 24.8744 23.2796C24.8009 23.3101 24.766 23.3943 24.7965 23.4678C24.8269 23.5413 24.9111 23.5762 24.9846 23.5457C25.0581 23.5153 25.093 23.4311 25.0625 23.3576Z" fill="#000088"/>
<path d="M28.4249 24.6L26.922 25.3569L26.2772 25.84L27.018 25.5232L28.4249 24.6Z" fill="#000088"/>
<path d="M25.7784 23.205C25.768 23.1261 25.6957 23.0706 25.6168 23.081C25.538 23.0914 25.4825 23.1637 25.4929 23.2425C25.5032 23.3214 25.5756 23.3769 25.6544 23.3665C25.7333 23.3561 25.7888 23.2838 25.7784 23.205Z" fill="#000088"/>
<path d="M28.7046 25.2753L27.057 25.6174L26.3091 25.9172L27.1067 25.8028L28.7046 25.2753Z" fill="#000088"/>
<path d="M26.5092 23.2428C26.5196 23.1639 26.4641 23.0916 26.3853 23.0812C26.3064 23.0708 26.2341 23.1263 26.2237 23.2052C26.2133 23.284 26.2688 23.3564 26.3477 23.3668C26.4265 23.3771 26.4988 23.3216 26.5092 23.2428Z" fill="#000088"/>
<path d="M28.7999 26L27.1199 25.904L26.3199 26L27.1199 26.096L28.7999 26Z" fill="#000088"/>
<path d="M27.2055 23.4686C27.236 23.3951 27.2011 23.3109 27.1276 23.2804C27.0541 23.25 26.9699 23.2849 26.9394 23.3584C26.909 23.4318 26.9439 23.5161 27.0174 23.5465C27.0909 23.5769 27.1751 23.542 27.2055 23.4686Z" fill="#000088"/>
<path d="M28.7046 26.7247L27.1067 26.1971L26.3091 26.0828L27.057 26.3826L28.7046 26.7247Z" fill="#000088"/>
<path d="M27.8196 23.8669C27.868 23.8038 27.8561 23.7134 27.793 23.665C27.73 23.6165 27.6396 23.6284 27.5911 23.6915C27.5427 23.7546 27.5546 23.845 27.6177 23.8934C27.6808 23.9419 27.7712 23.93 27.8196 23.8669Z" fill="#000088"/>
<path d="M28.4249 27.4L27.0179 26.4769L26.2771 26.16L26.9219 26.6432L28.4249 27.4Z" fill="#000088"/>
<path d="M28.3098 24.4105C28.3729 24.3621 28.3848 24.2717 28.3363 24.2086C28.2879 24.1455 28.1975 24.1336 28.1344 24.182C28.0714 24.2304 28.0595 24.3208 28.1079 24.3839C28.1563 24.447 28.2467 24.4589 28.3098 24.4105Z" fill="#000088"/>
<path d="M27.9799 27.9799L26.8598 26.724L26.2263 26.2262L26.7241 26.8598L27.9799 27.9799Z" fill="#000088"/>
<path d="M28.6425 25.0625C28.716 25.032 28.7508 24.9478 28.7204 24.8743C28.69 24.8009 28.6057 24.766 28.5323 24.7964C28.4588 24.8268 28.4239 24.9111 28.4543 24.9845C28.4848 25.058 28.569 25.0929 28.6425 25.0625Z" fill="#000088"/>
<path d="M27.4 28.4249L26.6432 26.922L26.16 26.2771L26.4769 27.018L27.4 28.4249Z" fill="#000088"/>
<path d="M28.795 25.7783C28.8739 25.768 28.9294 25.6956 28.919 25.6168C28.9086 25.5379 28.8363 25.4824 28.7575 25.4928C28.6786 25.5032 28.6231 25.5755 28.6335 25.6544C28.6439 25.7332 28.7162 25.7887 28.795 25.7783Z" fill="#000088"/>
<path d="M26.7247 28.7046L26.3826 27.057L26.0828 26.3091L26.1972 27.1067L26.7247 28.7046Z" fill="#000088"/>
</g>
</g>
</g>
<defs>
<filter id="filter0_d_552_6150" x="0" y="0" width="52" height="52" filterUnits="userSpaceOnUse" color-interpolation-filters="sRGB">
<feFlood flood-opacity="0" result="BackgroundImageFix"/>
<feColorMatrix in="SourceAlpha" type="matrix" values="0 0 0 0 0 0 0 0 0 0 0 0 0 0 0 0 0 0 127 0" result="hardAlpha"/>
<feMorphology radius="2" operator="dilate" in="SourceAlpha" result="effect1_dropShadow_552_6150"/>
<feOffset/>
<feGaussianBlur stdDeviation="6"/>
<feComposite in2="hardAlpha" operator="out"/>
<feColorMatrix type="matrix" values="0 0 0 0 0 0 0 0 0 0 0 0 0 0 0 0 0 0 0.08 0"/>
<feBlend mode="normal" in2="BackgroundImageFix" result="effect1_dropShadow_552_6150"/>
<feBlend mode="normal" in="SourceGraphic" in2="effect1_dropShadow_552_6150" result="shape"/>
</filter>
<clipPath id="clip0_552_6150">
<rect x="14" y="14" width="24" height="24" rx="6" fill="white"/>
</clipPath>
<clipPath id="clip1_552_6150">
<rect width="24" height="24" fill="white" transform="translate(14 14)"/>
</clipPath>
</defs>
</svg>
