<svg width="52" height="52" viewBox="0 0 52 52" fill="none" xmlns="http://www.w3.org/2000/svg">
<g filter="url(#filter0_d_552_9937)">
<g clip-path="url(#clip0_552_9937)">
<g clip-path="url(#clip1_552_9937)">
<path d="M14 14H38V15.7156H14V14Z" fill="#CC0000"/>
<path d="M14 15.7156H38V17.4218H14V15.7156Z" fill="white"/>
<path d="M14 17.4265H38V19.1421H14V17.4265Z" fill="#CC0000"/>
<path d="M14 19.1422H38V20.8578H14V19.1422Z" fill="white"/>
<path d="M14 20.8578H38V22.5734H14V20.8578Z" fill="#CC0000"/>
<path d="M14 22.5735H38V24.2844H14V22.5735Z" fill="white"/>
<path d="M14 24.2844H38V26H14V24.2844Z" fill="#CC0000"/>
<path d="M14 26H38V27.7156H14V26Z" fill="white"/>
<path d="M14 27.7156H38V29.4218H14V27.7156Z" fill="#CC0000"/>
<path d="M14 29.4265H38V31.1421H14V29.4265Z" fill="white"/>
<path d="M14 31.1422H38V32.8578H14V31.1422Z" fill="#CC0000"/>
<path d="M14 32.8578H38V34.5734H14V32.8578Z" fill="white"/>
<path d="M14 34.5735H38V36.2844H14V34.5735Z" fill="#CC0000"/>
<path d="M14 36.2844H38V38H14V36.2844Z" fill="white"/>
<path d="M14 14H26V27.7156H14V14Z" fill="#000066"/>
<path d="M21.7813 18.3594L22.0063 19.8828L22.8688 18.6078L22.4 20.075L23.736 19.2969L22.6813 20.4219L24.2188 20.3L22.7797 20.8578L24.2188 21.4062L22.6813 21.289L23.736 22.414L22.4047 21.6312L22.8641 23.1078L22.0016 21.8281L21.7766 23.3515L21.5563 21.8281L20.6938 23.1031L21.1578 21.6312L19.8266 22.414L20.8766 21.289L19.3391 21.4062L20.7781 20.8531L19.3438 20.2953L20.8813 20.4172L19.8266 19.2922L21.1578 20.0703L20.6891 18.5984L21.5563 19.8781L21.7813 18.35V18.3594ZM20.5297 18.4203C19.917 18.1496 19.2248 18.1194 18.5908 18.3356C17.9568 18.5519 17.4274 18.9988 17.1078 19.5875C16.8966 19.9779 16.7861 20.4149 16.7864 20.8588C16.7867 21.3027 16.8978 21.7395 17.1096 22.1296C17.3214 22.5197 17.6272 22.8508 17.9994 23.0928C18.3715 23.3348 18.7981 23.4802 19.2406 23.5156C19.682 23.5503 20.125 23.4746 20.5297 23.2953C20.0814 23.6169 19.5531 23.8087 19.0029 23.8496C18.4526 23.8904 17.9018 23.7787 17.4109 23.5267C16.92 23.2748 16.5082 22.8924 16.2206 22.4215C15.933 21.9506 15.7808 21.4095 15.7808 20.8578C15.7808 20.306 15.933 19.765 16.2206 19.2941C16.5082 18.8232 16.92 18.4408 17.4109 18.1888C17.9018 17.9369 18.4526 17.8252 19.0029 17.866C19.5531 17.9069 20.0814 18.0986 20.5297 18.4203Z" fill="#FFCC00"/>
</g>
</g>
</g>
<defs>
<filter id="filter0_d_552_9937" x="0" y="0" width="52" height="52" filterUnits="userSpaceOnUse" color-interpolation-filters="sRGB">
<feFlood flood-opacity="0" result="BackgroundImageFix"/>
<feColorMatrix in="SourceAlpha" type="matrix" values="0 0 0 0 0 0 0 0 0 0 0 0 0 0 0 0 0 0 127 0" result="hardAlpha"/>
<feMorphology radius="2" operator="dilate" in="SourceAlpha" result="effect1_dropShadow_552_9937"/>
<feOffset/>
<feGaussianBlur stdDeviation="6"/>
<feComposite in2="hardAlpha" operator="out"/>
<feColorMatrix type="matrix" values="0 0 0 0 0 0 0 0 0 0 0 0 0 0 0 0 0 0 0.08 0"/>
<feBlend mode="normal" in2="BackgroundImageFix" result="effect1_dropShadow_552_9937"/>
<feBlend mode="normal" in="SourceGraphic" in2="effect1_dropShadow_552_9937" result="shape"/>
</filter>
<clipPath id="clip0_552_9937">
<rect x="14" y="14" width="24" height="24" rx="6" fill="white"/>
</clipPath>
<clipPath id="clip1_552_9937">
<rect width="24" height="24" fill="white" transform="translate(14 14)"/>
</clipPath>
</defs>
</svg>
