<svg width="52" height="52" viewBox="0 0 52 52" fill="none" xmlns="http://www.w3.org/2000/svg">
<g filter="url(#filter0_d_552_10029)">
<g clip-path="url(#clip0_552_10029)">
<g clip-path="url(#clip1_552_10029)">
<path d="M14 14H38V38H14V14Z" fill="#DA2032"/>
<path d="M22.0016 14.0001H29.9985V38.0001H22.0016V14.0001Z" fill="#0066B3"/>
<path d="M17.9984 24.8563C18.9045 24.8563 19.639 24.1218 19.639 23.2157C19.639 22.3096 18.9045 21.5751 17.9984 21.5751C17.0923 21.5751 16.3578 22.3096 16.3578 23.2157C16.3578 24.1218 17.0923 24.8563 17.9984 24.8563Z" fill="#FFD900"/>
<path d="M17.9984 24.2611C18.9874 24.2611 19.7891 23.4594 19.7891 22.4704C19.7891 21.4815 18.9874 20.6798 17.9984 20.6798C17.0095 20.6798 16.2078 21.4815 16.2078 22.4704C16.2078 23.4594 17.0095 24.2611 17.9984 24.2611Z" fill="#DA2032"/>
<path d="M17.9984 23.9611C18.6586 23.9611 19.1937 23.4259 19.1937 22.7657C19.1937 22.1056 18.6586 21.5704 17.9984 21.5704C17.3383 21.5704 16.8031 22.1056 16.8031 22.7657C16.8031 23.4259 17.3383 23.9611 17.9984 23.9611Z" fill="#FFD900"/>
<path d="M18.125 18.8892C18.0637 18.9154 18.011 18.9583 17.9729 19.013C17.9348 19.0677 17.9127 19.132 17.9094 19.1985C17.9 19.3017 17.9469 19.4142 17.9515 19.5126C17.9515 19.686 17.7734 19.7423 17.7734 19.986C17.7734 20.0704 17.8531 20.1642 17.8531 20.3798C17.839 20.497 17.7734 20.5204 17.7031 20.5298C17.6633 20.5298 17.6252 20.514 17.597 20.4859C17.5689 20.4577 17.5531 20.4196 17.5531 20.3798C17.5534 20.3413 17.5685 20.3043 17.5953 20.2767C17.5997 20.2717 17.6044 20.267 17.6094 20.2626C17.6422 20.2298 17.689 20.2157 17.689 20.122C17.689 20.0751 17.6609 20.0376 17.6328 19.9532C17.6198 19.9037 17.6181 19.8518 17.6279 19.8015C17.6376 19.7512 17.6585 19.7037 17.689 19.6626C17.5859 19.7001 17.5203 19.8032 17.4875 19.8923C17.4547 20.0001 17.4828 20.0657 17.4359 20.1595C17.4078 20.2157 17.3703 20.2392 17.3422 20.2907C17.3 20.347 17.2578 20.4688 17.2578 20.5298C17.2784 20.713 17.3658 20.8823 17.5032 21.0052C17.6407 21.1281 17.8187 21.1961 18.0031 21.1961C18.1875 21.1961 18.3655 21.1281 18.503 21.0052C18.6404 20.8823 18.7278 20.713 18.7484 20.5298C18.7484 20.4688 18.7015 20.3423 18.664 20.2907C18.6312 20.2438 18.5937 20.2157 18.5703 20.1595C18.5234 20.0657 18.5515 20.0001 18.514 19.8923C18.4812 19.7985 18.4203 19.7048 18.3125 19.6579C18.3445 19.6992 18.3667 19.7473 18.3772 19.7985C18.3878 19.8497 18.3865 19.9026 18.3734 19.9532C18.3406 20.0376 18.3125 20.0798 18.3125 20.1267C18.3125 20.2157 18.3594 20.2298 18.3922 20.2673C18.397 20.2701 18.4017 20.2733 18.4062 20.2767C18.4347 20.3036 18.4516 20.3406 18.4531 20.3798C18.4531 20.3999 18.4491 20.4198 18.4413 20.4383C18.4334 20.4568 18.422 20.4736 18.4075 20.4875C18.3931 20.5015 18.376 20.5125 18.3573 20.5197C18.3385 20.527 18.3185 20.5304 18.2984 20.5298C18.2187 20.5204 18.1578 20.4829 18.1484 20.3798C18.1484 20.0938 18.275 20.0751 18.275 19.8642C18.275 19.5595 18.0031 19.4142 18.0031 19.1938C18.0031 19.1188 18.0172 18.9923 18.125 18.8892ZM14.7172 25.1517H16.2125V32.3142H14.7172V25.1517ZM19.789 25.1517H21.2797V32.3142H19.789V25.1517ZM16.5078 25.1517H19.4937L17.9984 26.047L16.5078 25.1517ZM16.5078 26.347H19.4937V26.9376H16.5078V26.347ZM16.5078 30.5188H19.4937V31.1188H16.5078V30.5188ZM16.5078 31.4188H19.4937L17.9984 32.3095L16.5078 31.4188Z" fill="#FFD900"/>
<path d="M17.9984 30.2236C18.8217 30.2236 19.4891 29.5562 19.4891 28.7329C19.4891 27.9097 18.8217 27.2423 17.9984 27.2423C17.1752 27.2423 16.5078 27.9097 16.5078 28.7329C16.5078 29.5562 17.1752 30.2236 17.9984 30.2236Z" fill="#FFD900"/>
<path d="M17.9971 28.2398C18.1619 28.2398 18.2954 28.1062 18.2954 27.9415C18.2954 27.7767 18.1619 27.6432 17.9971 27.6432C17.8324 27.6432 17.6989 27.7767 17.6989 27.9415C17.6989 28.1062 17.8324 28.2398 17.9971 28.2398Z" fill="#DA2032"/>
<path d="M17.9971 29.8208C18.1619 29.8208 18.2954 29.6873 18.2954 29.5225C18.2954 29.3578 18.1619 29.2242 17.9971 29.2242C17.8324 29.2242 17.6989 29.3578 17.6989 29.5225C17.6989 29.6873 17.8324 29.8208 17.9971 29.8208Z" fill="#DA2032"/>
<path d="M17.9972 27.0615C18.2305 27.0615 18.4544 27.1542 18.6194 27.3193C18.7844 27.4843 18.8771 27.7081 18.8771 27.9415C18.8771 28.1749 18.7844 28.3987 18.6194 28.5637C18.4544 28.7287 18.2305 28.8215 17.9972 28.8215C17.8112 28.8215 17.6329 28.8953 17.5015 29.0268C17.37 29.1582 17.2962 29.3365 17.2962 29.5224C17.2962 29.7084 17.37 29.8867 17.5015 30.0181C17.6329 30.1496 17.8112 30.2234 17.9972 30.2234V30.4024C17.7638 30.4024 17.5399 30.3097 17.3749 30.1447C17.2099 29.9797 17.1172 29.7558 17.1172 29.5224C17.1172 29.2891 17.2099 29.0652 17.3749 28.9002C17.5399 28.7352 17.7638 28.6425 17.9972 28.6425C18.1831 28.6425 18.3614 28.5686 18.4928 28.4372C18.6243 28.3057 18.6981 28.1274 18.6981 27.9415C18.6981 27.7556 18.6243 27.5773 18.4928 27.4458C18.3614 27.3144 18.1831 27.2405 17.9972 27.2405V27.0615Z" fill="#DA2032"/>
</g>
</g>
</g>
<defs>
<filter id="filter0_d_552_10029" x="0" y="0" width="52" height="52" filterUnits="userSpaceOnUse" color-interpolation-filters="sRGB">
<feFlood flood-opacity="0" result="BackgroundImageFix"/>
<feColorMatrix in="SourceAlpha" type="matrix" values="0 0 0 0 0 0 0 0 0 0 0 0 0 0 0 0 0 0 127 0" result="hardAlpha"/>
<feMorphology radius="2" operator="dilate" in="SourceAlpha" result="effect1_dropShadow_552_10029"/>
<feOffset/>
<feGaussianBlur stdDeviation="6"/>
<feComposite in2="hardAlpha" operator="out"/>
<feColorMatrix type="matrix" values="0 0 0 0 0 0 0 0 0 0 0 0 0 0 0 0 0 0 0.08 0"/>
<feBlend mode="normal" in2="BackgroundImageFix" result="effect1_dropShadow_552_10029"/>
<feBlend mode="normal" in="SourceGraphic" in2="effect1_dropShadow_552_10029" result="shape"/>
</filter>
<clipPath id="clip0_552_10029">
<rect x="14" y="14" width="24" height="24" rx="6" fill="white"/>
</clipPath>
<clipPath id="clip1_552_10029">
<rect width="24" height="24" fill="white" transform="translate(14 14)"/>
</clipPath>
</defs>
</svg>
