<svg width="52" height="52" viewBox="0 0 52 52" fill="none" xmlns="http://www.w3.org/2000/svg">
<g filter="url(#filter0_d_552_10251)">
<g clip-path="url(#clip0_552_10251)">
<g clip-path="url(#clip1_552_10251)">
<path fill-rule="evenodd" clip-rule="evenodd" d="M14 14H38V38H14V14Z" fill="#00247D"/>
<path d="M32.581 21.2623V21.9068L33.8699 21.2623H32.581Z" fill="white"/>
<path d="M32.8555 21.9787L32.4767 21.4573L33.8983 21.221L32.8555 21.9787Z" fill="white"/>
<path d="M32.5811 21.2623V21.9068L31.2921 21.2623H32.5811Z" fill="white"/>
<path d="M32.3064 21.9787L32.6852 21.4573L31.2637 21.221L32.3064 21.9787Z" fill="white"/>
<path d="M32.9489 21.5295L32.3359 21.7287L33.3472 22.7554L32.9489 21.5295Z" fill="white"/>
<path d="M32.3525 22.012L32.7313 21.4906L33.3953 22.7696L32.3525 22.012Z" fill="white"/>
<path d="M32.2132 21.5295L32.8261 21.7287L32.6115 20.3037L32.2132 21.5295Z" fill="white"/>
<path d="M32.9793 21.4897L32.3663 21.6888L32.581 20.2639L32.9793 21.4897Z" fill="white"/>
<path d="M32.2133 21.5295L32.8262 21.7287L31.815 22.7554L32.2133 21.5295Z" fill="white"/>
<path d="M32.8096 22.012L32.4308 21.4906L31.7668 22.7696L32.8096 22.012Z" fill="white"/>
<path d="M32.5811 21.3936V21.8194L33.4328 21.3936H32.5811Z" fill="#CC142B"/>
<path d="M32.7625 21.8669L32.5121 21.5223L33.4515 21.3662L32.7625 21.8669Z" fill="#CC142B"/>
<path d="M32.5811 21.3936V21.8194L31.7294 21.3936H32.5811Z" fill="#CC142B"/>
<path d="M32.3997 21.8669L32.65 21.5223L31.7106 21.3662L32.3997 21.8669Z" fill="#CC142B"/>
<path d="M32.824 21.5701L32.419 21.7017L33.0872 22.3801L32.824 21.5701Z" fill="#CC142B"/>
<path d="M32.43 21.889L32.6803 21.5444L33.119 22.3896L32.43 21.889Z" fill="#CC142B"/>
<path d="M32.338 21.5701L32.743 21.7017L32.6012 20.76L32.338 21.5701Z" fill="#CC142B"/>
<path d="M32.8442 21.5437L32.4392 21.6753L32.581 20.7337L32.8442 21.5437Z" fill="#CC142B"/>
<path d="M32.338 21.5701L32.743 21.7017L32.0748 22.3801L32.338 21.5701Z" fill="#CC142B"/>
<path d="M32.732 21.889L32.4817 21.5444L32.043 22.3896L32.732 21.889Z" fill="#CC142B"/>
<path d="M35.9575 24.2383L35.9575 24.8118L37.1044 24.2383L35.9575 24.2383Z" fill="white"/>
<path d="M36.2018 24.8756L35.8647 24.4116L37.1297 24.2014L36.2018 24.8756Z" fill="white"/>
<path d="M35.9575 24.2383L35.9575 24.8118L34.8106 24.2383L35.9575 24.2383Z" fill="white"/>
<path d="M35.7131 24.8756L36.0502 24.4116L34.7852 24.2014L35.7131 24.8756Z" fill="white"/>
<path d="M36.2847 24.476L35.7393 24.6532L36.6392 25.5668L36.2847 24.476Z" fill="white"/>
<path d="M35.7541 24.9054L36.0912 24.4414L36.682 25.5795L35.7541 24.9054Z" fill="white"/>
<path d="M35.6303 24.476L36.1757 24.6532L35.9847 23.3851L35.6303 24.476Z" fill="white"/>
<path d="M36.312 24.4406L35.7666 24.6178L35.9576 23.3497L36.312 24.4406Z" fill="white"/>
<path d="M35.6302 24.476L36.1757 24.6532L35.2758 25.5668L35.6302 24.476Z" fill="white"/>
<path d="M36.1609 24.9054L35.8239 24.4414L35.233 25.5795L36.1609 24.9054Z" fill="white"/>
<path d="M35.9575 24.3694L35.9575 24.7243L36.6673 24.3694L35.9575 24.3694Z" fill="#CC142B"/>
<path d="M36.1087 24.7638L35.9001 24.4767L36.6829 24.3466L36.1087 24.7638Z" fill="#CC142B"/>
<path d="M35.9575 24.3694L35.9575 24.7243L35.2478 24.3694L35.9575 24.3694Z" fill="#CC142B"/>
<path d="M35.8063 24.7638L36.0149 24.4767L35.2321 24.3466L35.8063 24.7638Z" fill="#CC142B"/>
<path d="M36.16 24.5165L35.8225 24.6261L36.3794 25.1915L36.16 24.5165Z" fill="#CC142B"/>
<path d="M35.8316 24.7822L36.0402 24.4951L36.4058 25.1994L35.8316 24.7822Z" fill="#CC142B"/>
<path d="M35.7549 24.5165L36.0925 24.6261L35.9743 23.8415L35.7549 24.5165Z" fill="#CC142B"/>
<path d="M36.1767 24.4946L35.8392 24.6042L35.9574 23.8196L36.1767 24.4946Z" fill="#CC142B"/>
<path d="M35.755 24.5165L36.0925 24.6261L35.5357 25.1915L35.755 24.5165Z" fill="#CC142B"/>
<path d="M36.0833 24.7822L35.8748 24.4951L35.5091 25.1994L36.0833 24.7822Z" fill="#CC142B"/>
<path d="M28.6467 25.2245L28.6467 25.8689L29.9356 25.2245L28.6467 25.2245Z" fill="white"/>
<path d="M28.9212 25.9407L28.5424 25.4193L29.964 25.1831L28.9212 25.9407Z" fill="white"/>
<path d="M28.6467 25.2245L28.6467 25.8689L27.3577 25.2245L28.6467 25.2245Z" fill="white"/>
<path d="M28.3721 25.9407L28.7509 25.4193L27.3294 25.1831L28.3721 25.9407Z" fill="white"/>
<path d="M29.0145 25.4916L28.4016 25.6907L29.4128 26.7174L29.0145 25.4916Z" fill="white"/>
<path d="M28.4182 25.9741L28.797 25.4528L29.461 26.7317L28.4182 25.9741Z" fill="white"/>
<path d="M28.2789 25.4916L28.8918 25.6907L28.6772 24.2657L28.2789 25.4916Z" fill="white"/>
<path d="M29.0449 25.4517L28.432 25.6509L28.6466 24.2259L29.0449 25.4517Z" fill="white"/>
<path d="M28.2789 25.4916L28.8918 25.6907L27.8806 26.7174L28.2789 25.4916Z" fill="white"/>
<path d="M28.8753 25.9741L28.4965 25.4528L27.8325 26.7317L28.8753 25.9741Z" fill="white"/>
<path d="M28.6467 25.3556L28.6467 25.7814L29.4984 25.3556L28.6467 25.3556Z" fill="#CC142B"/>
<path d="M28.8281 25.8289L28.5778 25.4844L29.5171 25.3283L28.8281 25.8289Z" fill="#CC142B"/>
<path d="M28.6467 25.3556L28.6467 25.7814L27.795 25.3556L28.6467 25.3556Z" fill="#CC142B"/>
<path d="M28.4653 25.8289L28.7156 25.4844L27.7762 25.3283L28.4653 25.8289Z" fill="#CC142B"/>
<path d="M28.8896 25.5321L28.4846 25.6637L29.1528 26.3421L28.8896 25.5321Z" fill="#CC142B"/>
<path d="M28.4956 25.851L28.7459 25.5065L29.1846 26.3516L28.4956 25.851Z" fill="#CC142B"/>
<path d="M28.4036 25.5321L28.8086 25.6637L28.6668 24.7221L28.4036 25.5321Z" fill="#CC142B"/>
<path d="M28.9098 25.5059L28.5048 25.6375L28.6466 24.6958L28.9098 25.5059Z" fill="#CC142B"/>
<path d="M28.4036 25.5321L28.8086 25.6637L28.1404 26.3421L28.4036 25.5321Z" fill="#CC142B"/>
<path d="M28.7977 25.851L28.5474 25.5065L28.1086 26.3516L28.7977 25.851Z" fill="#CC142B"/>
<path d="M32.5809 31.4403V32.1557L34.0118 31.4403H32.5809Z" fill="white"/>
<path d="M32.8857 32.2354L32.4652 31.6566L34.0433 31.3944L32.8857 32.2354Z" fill="white"/>
<path d="M32.581 31.4403V32.1557L31.1501 31.4403H32.581Z" fill="white"/>
<path d="M32.2761 32.2354L32.6967 31.6566L31.1185 31.3944L32.2761 32.2354Z" fill="white"/>
<path d="M32.9892 31.7369L32.3088 31.958L33.4314 33.0978L32.9892 31.7369Z" fill="white"/>
<path d="M32.3272 32.2725L32.7477 31.6937L33.4848 33.1136L32.3272 32.2725Z" fill="white"/>
<path d="M32.1727 31.7369L32.8531 31.958L32.6149 30.3761L32.1727 31.7369Z" fill="white"/>
<path d="M33.0231 31.6926L32.3427 31.9137L32.581 30.3318L33.0231 31.6926Z" fill="white"/>
<path d="M32.1727 31.7369L32.8531 31.958L31.7305 33.0978L32.1727 31.7369Z" fill="white"/>
<path d="M32.8346 32.2725L32.4141 31.6937L31.677 33.1136L32.8346 32.2725Z" fill="white"/>
<path d="M32.5809 31.5714V32.0682L33.5746 31.5714H32.5809Z" fill="#CC142B"/>
<path d="M32.7926 32.1236L32.5005 31.7217L33.5965 31.5396L32.7926 32.1236Z" fill="#CC142B"/>
<path d="M32.581 31.5714V32.0682L31.5873 31.5714H32.581Z" fill="#CC142B"/>
<path d="M32.3693 32.1236L32.6613 31.7217L31.5654 31.5396L32.3693 32.1236Z" fill="#CC142B"/>
<path d="M32.8645 31.7775L32.392 31.931L33.1716 32.7225L32.8645 31.7775Z" fill="#CC142B"/>
<path d="M32.4047 32.1494L32.6968 31.7474L33.2086 32.7334L32.4047 32.1494Z" fill="#CC142B"/>
<path d="M32.2975 31.7775L32.77 31.931L32.6045 30.8324L32.2975 31.7775Z" fill="#CC142B"/>
<path d="M32.888 31.7467L32.4155 31.9003L32.581 30.8017L32.888 31.7467Z" fill="#CC142B"/>
<path d="M32.2974 31.7775L32.7699 31.931L31.9904 32.7225L32.2974 31.7775Z" fill="#CC142B"/>
<path d="M32.7571 32.1494L32.4651 31.7474L31.9532 32.7334L32.7571 32.1494Z" fill="#CC142B"/>
<path d="M14 14H26V26H14V14Z" fill="#012169"/>
<path d="M26 14V15.5L21.5469 20L26 24.3828V26H24.4297L19.9531 21.5938L15.5938 26H14V24.4062L18.3594 20.0234L14 15.7344V14H15.4531L19.9531 18.4062L24.3125 14H26Z" fill="white"/>
<path d="M18.3125 21.5938L18.5703 22.3906L14.9844 26H14V25.9297L18.3125 21.5938ZM21.2188 21.3125L22.4844 21.5L26 24.9453V26L21.2188 21.3125ZM26 14L21.5 18.5938L21.4062 17.5625L24.9219 14H26ZM14 14.0234L18.5234 18.4531L17.1406 18.2656L14 15.1484V14.0234Z" fill="#C8102E"/>
<path d="M18.125 14V26H21.875V14H18.125ZM14 18.125V21.875H26V18.125H14Z" fill="white"/>
<path d="M14 18.875V21.125H26V18.875H14ZM18.875 14V26H21.125V14H18.875Z" fill="#C8102E"/>
</g>
</g>
</g>
<defs>
<filter id="filter0_d_552_10251" x="0" y="0" width="52" height="52" filterUnits="userSpaceOnUse" color-interpolation-filters="sRGB">
<feFlood flood-opacity="0" result="BackgroundImageFix"/>
<feColorMatrix in="SourceAlpha" type="matrix" values="0 0 0 0 0 0 0 0 0 0 0 0 0 0 0 0 0 0 127 0" result="hardAlpha"/>
<feMorphology radius="2" operator="dilate" in="SourceAlpha" result="effect1_dropShadow_552_10251"/>
<feOffset/>
<feGaussianBlur stdDeviation="6"/>
<feComposite in2="hardAlpha" operator="out"/>
<feColorMatrix type="matrix" values="0 0 0 0 0 0 0 0 0 0 0 0 0 0 0 0 0 0 0.08 0"/>
<feBlend mode="normal" in2="BackgroundImageFix" result="effect1_dropShadow_552_10251"/>
<feBlend mode="normal" in="SourceGraphic" in2="effect1_dropShadow_552_10251" result="shape"/>
</filter>
<clipPath id="clip0_552_10251">
<rect x="14" y="14" width="24" height="24" rx="6" fill="white"/>
</clipPath>
<clipPath id="clip1_552_10251">
<rect width="24" height="24" fill="white" transform="translate(14 14)"/>
</clipPath>
</defs>
</svg>
