<svg width="52" height="52" viewBox="0 0 52 52" fill="none" xmlns="http://www.w3.org/2000/svg">
<g filter="url(#filter0_d_552_6632)">
<g clip-path="url(#clip0_552_6632)">
<g clip-path="url(#clip1_552_6632)">
<path d="M23.6 14H38V38H23.5953L23.6 14Z" fill="#FF0000"/>
<path d="M13.9999 14H23.5999V38H13.9952L13.9999 14Z" fill="#006600"/>
<path fill-rule="evenodd" clip-rule="evenodd" d="M27.7718 29.3094C26.1593 29.2625 18.7718 24.65 18.7249 23.9141L19.128 23.2344C19.8593 24.2984 27.4155 28.7844 28.1562 28.625L27.7718 29.3094Z" fill="#FFFF00" stroke="black" stroke-width="0.0328125" stroke-linecap="round" stroke-linejoin="round"/>
<path fill-rule="evenodd" clip-rule="evenodd" d="M19.0437 23.1406C18.8984 23.5297 20.9702 24.8094 23.464 26.3281C25.9577 27.8422 28.1046 28.7797 28.2687 28.6484L28.339 28.5125C28.3109 28.5594 28.2359 28.5734 28.1234 28.5406C27.4484 28.3437 25.6905 27.5375 23.5155 26.2203C21.3405 24.9031 19.4468 23.6844 19.1562 23.1687C19.1322 23.1208 19.1209 23.0676 19.1234 23.014H19.114L19.053 23.1219L19.0437 23.1406ZM27.8093 29.3281C27.7812 29.3797 27.7296 29.3797 27.6359 29.375C27.0312 29.3047 25.1984 28.414 23.0421 27.1203C20.5202 25.6109 18.439 24.2375 18.6687 23.8812L18.7296 23.7687L18.739 23.7734C18.5374 24.3828 22.8452 26.8437 23.0984 27.0031C25.5874 28.55 27.6921 29.45 27.8796 29.2156L27.8093 29.3281Z" fill="#FFFF00" stroke="black" stroke-width="0.0328125" stroke-linecap="round" stroke-linejoin="round"/>
<path fill-rule="evenodd" clip-rule="evenodd" d="M23.6093 24.3594C25.2172 24.3453 27.2093 24.139 28.3531 23.6844L28.1093 23.2812C27.4297 23.6562 25.4328 23.9047 23.5953 23.9375C21.4203 23.9187 19.8875 23.7172 19.1187 23.2015L18.8843 23.6281C20.3 24.2234 21.7437 24.3547 23.6093 24.3594Z" fill="#FFFF00" stroke="black" stroke-width="0.0328125" stroke-linecap="round" stroke-linejoin="round"/>
<path fill-rule="evenodd" clip-rule="evenodd" d="M28.4234 23.6938C28.3812 23.7547 27.6359 24.0125 26.5343 24.2C25.563 24.3457 24.5821 24.4178 23.5999 24.4156C22.6595 24.4198 21.7198 24.3603 20.7874 24.2375C19.639 24.0547 19.039 23.8016 18.8187 23.7125L18.8749 23.6047C19.4983 23.8504 20.1479 24.0234 20.8109 24.1203C21.7355 24.2413 22.6674 24.2992 23.5999 24.2938C24.5743 24.2944 25.5473 24.2223 26.5109 24.0781C27.6359 23.8953 28.2546 23.661 28.339 23.5531L28.4234 23.6938ZM28.2031 23.2813C28.0812 23.375 27.4718 23.5953 26.4031 23.7641C25.4793 23.8967 24.5472 23.9625 23.614 23.961C22.7141 23.9678 21.8149 23.9098 20.9234 23.7875C19.8312 23.6469 19.2546 23.3891 19.0484 23.3141L19.1093 23.2063C19.2687 23.2906 19.8312 23.5156 20.9374 23.675C21.8249 23.79 22.7191 23.8449 23.614 23.8391C24.5394 23.8404 25.4637 23.7746 26.3796 23.6422C27.4577 23.4922 28.039 23.2203 28.1281 23.15L28.2031 23.2813ZM18.3124 26.3C19.3062 26.8344 21.5046 27.1063 23.5906 27.125C25.489 27.125 27.964 26.8297 28.8874 26.3375L28.8593 25.8031C28.5734 26.2578 25.9249 26.6938 23.5718 26.675C21.2187 26.6563 19.0343 26.2906 18.3077 25.8219V26.3" fill="#FFFF00"/>
<path d="M18.3124 26.3C19.3062 26.8344 21.5046 27.1063 23.5906 27.125C25.489 27.125 27.964 26.8297 28.8874 26.3375L28.8593 25.8031C28.5734 26.2578 25.9249 26.6938 23.5718 26.675C21.2187 26.6563 19.0343 26.2906 18.3077 25.8219V26.3M28.4234 23.6938C28.3812 23.7547 27.6359 24.0125 26.5343 24.2C25.563 24.3457 24.5821 24.4178 23.5999 24.4156C22.6595 24.4198 21.7198 24.3603 20.7874 24.2375C19.639 24.0547 19.039 23.8016 18.8187 23.7125L18.8749 23.6047C19.4983 23.8504 20.1479 24.0234 20.8109 24.1203C21.7355 24.2413 22.6674 24.2992 23.5999 24.2938C24.5743 24.2944 25.5473 24.2223 26.5109 24.0781C27.6359 23.8953 28.2546 23.661 28.339 23.5531L28.4234 23.6938ZM28.2031 23.2813C28.0812 23.375 27.4718 23.5953 26.4031 23.7641C25.4793 23.8967 24.5472 23.9625 23.614 23.961C22.7141 23.9678 21.8149 23.9098 20.9234 23.7875C19.8312 23.6469 19.2546 23.3891 19.0484 23.3141L19.1093 23.2063C19.2687 23.2906 19.8312 23.5156 20.9374 23.675C21.8249 23.79 22.7191 23.8449 23.614 23.8391C24.5394 23.8404 25.4637 23.7746 26.3796 23.6422C27.4577 23.4922 28.039 23.2203 28.1281 23.15L28.2031 23.2813Z" stroke="black" stroke-width="0.0328125" stroke-linecap="round" stroke-linejoin="round"/>
<path fill-rule="evenodd" clip-rule="evenodd" d="M28.939 26.225V26.3515C28.7984 26.5203 27.9265 26.7734 26.8343 26.9469C25.7525 27.104 24.6603 27.1792 23.5671 27.1719C22.2828 27.1719 21.2609 27.0781 20.464 26.9562C19.6994 26.8693 18.9521 26.6687 18.2468 26.3609V26.2109C18.7343 26.5344 20.0421 26.7687 20.4828 26.839C21.2703 26.9609 22.2875 27.05 23.5671 27.05C24.9125 27.05 25.9906 26.9562 26.8156 26.8297C27.6031 26.7172 28.7187 26.4218 28.939 26.225ZM28.939 25.7703V25.9015C28.7984 26.0656 27.9265 26.3187 26.8343 26.4922C25.7525 26.6493 24.6603 26.7245 23.5671 26.7172C22.2828 26.7172 21.2609 26.6234 20.4687 26.5062C19.7023 26.4182 18.9534 26.2159 18.2468 25.9062V25.7562C18.7343 26.0797 20.0421 26.3187 20.4828 26.3844C21.275 26.5062 22.2921 26.6 23.5671 26.6C24.9125 26.6 25.9906 26.5062 26.8156 26.375C27.6031 26.2625 28.7187 25.9672 28.939 25.7703ZM23.5859 29.2156C21.3078 29.2015 19.3531 28.5969 18.9406 28.4937L19.2406 28.9625C19.9671 29.2719 21.875 29.7312 23.6093 29.6797C25.3437 29.6281 26.8578 29.4922 27.9218 28.9765L28.2312 28.4844C27.5046 28.8265 25.0296 29.2156 23.5906 29.2156" fill="#FFFF00"/>
<path d="M23.5859 29.2156C21.3078 29.2015 19.3531 28.5969 18.9406 28.4937L19.2406 28.9625C19.9671 29.2719 21.875 29.7312 23.6093 29.6797C25.3437 29.6281 26.8578 29.4922 27.9218 28.9765L28.2312 28.4844C27.5046 28.8265 25.0296 29.2156 23.5906 29.2156M28.939 26.225V26.3515C28.7984 26.5203 27.9265 26.7734 26.8343 26.9469C25.7525 27.104 24.6603 27.1792 23.5671 27.1719C22.2828 27.1719 21.2609 27.0781 20.464 26.9562C19.6994 26.8693 18.9521 26.6687 18.2468 26.3609V26.2109C18.7343 26.5344 20.0421 26.7687 20.4828 26.839C21.2703 26.9609 22.2875 27.05 23.5671 27.05C24.9125 27.05 25.9906 26.9562 26.8156 26.8297C27.6031 26.7172 28.7187 26.4218 28.939 26.225ZM28.939 25.7703V25.9015C28.7984 26.0656 27.9265 26.3187 26.8343 26.4922C25.7525 26.6493 24.6603 26.7245 23.5671 26.7172C22.2828 26.7172 21.2609 26.6234 20.4687 26.5062C19.7023 26.4182 18.9534 26.2159 18.2468 25.9062V25.7562C18.7343 26.0797 20.0421 26.3187 20.4828 26.3844C21.275 26.5062 22.2921 26.6 23.5671 26.6C24.9125 26.6 25.9906 26.5062 26.8156 26.375C27.6031 26.2625 28.7187 25.9672 28.939 25.7703Z" stroke="black" stroke-width="0.0328125" stroke-linecap="round" stroke-linejoin="round"/>
<path fill-rule="evenodd" clip-rule="evenodd" d="M28.039 28.8641C27.9933 28.9336 27.9464 29.0024 27.8984 29.0703C27.3665 29.2468 26.823 29.3862 26.2718 29.4875C25.3873 29.6503 24.4899 29.7318 23.5906 29.7313C21.5702 29.7031 19.9156 29.3094 19.1374 28.9719L19.0718 28.8641L19.0859 28.8453L19.189 28.8875C20.6122 29.3591 22.1006 29.6043 23.5999 29.6141C24.5374 29.6188 25.4749 29.5063 26.2296 29.375C27.3921 29.1406 27.8609 28.9672 28.0062 28.8875L28.039 28.8641ZM28.3062 28.4235H28.3109C28.2769 28.4831 28.2425 28.5425 28.2077 28.6016C27.9406 28.6953 27.2093 28.911 26.1452 29.061C25.4421 29.1547 25.0062 29.2485 23.614 29.2766C22.0189 29.2594 20.4337 29.0228 18.9031 28.5735L18.8468 28.4563C20.4015 28.8829 22.0023 29.1191 23.614 29.1594C24.889 29.1313 25.4327 29.0375 26.1265 28.9391C27.3687 28.7516 27.9921 28.5453 28.1796 28.4844C28.1782 28.4812 28.1766 28.4781 28.1749 28.475L28.3062 28.4235Z" fill="#FFFF00" stroke="black" stroke-width="0.028125" stroke-linecap="round" stroke-linejoin="round"/>
<path fill-rule="evenodd" clip-rule="evenodd" d="M28.3343 25.8781C28.3437 27.3781 27.5749 28.7281 26.9562 29.3234C26.0473 30.2074 24.8348 30.7105 23.5671 30.7297C22.053 30.7578 20.628 29.7687 20.2437 29.3375C19.4937 28.489 18.8843 27.4156 18.8655 25.9625C18.9593 24.3219 19.6015 23.1828 20.5343 22.4C21.4369 21.6575 22.5718 21.256 23.7405 21.2656C24.9312 21.2984 26.328 21.8844 27.289 23.0469C27.9171 23.8062 28.1937 24.6312 28.3343 25.8828V25.8781ZM23.5812 20.7406C26.4874 20.7406 28.878 23.1078 28.878 26.0047C28.8694 27.4038 28.3075 28.7427 27.3151 29.7289C26.3226 30.7152 24.9803 31.2688 23.5812 31.2687C20.6749 31.2687 18.303 28.9062 18.303 26.0047C18.303 23.1031 20.6749 20.7406 23.5812 20.7406Z" fill="#FFFF00" stroke="black" stroke-width="0.0328125" stroke-linecap="round" stroke-linejoin="round"/>
<path fill-rule="evenodd" clip-rule="evenodd" d="M23.5953 20.7219C26.5015 20.7219 28.8734 23.0984 28.8734 26.0047C28.8734 28.9109 26.5015 31.2875 23.5953 31.2875C22.1945 31.2838 20.8522 30.7253 19.8622 29.7344C18.8721 28.7435 18.3149 27.4007 18.3124 26C18.3162 24.6 18.8739 23.2585 19.8638 22.2686C20.8538 21.2786 22.1953 20.7209 23.5953 20.7172V20.7219ZM18.4296 26.0047C18.4296 28.8453 20.764 31.1703 23.5953 31.1703C26.4265 31.1703 28.7562 28.8453 28.7562 26.0047C28.7562 23.164 26.4265 20.8437 23.5953 20.8437C22.2276 20.8487 20.9172 21.3938 19.9497 22.3605C18.9822 23.3272 18.4358 24.637 18.4296 26.0047Z" fill="#FFFF00" stroke="black" stroke-width="0.0328125" stroke-linecap="round" stroke-linejoin="round"/>
<path fill-rule="evenodd" clip-rule="evenodd" d="M23.5999 21.1625C26.2484 21.1625 28.4328 23.3422 28.4328 26C28.4328 28.6625 26.2484 30.8375 23.5999 30.8375C22.3177 30.8338 21.0889 30.3231 20.1817 29.4168C19.2746 28.5105 18.7627 27.2822 18.7578 26C18.7578 23.3422 20.9421 21.1625 23.5953 21.1625H23.5999ZM18.8749 26C18.8749 28.5969 21.0078 30.7203 23.5999 30.7203C26.1874 30.7203 28.3203 28.5969 28.3203 26C28.3203 23.4031 26.1874 21.2797 23.5953 21.2797C21.0031 21.2797 18.8749 23.4031 18.8749 26Z" fill="#FFFF00" stroke="black" stroke-width="0.0328125" stroke-linecap="round" stroke-linejoin="round"/>
<path fill-rule="evenodd" clip-rule="evenodd" d="M23.8109 20.7031H23.3562V31.3156H23.8109V20.7031Z" fill="#FFFF00" stroke="black" stroke-width="0.0328125" stroke-linecap="round" stroke-linejoin="round"/>
<path fill-rule="evenodd" clip-rule="evenodd" d="M23.764 20.6422H23.8812V31.3766H23.764V20.6422ZM23.314 20.6422H23.4312V31.3766H23.314V20.6422Z" fill="#FFFF00" stroke="black" stroke-width="0.0328125" stroke-linecap="round" stroke-linejoin="round"/>
<path fill-rule="evenodd" clip-rule="evenodd" d="M28.8781 26.211V25.8125L28.5593 25.5172L26.7453 25.0344L24.1296 24.7672L20.989 24.9266L18.7437 25.461L18.2937 25.7985V26.1875L19.4375 25.6719L22.1562 25.25H24.7718L26.6937 25.461L28.025 25.7844L28.8781 26.211Z" fill="#FFFF00" stroke="black" stroke-width="0.0328125" stroke-linecap="round" stroke-linejoin="round"/>
<path fill-rule="evenodd" clip-rule="evenodd" d="M23.5953 25.1891C24.7413 25.1844 25.8853 25.2864 27.0125 25.4938C28.0015 25.6906 28.7 25.9391 28.9343 26.2156V26.3563C28.6531 26.0094 27.7156 25.7563 26.989 25.6063C26.0375 25.4234 24.8328 25.3063 23.5953 25.3063C22.2828 25.3063 21.064 25.4328 20.1265 25.6156C19.3765 25.7656 18.3734 26.0609 18.2468 26.3563V26.2156C18.3171 26.0094 19.0625 25.7047 20.1125 25.4938C21.2615 25.2853 22.4274 25.1833 23.5953 25.1891ZM23.5953 24.7344C24.7429 24.7299 25.8884 24.8319 27.0171 25.0391C28.0015 25.2359 28.7046 25.4844 28.939 25.7656V25.9016C28.6531 25.5547 27.7109 25.3016 26.989 25.1563C26.0375 24.9688 24.8328 24.8516 23.5953 24.8516C22.4351 24.848 21.277 24.9515 20.1359 25.1609C19.4093 25.3016 18.364 25.6109 18.2468 25.9016V25.7609C18.3171 25.5594 19.0812 25.2453 20.1125 25.0438C21.2614 24.8337 22.4273 24.7301 23.5953 24.7344ZM23.5718 22.4234C25.5359 22.4141 27.2515 22.7 28.0343 23.1031L28.3203 23.5953C27.6406 23.2297 25.789 22.8453 23.5718 22.9063C21.7671 22.9156 19.8406 23.1031 18.8703 23.6188L19.2125 23.0469C20.0093 22.6344 21.8843 22.4281 23.5718 22.4234Z" fill="#FFFF00" stroke="black" stroke-width="0.0328125" stroke-linecap="round" stroke-linejoin="round"/>
<path fill-rule="evenodd" clip-rule="evenodd" d="M23.5953 22.8312C24.7203 22.8312 25.7984 22.8922 26.6609 23.0469C27.4625 23.1969 28.2312 23.4219 28.339 23.5437L28.4234 23.6937C28.1562 23.5203 27.4953 23.3234 26.6422 23.1641C25.6348 23.0036 24.6151 22.933 23.5953 22.9531C22.3297 22.9531 21.3453 23.0141 20.5015 23.1641C19.6109 23.3281 18.9922 23.5672 18.8375 23.6797L18.9218 23.525C19.2172 23.3703 19.6906 23.1875 20.4828 23.0469C21.3547 22.8875 22.3437 22.8406 23.5953 22.8312ZM23.5953 22.3812C24.5853 22.3657 25.5748 22.4347 26.5531 22.5875C27.2047 22.7141 27.8468 22.9109 28.0859 23.0844L28.2078 23.2812C27.9968 23.0469 27.2047 22.8266 26.5015 22.7047C25.6859 22.5641 24.6687 22.5078 23.5953 22.4984C22.4703 22.4984 21.4297 22.5687 20.6234 22.7141C19.8547 22.8641 19.3578 23.0375 19.1468 23.1734L19.2547 23.0047C19.5453 22.8547 20.014 22.7141 20.6047 22.5969C21.4156 22.4516 22.4656 22.3812 23.5953 22.3812ZM26.2203 28.1984C25.3536 28.049 24.4746 27.9831 23.5953 28.0016C20.3187 28.0391 19.264 28.6719 19.1328 28.8641L18.889 28.4656C19.7187 27.8609 21.5 27.5234 23.6093 27.5562C24.7015 27.575 25.6437 27.65 26.4406 27.8L26.2156 28.1984" fill="#FFFF00"/>
<path d="M26.2203 28.1984C25.3536 28.049 24.4746 27.9831 23.5953 28.0016C20.3187 28.0391 19.264 28.6719 19.1328 28.8641L18.889 28.4656C19.7187 27.8609 21.5 27.5234 23.6093 27.5562C24.7015 27.575 25.6437 27.65 26.4406 27.8L26.2156 28.1984M23.5953 22.8312C24.7203 22.8312 25.7984 22.8922 26.6609 23.0469C27.4625 23.1969 28.2312 23.4219 28.339 23.5437L28.4234 23.6937C28.1562 23.5203 27.4953 23.3234 26.6422 23.1641C25.6348 23.0036 24.6151 22.933 23.5953 22.9531C22.3297 22.9531 21.3453 23.0141 20.5015 23.1641C19.6109 23.3281 18.9922 23.5672 18.8375 23.6797L18.9218 23.525C19.2172 23.3703 19.6906 23.1875 20.4828 23.0469C21.3547 22.8875 22.3437 22.8406 23.5953 22.8312ZM23.5953 22.3812C24.5853 22.3657 25.5748 22.4347 26.5531 22.5875C27.2047 22.7141 27.8468 22.9109 28.0859 23.0844L28.2078 23.2812C27.9968 23.0469 27.2047 22.8266 26.5015 22.7047C25.6859 22.5641 24.6687 22.5078 23.5953 22.4984C22.4703 22.4984 21.4297 22.5687 20.6234 22.7141C19.8547 22.8641 19.3578 23.0375 19.1468 23.1734L19.2547 23.0047C19.5453 22.8547 20.014 22.7141 20.6047 22.5969C21.4156 22.4516 22.4656 22.3812 23.5953 22.3812Z" stroke="black" stroke-width="0.0328125" stroke-linecap="round" stroke-linejoin="round"/>
<path fill-rule="evenodd" clip-rule="evenodd" d="M23.5765 27.9453C24.4859 27.9594 25.3812 27.9922 26.2484 28.1562L26.1827 28.2687C25.3237 28.1204 24.4527 28.0529 23.5812 28.0672C22.3718 28.0578 21.1437 28.1703 20.0843 28.475C19.7468 28.5687 19.1937 28.7844 19.1327 28.9625L19.0718 28.8594C19.0905 28.7562 19.428 28.5359 20.0562 28.3625C21.2749 28.0109 22.414 27.9547 23.5718 27.9406L23.5765 27.9453ZM23.6187 27.4859C24.5788 27.485 25.5371 27.5681 26.4827 27.7344L26.4171 27.8515C25.4955 27.683 24.5602 27.6013 23.6234 27.6078C22.4093 27.6078 21.1249 27.6969 19.953 28.0344C19.578 28.1469 18.9218 28.3812 18.903 28.5687L18.8421 28.4609C18.8562 28.2922 19.4187 28.0672 19.9296 27.9172C21.1332 27.6023 22.3749 27.4572 23.6187 27.4859Z" fill="#FFFF00" stroke="black" stroke-width="0.028125" stroke-linecap="round" stroke-linejoin="round"/>
<path fill-rule="evenodd" clip-rule="evenodd" d="M28.2687 28.5265L27.875 29.1359L26.7453 28.1328L23.8109 26.164L20.5062 24.3453L18.7859 23.7594L19.1515 23.0797L19.2781 23.014L20.3468 23.2812L23.8625 25.0953L25.8921 26.375L27.5937 27.5937L28.2875 28.3953L28.2687 28.5265Z" fill="#FFFF00" stroke="black" stroke-width="0.0328125" stroke-linecap="round" stroke-linejoin="round"/>
<path fill-rule="evenodd" clip-rule="evenodd" d="M18.7249 23.7735C19.0296 23.5719 21.2421 24.5563 23.5531 25.9532C25.864 27.3547 28.0718 28.9344 27.8749 29.2344L27.8093 29.3328L27.7765 29.3563C27.7859 29.3563 27.8187 29.3094 27.7765 29.2016C27.6734 28.8782 26.1124 27.6313 23.5109 26.061C20.9796 24.5516 18.8702 23.6422 18.6593 23.9047L18.7249 23.7735ZM28.3484 28.5172C28.5359 28.1422 26.4874 26.5953 23.9421 25.0907C21.3406 23.6141 19.4609 22.7469 19.1187 23.0047L19.0437 23.1453C19.0437 23.15 19.0437 23.136 19.0624 23.1219C19.1234 23.0703 19.2265 23.075 19.2734 23.075C19.864 23.0797 21.5515 23.8532 23.914 25.2125C24.9499 25.8125 28.2921 27.9594 28.2781 28.5594C28.2781 28.611 28.2827 28.6203 28.264 28.6485L28.3484 28.5172Z" fill="#FFFF00" stroke="black" stroke-width="0.0328125" stroke-linecap="round" stroke-linejoin="round"/>
<path d="M20.4304 26.5846C20.4312 26.9986 20.5141 27.4084 20.6743 27.7901C20.8345 28.1719 21.0689 28.5181 21.3638 28.8086C21.6551 29.1044 22.002 29.3396 22.3846 29.5007C22.7672 29.6618 23.1779 29.7456 23.5931 29.7473C24.4333 29.7472 25.239 29.4134 25.8331 28.8193C26.127 28.5271 26.3602 28.1798 26.5195 27.7972C26.6787 27.4146 26.7608 27.0044 26.7611 26.59V22.366L20.4304 22.3553V26.5846Z" fill="white" stroke="black" stroke-width="0.0373334"/>
<path d="M20.5477 26.59C20.5489 26.9872 20.6286 27.3801 20.7824 27.7463C20.9362 28.1124 21.1609 28.4445 21.4437 28.7234C22.0116 29.2942 22.7826 29.6164 23.5877 29.6194C24.3914 29.6198 25.1625 29.3014 25.7317 28.734C26.0136 28.4548 26.2373 28.1225 26.3902 27.7563C26.5431 27.3902 26.622 26.9975 26.6224 26.6007V22.494H20.5584V26.59M25.4117 23.726V26.334L25.4064 26.606C25.4082 26.8443 25.3619 27.0805 25.2703 27.3004C25.1786 27.5203 25.0435 27.7195 24.8731 27.886C24.5339 28.2264 24.0735 28.4182 23.5931 28.4194C23.0917 28.4194 22.6491 28.206 22.3184 27.8754C21.9781 27.5362 21.7862 27.0758 21.7851 26.5954V23.7154L25.4117 23.726Z" fill="#FF0000"/>
<path d="M20.5477 26.59C20.5489 26.9872 20.6286 27.3801 20.7824 27.7463C20.9362 28.1124 21.1609 28.4445 21.4437 28.7234C22.0116 29.2942 22.7826 29.6164 23.5877 29.6194C24.3914 29.6198 25.1625 29.3014 25.7317 28.734C26.0136 28.4548 26.2373 28.1225 26.3902 27.7563C26.5431 27.3902 26.622 26.9975 26.6224 26.6007V22.494H20.5584V26.59M25.4117 23.726V26.334L25.4064 26.606C25.4082 26.8443 25.3619 27.0805 25.2703 27.3004C25.1786 27.5203 25.0435 27.7195 24.8731 27.886C24.5339 28.2264 24.0735 28.4182 23.5931 28.4194C23.0917 28.4194 22.6491 28.206 22.3184 27.8754C21.9781 27.5362 21.7862 27.0758 21.7851 26.5954V23.7154L25.4117 23.726Z" stroke="black" stroke-width="0.0266667"/>
<path d="M20.9423 23.5659C20.9477 23.2726 21.1557 23.2032 21.1557 23.2032C21.161 23.2032 21.385 23.2779 21.385 23.5712H20.9423" fill="#FFFF00"/>
<path d="M20.761 23.2086L20.7237 23.5446H20.9477C20.9477 23.2672 21.161 23.2246 21.161 23.2246C21.1663 23.2246 21.3743 23.2832 21.3797 23.5446H21.6037L21.561 23.2032H20.761V23.2086ZM20.7077 23.5499H21.6143C21.6303 23.5499 21.6463 23.5659 21.6463 23.5872C21.6463 23.6139 21.6303 23.6299 21.6143 23.6299H20.7077C20.6917 23.6299 20.6757 23.6139 20.6757 23.5872C20.6757 23.5659 20.6917 23.5499 20.713 23.5499H20.7077Z" fill="#FFFF00" stroke="black" stroke-width="0.0266667"/>
<path d="M21.0384 23.5446C21.0384 23.3686 21.161 23.3206 21.161 23.3206C21.161 23.3206 21.2837 23.3739 21.2837 23.5446H21.0384ZM20.729 23.0646H21.5984C21.6144 23.0646 21.6304 23.0859 21.6304 23.1072C21.6304 23.1232 21.6144 23.1392 21.5984 23.1392H20.729C20.713 23.1392 20.697 23.1232 20.697 23.1019C20.697 23.0859 20.713 23.0699 20.729 23.0699V23.0646ZM20.7504 23.1446H21.5717C21.5877 23.1446 21.6037 23.1606 21.6037 23.1819C21.6037 23.2032 21.5877 23.2192 21.5717 23.2192H20.745C20.7237 23.2192 20.713 23.2032 20.713 23.1819C20.713 23.1606 20.7237 23.1446 20.745 23.1446H20.7504ZM21.017 22.5792H21.081V22.6219H21.129V22.5792H21.1984V22.6272H21.2464V22.5739H21.3104V22.6806C21.3104 22.7019 21.2997 22.7126 21.2837 22.7126H21.049C21.033 22.7126 21.017 22.7019 21.017 22.6859V22.5792ZM21.2624 22.7232L21.2784 23.0646H21.049L21.065 22.7179H21.2624" fill="#FFFF00"/>
<path d="M21.2624 22.7232L21.2784 23.0646H21.049L21.065 22.7179H21.2624M21.0384 23.5446C21.0384 23.3686 21.161 23.3206 21.161 23.3206C21.161 23.3206 21.2837 23.3739 21.2837 23.5446H21.0384ZM20.729 23.0646H21.5984C21.6144 23.0646 21.6304 23.0859 21.6304 23.1072C21.6304 23.1232 21.6144 23.1392 21.5984 23.1392H20.729C20.713 23.1392 20.697 23.1232 20.697 23.1019C20.697 23.0859 20.713 23.0699 20.729 23.0699V23.0646ZM20.7504 23.1446H21.5717C21.5877 23.1446 21.6037 23.1606 21.6037 23.1819C21.6037 23.2032 21.5877 23.2192 21.5717 23.2192H20.745C20.7237 23.2192 20.713 23.2032 20.713 23.1819C20.713 23.1606 20.7237 23.1446 20.745 23.1446H20.7504ZM21.017 22.5792H21.081V22.6219H21.129V22.5792H21.1984V22.6272H21.2464V22.5739H21.3104V22.6806C21.3104 22.7019 21.2997 22.7126 21.2837 22.7126H21.049C21.033 22.7126 21.017 22.7019 21.017 22.6859V22.5792Z" stroke="black" stroke-width="0.0266667"/>
<path d="M20.985 22.8832V23.0646H20.7717V22.8832H20.985Z" fill="#FFFF00" stroke="black" stroke-width="0.0266667"/>
<path d="M21.5503 22.8832V23.0646H21.337V22.8832H21.5503Z" fill="#FFFF00" stroke="black" stroke-width="0.0266667"/>
<path d="M20.7343 22.7446H20.7983V22.7979H20.8463V22.7446H20.9103V22.7979H20.9583V22.7446H21.0223V22.8512C21.0223 22.8726 21.0116 22.8832 20.9956 22.8832H20.7663C20.7578 22.8832 20.7497 22.8799 20.7437 22.8739C20.7377 22.8679 20.7343 22.8597 20.7343 22.8512V22.7446Z" fill="#FFFF00" stroke="black" stroke-width="0.0266667"/>
<path d="M21.2997 22.7446H21.3637V22.7979H21.4117V22.7446H21.4757V22.7979H21.5237V22.7446H21.5877V22.8512C21.5877 22.8726 21.577 22.8832 21.561 22.8832H21.3317C21.3232 22.8832 21.3151 22.8799 21.3091 22.8739C21.3031 22.8679 21.2997 22.8597 21.2997 22.8512V22.7446Z" fill="#FFFF00" stroke="black" stroke-width="0.0266667"/>
<path d="M21.1396 22.8299C21.1396 22.7979 21.1876 22.7979 21.1876 22.8299V22.9152H21.1396V22.8299Z" fill="black"/>
<path d="M20.857 22.9473C20.857 22.9153 20.8997 22.9153 20.8997 22.9473V23.0113H20.857V22.9473Z" fill="black"/>
<path d="M21.4224 22.9473C21.4224 22.9153 21.465 22.9153 21.465 22.9473V23.0113H21.4224V22.9473Z" fill="black"/>
<path d="M20.9423 26.0353C20.9476 25.742 21.1556 25.6727 21.1556 25.6727C21.1609 25.6727 21.3849 25.7473 21.3849 26.0407H20.9423" fill="#FFFF00"/>
<path d="M20.7609 25.678L20.7236 26.014H20.9476C20.9476 25.7367 21.1609 25.694 21.1609 25.694C21.1663 25.694 21.3743 25.7527 21.3796 26.014H21.6036L21.5609 25.6727H20.7609V25.678ZM20.7076 26.0193H21.6143C21.6303 26.0193 21.6463 26.0353 21.6463 26.0567C21.6463 26.0833 21.6303 26.0993 21.6143 26.0993H20.7076C20.6916 26.0993 20.6756 26.0833 20.6756 26.0567C20.6756 26.0353 20.6916 26.0193 20.7129 26.0193H20.7076Z" fill="#FFFF00" stroke="black" stroke-width="0.0266667"/>
<path d="M21.0383 26.014C21.0383 25.838 21.161 25.79 21.161 25.79C21.161 25.79 21.2836 25.8433 21.2836 26.014H21.0383ZM20.729 25.534H21.5983C21.6143 25.534 21.6303 25.5553 21.6303 25.5767C21.6303 25.5927 21.6143 25.6087 21.5983 25.6087H20.729C20.713 25.6087 20.697 25.5927 20.697 25.5713C20.697 25.5553 20.713 25.5393 20.729 25.5393V25.534ZM20.7503 25.614H21.5716C21.5876 25.614 21.6036 25.63 21.6036 25.6513C21.6036 25.6727 21.5876 25.6887 21.5716 25.6887H20.745C20.7236 25.6887 20.713 25.6727 20.713 25.6513C20.713 25.63 20.7236 25.614 20.745 25.614H20.7503ZM21.017 25.0487H21.081V25.0913H21.129V25.0487H21.1983V25.0967H21.2463V25.0433H21.3103V25.15C21.3103 25.1713 21.2996 25.182 21.2836 25.182H21.049C21.033 25.182 21.017 25.1713 21.017 25.1553V25.0487ZM21.2623 25.1927L21.2783 25.534H21.049L21.065 25.1873H21.2623" fill="#FFFF00"/>
<path d="M21.2623 25.1927L21.2783 25.534H21.049L21.065 25.1873H21.2623M21.0383 26.014C21.0383 25.838 21.161 25.79 21.161 25.79C21.161 25.79 21.2836 25.8433 21.2836 26.014H21.0383ZM20.729 25.534H21.5983C21.6143 25.534 21.6303 25.5553 21.6303 25.5767C21.6303 25.5927 21.6143 25.6087 21.5983 25.6087H20.729C20.713 25.6087 20.697 25.5927 20.697 25.5713C20.697 25.5553 20.713 25.5393 20.729 25.5393V25.534ZM20.7503 25.614H21.5716C21.5876 25.614 21.6036 25.63 21.6036 25.6513C21.6036 25.6727 21.5876 25.6887 21.5716 25.6887H20.745C20.7236 25.6887 20.713 25.6727 20.713 25.6513C20.713 25.63 20.7236 25.614 20.745 25.614H20.7503ZM21.017 25.0487H21.081V25.0913H21.129V25.0487H21.1983V25.0967H21.2463V25.0433H21.3103V25.15C21.3103 25.1713 21.2996 25.182 21.2836 25.182H21.049C21.033 25.182 21.017 25.1713 21.017 25.1553V25.0487Z" stroke="black" stroke-width="0.0266667"/>
<path d="M20.9849 25.3527V25.534H20.7716V25.3527H20.9849Z" fill="#FFFF00" stroke="black" stroke-width="0.0266667"/>
<path d="M21.5502 25.3527V25.534H21.3369V25.3527H21.5502Z" fill="#FFFF00" stroke="black" stroke-width="0.0266667"/>
<path d="M20.7343 25.214H20.7983V25.2673H20.8463V25.214H20.9103V25.2673H20.9583V25.214H21.0223V25.3207C21.0223 25.342 21.0116 25.3527 20.9956 25.3527H20.7663C20.7578 25.3527 20.7496 25.3493 20.7436 25.3433C20.7376 25.3373 20.7343 25.3291 20.7343 25.3207V25.214Z" fill="#FFFF00" stroke="black" stroke-width="0.0266667"/>
<path d="M21.2996 25.214H21.3636V25.2673H21.4116V25.214H21.4756V25.2673H21.5236V25.214H21.5876V25.3207C21.5876 25.342 21.577 25.3527 21.561 25.3527H21.3316C21.3231 25.3527 21.315 25.3493 21.309 25.3433C21.303 25.3373 21.2996 25.3291 21.2996 25.3207V25.214Z" fill="#FFFF00" stroke="black" stroke-width="0.0266667"/>
<path d="M21.1396 25.2993C21.1396 25.2673 21.1876 25.2673 21.1876 25.2993V25.3847H21.1396V25.2993Z" fill="black"/>
<path d="M20.8569 25.4166C20.8569 25.3846 20.8996 25.3846 20.8996 25.4166V25.4806H20.8569V25.4166Z" fill="black"/>
<path d="M21.4223 25.4166C21.4223 25.3846 21.465 25.3846 21.465 25.4166V25.4806H21.4223V25.4166Z" fill="black"/>
<path d="M21.9049 28.6088C21.7005 28.3983 21.7979 28.2019 21.7979 28.2019C21.8017 28.1981 22.0125 28.0918 22.2206 28.2985L21.9087 28.6126" fill="#FFFF00"/>
<path d="M21.5236 28.4857L21.7357 28.7489L21.8935 28.59C21.6967 28.3946 21.8168 28.2131 21.8168 28.2131C21.8205 28.2093 22.0087 28.1031 22.1979 28.2835L22.3558 28.1245L22.0835 27.9143L21.5198 28.4819L21.5236 28.4857ZM21.7282 28.764L22.3671 28.1207C22.3783 28.1093 22.401 28.1093 22.4161 28.1243C22.435 28.1431 22.4351 28.1657 22.4238 28.1771L21.785 28.8204C21.7737 28.8318 21.7511 28.8319 21.7321 28.8131C21.717 28.798 21.7169 28.7754 21.7319 28.7603L21.7282 28.764Z" fill="#FFFF00" stroke="black" stroke-width="0.0266667"/>
<path d="M21.9574 28.5256C21.8325 28.4016 21.8849 28.2807 21.8849 28.2807C21.8849 28.2807 22.0092 28.2313 22.1303 28.3515L21.9574 28.5256ZM21.3988 28.4069L22.0114 27.79C22.0227 27.7787 22.0491 27.7824 22.0642 27.7974C22.0756 27.8087 22.0757 27.8313 22.0644 27.8427L21.4518 28.4595C21.4406 28.4709 21.4179 28.4709 21.4028 28.4559C21.3914 28.4446 21.3914 28.422 21.4026 28.4107L21.3988 28.4069ZM21.4706 28.4481L22.0494 27.8653C22.0607 27.854 22.0833 27.8539 22.0984 27.8689C22.1136 27.884 22.1136 27.9066 22.1024 27.9179L21.5199 28.5045C21.5048 28.5197 21.486 28.516 21.4708 28.5009C21.4557 28.4859 21.4519 28.4671 21.4669 28.4519L21.4706 28.4481ZM21.2574 27.8606L21.3025 27.8151L21.3328 27.8452L21.3666 27.8111L21.3363 27.7811L21.3852 27.7319L21.4192 27.7657L21.4531 27.7317L21.4152 27.6941L21.4603 27.6487L21.536 27.7238C21.5511 27.7389 21.5512 27.7539 21.5399 27.7653L21.3746 27.9318C21.3633 27.9432 21.3444 27.947 21.3331 27.9357L21.2574 27.8606ZM21.5325 27.7879L21.7859 28.0171L21.6243 28.1798L21.3896 27.9242L21.5287 27.7842" fill="#FFFF00"/>
<path d="M21.5325 27.7879L21.7859 28.0171L21.6243 28.1798L21.3896 27.9242L21.5287 27.7842M21.9574 28.5256C21.8325 28.4016 21.8849 28.2807 21.8849 28.2807C21.8849 28.2807 22.0092 28.2313 22.1303 28.3515L21.9574 28.5256ZM21.3988 28.4069L22.0114 27.79C22.0227 27.7787 22.0491 27.7824 22.0642 27.7974C22.0756 27.8087 22.0757 27.8313 22.0644 27.8427L21.4518 28.4595C21.4406 28.4709 21.4179 28.4709 21.4028 28.4559C21.3914 28.4446 21.3914 28.422 21.4026 28.4107L21.3988 28.4069ZM21.4706 28.4481L22.0494 27.8653C22.0607 27.854 22.0833 27.8539 22.0984 27.8689C22.1136 27.884 22.1136 27.9066 22.1024 27.9179L21.5199 28.5045C21.5048 28.5197 21.486 28.516 21.4708 28.5009C21.4557 28.4859 21.4519 28.4671 21.4669 28.4519L21.4706 28.4481ZM21.2574 27.8606L21.3025 27.8151L21.3328 27.8452L21.3666 27.8111L21.3363 27.7811L21.3852 27.7319L21.4192 27.7657L21.4531 27.7317L21.4152 27.6941L21.4603 27.6487L21.536 27.7238C21.5511 27.7389 21.5512 27.7539 21.5399 27.7653L21.3746 27.9318C21.3633 27.9432 21.3444 27.947 21.3331 27.9357L21.2574 27.8606Z" stroke="black" stroke-width="0.0266667"/>
<path d="M21.4506 28.0975L21.5792 28.2252L21.4289 28.3766L21.3002 28.2488L21.4506 28.0975Z" fill="#FFFF00" stroke="black" stroke-width="0.0266667"/>
<path d="M21.8489 27.6963L21.9776 27.8241L21.8273 27.9755L21.6986 27.8477L21.8489 27.6963Z" fill="#FFFF00" stroke="black" stroke-width="0.0266667"/>
<path d="M21.1755 28.1777L21.2206 28.1323L21.2585 28.1698L21.2923 28.1358L21.2545 28.0982L21.2996 28.0528L21.3374 28.0904L21.3712 28.0563L21.3334 28.0187L21.3785 27.9733L21.4542 28.0485C21.4693 28.0635 21.4694 28.0786 21.4581 28.0899L21.2965 28.2527C21.2905 28.2587 21.2824 28.2621 21.2739 28.2621C21.2654 28.2622 21.2572 28.2588 21.2512 28.2528L21.1755 28.1777Z" fill="#FFFF00" stroke="black" stroke-width="0.0266667"/>
<path d="M21.5739 27.7765L21.619 27.7311L21.6569 27.7687L21.6907 27.7346L21.6528 27.697L21.6979 27.6516L21.7358 27.6892L21.7696 27.6551L21.7318 27.6175L21.7768 27.5721L21.8525 27.6473C21.8677 27.6623 21.8677 27.6774 21.8565 27.6888L21.6949 27.8515C21.6889 27.8575 21.6807 27.8609 21.6723 27.8609C21.6638 27.861 21.6556 27.8576 21.6496 27.8517L21.5739 27.7765Z" fill="#FFFF00" stroke="black" stroke-width="0.0266667"/>
<path d="M21.5217 27.9501C21.499 27.9276 21.5328 27.8935 21.5555 27.9161L21.616 27.9762L21.5822 28.0103L21.5217 27.9501Z" fill="black"/>
<path d="M21.4058 28.2334C21.3831 28.2109 21.4131 28.1806 21.4358 28.2031L21.4812 28.2482L21.4512 28.2785L21.4058 28.2334Z" fill="black"/>
<path d="M21.8041 27.8323C21.7814 27.8097 21.8115 27.7795 21.8342 27.802L21.8796 27.8471L21.8496 27.8774L21.8041 27.8323Z" fill="black"/>
<path d="M23.3798 23.5659C23.3851 23.2726 23.5931 23.2032 23.5931 23.2032C23.5984 23.2032 23.8224 23.2779 23.8224 23.5712H23.3798" fill="#FFFF00"/>
<path d="M23.1984 23.2086L23.161 23.5446H23.385C23.385 23.2672 23.5984 23.2246 23.5984 23.2246C23.6037 23.2246 23.8117 23.2832 23.817 23.5446H24.041L23.9984 23.2032H23.1984V23.2086ZM23.145 23.5499H24.0517C24.0677 23.5499 24.0837 23.5659 24.0837 23.5872C24.0837 23.6139 24.0677 23.6299 24.0517 23.6299H23.145C23.129 23.6299 23.113 23.6139 23.113 23.5872C23.113 23.5659 23.129 23.5499 23.1504 23.5499H23.145Z" fill="#FFFF00" stroke="black" stroke-width="0.0266667"/>
<path d="M23.4757 23.5446C23.4757 23.3686 23.5984 23.3206 23.5984 23.3206C23.5984 23.3206 23.7211 23.3739 23.7211 23.5446H23.4757ZM23.1664 23.0646H24.0357C24.0517 23.0646 24.0677 23.0859 24.0677 23.1072C24.0677 23.1232 24.0517 23.1392 24.0357 23.1392H23.1664C23.1504 23.1392 23.1344 23.1232 23.1344 23.1019C23.1344 23.0859 23.1504 23.0699 23.1664 23.0699V23.0646ZM23.1877 23.1446H24.0091C24.0251 23.1446 24.0411 23.1606 24.0411 23.1819C24.0411 23.2032 24.0251 23.2192 24.0091 23.2192H23.1824C23.1611 23.2192 23.1504 23.2032 23.1504 23.1819C23.1504 23.1606 23.1611 23.1446 23.1824 23.1446H23.1877ZM23.4544 22.5792H23.5184V22.6219H23.5664V22.5792H23.6357V22.6272H23.6837V22.5739H23.7477V22.6806C23.7477 22.7019 23.7371 22.7126 23.7211 22.7126H23.4864C23.4704 22.7126 23.4544 22.7019 23.4544 22.6859V22.5792ZM23.6997 22.7232L23.7157 23.0646H23.4864L23.5024 22.7179H23.6997" fill="#FFFF00"/>
<path d="M23.6997 22.7232L23.7157 23.0646H23.4864L23.5024 22.7179H23.6997M23.4757 23.5446C23.4757 23.3686 23.5984 23.3206 23.5984 23.3206C23.5984 23.3206 23.7211 23.3739 23.7211 23.5446H23.4757ZM23.1664 23.0646H24.0357C24.0517 23.0646 24.0677 23.0859 24.0677 23.1072C24.0677 23.1232 24.0517 23.1392 24.0357 23.1392H23.1664C23.1504 23.1392 23.1344 23.1232 23.1344 23.1019C23.1344 23.0859 23.1504 23.0699 23.1664 23.0699V23.0646ZM23.1877 23.1446H24.0091C24.0251 23.1446 24.0411 23.1606 24.0411 23.1819C24.0411 23.2032 24.0251 23.2192 24.0091 23.2192H23.1824C23.1611 23.2192 23.1504 23.2032 23.1504 23.1819C23.1504 23.1606 23.1611 23.1446 23.1824 23.1446H23.1877ZM23.4544 22.5792H23.5184V22.6219H23.5664V22.5792H23.6357V22.6272H23.6837V22.5739H23.7477V22.6806C23.7477 22.7019 23.7371 22.7126 23.7211 22.7126H23.4864C23.4704 22.7126 23.4544 22.7019 23.4544 22.6859V22.5792Z" stroke="black" stroke-width="0.0266667"/>
<path d="M23.4224 22.8832V23.0646H23.209V22.8832H23.4224Z" fill="#FFFF00" stroke="black" stroke-width="0.0266667"/>
<path d="M23.9877 22.8832V23.0646H23.7744V22.8832H23.9877Z" fill="#FFFF00" stroke="black" stroke-width="0.0266667"/>
<path d="M23.1718 22.7446H23.2358V22.7979H23.2838V22.7446H23.3478V22.7979H23.3958V22.7446H23.4598V22.8512C23.4598 22.8726 23.4491 22.8832 23.4331 22.8832H23.2038C23.1953 22.8832 23.1871 22.8799 23.1811 22.8739C23.1751 22.8679 23.1718 22.8597 23.1718 22.8512V22.7446Z" fill="#FFFF00" stroke="black" stroke-width="0.0266667"/>
<path d="M23.7371 22.7446H23.8011V22.7979H23.8491V22.7446H23.9131V22.7979H23.9611V22.7446H24.0251V22.8512C24.0251 22.8726 24.0144 22.8832 23.9984 22.8832H23.7691C23.7606 22.8832 23.7524 22.8799 23.7464 22.8739C23.7404 22.8679 23.7371 22.8597 23.7371 22.8512V22.7446Z" fill="#FFFF00" stroke="black" stroke-width="0.0266667"/>
<path d="M23.5771 22.8299C23.5771 22.7979 23.6251 22.7979 23.6251 22.8299V22.9152H23.5771V22.8299Z" fill="black"/>
<path d="M23.2944 22.9473C23.2944 22.9153 23.337 22.9153 23.337 22.9473V23.0113H23.2944V22.9473Z" fill="black"/>
<path d="M23.8597 22.9473C23.8597 22.9153 23.9024 22.9153 23.9024 22.9473V23.0113H23.8597V22.9473Z" fill="black"/>
<path d="M26.2437 23.5659C26.2384 23.2726 26.0304 23.2032 26.0304 23.2032C26.025 23.2032 25.801 23.2779 25.801 23.5712H26.2437" fill="#FFFF00"/>
<path d="M26.425 23.2086L26.4624 23.5446H26.2384C26.2384 23.2672 26.025 23.2246 26.025 23.2246C26.0197 23.2246 25.8117 23.2832 25.8064 23.5446H25.5824L25.625 23.2032H26.425V23.2086ZM26.4784 23.5499H25.5717C25.5557 23.5499 25.5397 23.5659 25.5397 23.5872C25.5397 23.6139 25.5557 23.6299 25.5717 23.6299H26.4784C26.4944 23.6299 26.5104 23.6139 26.5104 23.5872C26.5104 23.5659 26.4944 23.5499 26.473 23.5499H26.4784Z" fill="#FFFF00" stroke="black" stroke-width="0.0266667"/>
<path d="M26.1477 23.5446C26.1477 23.3686 26.0251 23.3206 26.0251 23.3206C26.0251 23.3206 25.9024 23.3739 25.9024 23.5446H26.1477ZM26.4571 23.0646H25.5877C25.5717 23.0646 25.5557 23.0859 25.5557 23.1072C25.5557 23.1232 25.5717 23.1392 25.5877 23.1392H26.4571C26.4731 23.1392 26.4891 23.1232 26.4891 23.1019C26.4891 23.0859 26.4731 23.0699 26.4571 23.0699V23.0646ZM26.4357 23.1446H25.6144C25.5984 23.1446 25.5824 23.1606 25.5824 23.1819C25.5824 23.2032 25.5984 23.2192 25.6144 23.2192H26.4411C26.4624 23.2192 26.4731 23.2032 26.4731 23.1819C26.4731 23.1606 26.4624 23.1446 26.4411 23.1446H26.4357ZM26.1691 22.5792H26.1051V22.6219H26.0571V22.5792H25.9877V22.6272H25.9397V22.5739H25.8757V22.6806C25.8757 22.7019 25.8864 22.7126 25.9024 22.7126H26.1371C26.1531 22.7126 26.1691 22.7019 26.1691 22.6859V22.5792ZM25.9237 22.7232L25.9077 23.0646H26.1371L26.1211 22.7179H25.9237" fill="#FFFF00"/>
<path d="M25.9237 22.7232L25.9077 23.0646H26.1371L26.1211 22.7179H25.9237M26.1477 23.5446C26.1477 23.3686 26.0251 23.3206 26.0251 23.3206C26.0251 23.3206 25.9024 23.3739 25.9024 23.5446H26.1477ZM26.4571 23.0646H25.5877C25.5717 23.0646 25.5557 23.0859 25.5557 23.1072C25.5557 23.1232 25.5717 23.1392 25.5877 23.1392H26.4571C26.4731 23.1392 26.4891 23.1232 26.4891 23.1019C26.4891 23.0859 26.4731 23.0699 26.4571 23.0699V23.0646ZM26.4357 23.1446H25.6144C25.5984 23.1446 25.5824 23.1606 25.5824 23.1819C25.5824 23.2032 25.5984 23.2192 25.6144 23.2192H26.4411C26.4624 23.2192 26.4731 23.2032 26.4731 23.1819C26.4731 23.1606 26.4624 23.1446 26.4411 23.1446H26.4357ZM26.1691 22.5792H26.1051V22.6219H26.0571V22.5792H25.9877V22.6272H25.9397V22.5739H25.8757V22.6806C25.8757 22.7019 25.8864 22.7126 25.9024 22.7126H26.1371C26.1531 22.7126 26.1691 22.7019 26.1691 22.6859V22.5792Z" stroke="black" stroke-width="0.0266667"/>
<path d="M26.2011 22.8832V23.0646H26.4144V22.8832H26.2011Z" fill="#FFFF00" stroke="black" stroke-width="0.0266667"/>
<path d="M25.6357 22.8832V23.0646H25.8491V22.8832H25.6357Z" fill="#FFFF00" stroke="black" stroke-width="0.0266667"/>
<path d="M26.4517 22.7446H26.3877V22.7979H26.3397V22.7446H26.2757V22.7979H26.2277V22.7446H26.1637V22.8512C26.1637 22.8726 26.1744 22.8832 26.1904 22.8832H26.4197C26.4282 22.8832 26.4363 22.8799 26.4423 22.8739C26.4483 22.8679 26.4517 22.8597 26.4517 22.8512V22.7446Z" fill="#FFFF00" stroke="black" stroke-width="0.0266667"/>
<path d="M25.8864 22.7446H25.8224V22.7979H25.7744V22.7446H25.7104V22.7979H25.6624V22.7446H25.5984V22.8512C25.5984 22.8726 25.6091 22.8832 25.6251 22.8832H25.8544C25.8629 22.8832 25.871 22.8799 25.877 22.8739C25.883 22.8679 25.8864 22.8597 25.8864 22.8512V22.7446Z" fill="#FFFF00" stroke="black" stroke-width="0.0266667"/>
<path d="M26.0464 22.8299C26.0464 22.7979 25.9984 22.7979 25.9984 22.8299V22.9152H26.0464V22.8299Z" fill="black"/>
<path d="M26.3291 22.9473C26.3291 22.9153 26.2864 22.9153 26.2864 22.9473V23.0113H26.3291V22.9473Z" fill="black"/>
<path d="M25.7637 22.9473C25.7637 22.9153 25.7211 22.9153 25.7211 22.9473V23.0113H25.7637V22.9473Z" fill="black"/>
<path d="M26.2437 26.0353C26.2384 25.742 26.0304 25.6727 26.0304 25.6727C26.025 25.6727 25.801 25.7473 25.801 26.0407H26.2437" fill="#FFFF00"/>
<path d="M26.425 25.678L26.4624 26.014H26.2384C26.2384 25.7367 26.025 25.694 26.025 25.694C26.0197 25.694 25.8117 25.7527 25.8064 26.014H25.5824L25.625 25.6727H26.425V25.678ZM26.4784 26.0193H25.5717C25.5557 26.0193 25.5397 26.0353 25.5397 26.0567C25.5397 26.0833 25.5557 26.0993 25.5717 26.0993H26.4784C26.4944 26.0993 26.5104 26.0833 26.5104 26.0567C26.5104 26.0353 26.4944 26.0193 26.473 26.0193H26.4784Z" fill="#FFFF00" stroke="black" stroke-width="0.0266667"/>
<path d="M26.1477 26.014C26.1477 25.838 26.0251 25.79 26.0251 25.79C26.0251 25.79 25.9024 25.8433 25.9024 26.014H26.1477ZM26.4571 25.534H25.5877C25.5717 25.534 25.5557 25.5553 25.5557 25.5767C25.5557 25.5927 25.5717 25.6087 25.5877 25.6087H26.4571C26.4731 25.6087 26.4891 25.5927 26.4891 25.5713C26.4891 25.5553 26.4731 25.5393 26.4571 25.5393V25.534ZM26.4357 25.614H25.6144C25.5984 25.614 25.5824 25.63 25.5824 25.6513C25.5824 25.6727 25.5984 25.6887 25.6144 25.6887H26.4411C26.4624 25.6887 26.4731 25.6727 26.4731 25.6513C26.4731 25.63 26.4624 25.614 26.4411 25.614H26.4357ZM26.1691 25.0487H26.1051V25.0913H26.0571V25.0487H25.9877V25.0967H25.9397V25.0433H25.8757V25.15C25.8757 25.1713 25.8864 25.182 25.9024 25.182H26.1371C26.1531 25.182 26.1691 25.1713 26.1691 25.1553V25.0487ZM25.9237 25.1927L25.9077 25.534H26.1371L26.1211 25.1873H25.9237" fill="#FFFF00"/>
<path d="M25.9237 25.1927L25.9077 25.534H26.1371L26.1211 25.1873H25.9237M26.1477 26.014C26.1477 25.838 26.0251 25.79 26.0251 25.79C26.0251 25.79 25.9024 25.8433 25.9024 26.014H26.1477ZM26.4571 25.534H25.5877C25.5717 25.534 25.5557 25.5553 25.5557 25.5767C25.5557 25.5927 25.5717 25.6087 25.5877 25.6087H26.4571C26.4731 25.6087 26.4891 25.5927 26.4891 25.5713C26.4891 25.5553 26.4731 25.5393 26.4571 25.5393V25.534ZM26.4357 25.614H25.6144C25.5984 25.614 25.5824 25.63 25.5824 25.6513C25.5824 25.6727 25.5984 25.6887 25.6144 25.6887H26.4411C26.4624 25.6887 26.4731 25.6727 26.4731 25.6513C26.4731 25.63 26.4624 25.614 26.4411 25.614H26.4357ZM26.1691 25.0487H26.1051V25.0913H26.0571V25.0487H25.9877V25.0967H25.9397V25.0433H25.8757V25.15C25.8757 25.1713 25.8864 25.182 25.9024 25.182H26.1371C26.1531 25.182 26.1691 25.1713 26.1691 25.1553V25.0487Z" stroke="black" stroke-width="0.0266667"/>
<path d="M26.2011 25.3527V25.534H26.4144V25.3527H26.2011Z" fill="#FFFF00" stroke="black" stroke-width="0.0266667"/>
<path d="M25.6357 25.3527V25.534H25.8491V25.3527H25.6357Z" fill="#FFFF00" stroke="black" stroke-width="0.0266667"/>
<path d="M26.4517 25.214H26.3877V25.2673H26.3397V25.214H26.2757V25.2673H26.2277V25.214H26.1637V25.3207C26.1637 25.342 26.1744 25.3527 26.1904 25.3527H26.4197C26.4282 25.3527 26.4363 25.3493 26.4423 25.3433C26.4483 25.3373 26.4517 25.3291 26.4517 25.3207V25.214Z" fill="#FFFF00" stroke="black" stroke-width="0.0266667"/>
<path d="M25.8864 25.214H25.8224V25.2673H25.7744V25.214H25.7104V25.2673H25.6624V25.214H25.5984V25.3207C25.5984 25.342 25.6091 25.3527 25.6251 25.3527H25.8544C25.8629 25.3527 25.871 25.3493 25.877 25.3433C25.883 25.3373 25.8864 25.3291 25.8864 25.3207V25.214Z" fill="#FFFF00" stroke="black" stroke-width="0.0266667"/>
<path d="M26.0464 25.2993C26.0464 25.2673 25.9984 25.2673 25.9984 25.2993V25.3847H26.0464V25.2993Z" fill="black"/>
<path d="M26.3291 25.4166C26.3291 25.3846 26.2864 25.3846 26.2864 25.4166V25.4806H26.3291V25.4166Z" fill="black"/>
<path d="M25.7637 25.4166C25.7637 25.3846 25.7211 25.3846 25.7211 25.4166V25.4806H25.7637V25.4166Z" fill="black"/>
<path d="M25.2812 28.6088C25.4856 28.3983 25.3882 28.2019 25.3882 28.2019C25.3844 28.1981 25.1736 28.0918 24.9655 28.2985L25.2774 28.6126" fill="#FFFF00"/>
<path d="M25.6625 28.4857L25.4504 28.7489L25.2926 28.59C25.4894 28.3946 25.3693 28.2131 25.3693 28.2131C25.3656 28.2093 25.1774 28.1031 24.9882 28.2835L24.8303 28.1245L25.1026 27.9143L25.6663 28.4819L25.6625 28.4857ZM25.4579 28.764L24.819 28.1207C24.8078 28.1093 24.7851 28.1093 24.77 28.1243C24.7511 28.1431 24.751 28.1657 24.7623 28.1771L25.4011 28.8204C25.4124 28.8318 25.435 28.8319 25.454 28.8131C25.4691 28.798 25.4692 28.7754 25.4541 28.7603L25.4579 28.764Z" fill="#FFFF00" stroke="black" stroke-width="0.0266667"/>
<path d="M25.2287 28.5256C25.3536 28.4016 25.3012 28.2807 25.3012 28.2807C25.3012 28.2807 25.1769 28.2313 25.0558 28.3515L25.2287 28.5256ZM25.7872 28.4069L25.1747 27.79C25.1634 27.7787 25.137 27.7824 25.1219 27.7974C25.1105 27.8087 25.1104 27.8313 25.1217 27.8427L25.7343 28.4595C25.7455 28.4709 25.7682 28.4709 25.7833 28.4559C25.7947 28.4446 25.7947 28.422 25.7835 28.4107L25.7872 28.4069ZM25.7154 28.4481L25.1367 27.8653C25.1254 27.854 25.1028 27.8539 25.0877 27.8689C25.0725 27.884 25.0725 27.9066 25.0837 27.9179L25.6662 28.5045C25.6813 28.5197 25.7001 28.516 25.7153 28.5009C25.7304 28.4859 25.7342 28.4671 25.7192 28.4519L25.7154 28.4481ZM25.9287 27.8606L25.8836 27.8151L25.8533 27.8452L25.8195 27.8111L25.8498 27.7811L25.8009 27.7319L25.7669 27.7657L25.733 27.7317L25.7709 27.6941L25.7258 27.6487L25.6501 27.7238C25.635 27.7389 25.6349 27.7539 25.6462 27.7653L25.8115 27.9318C25.8228 27.9432 25.8417 27.947 25.853 27.9357L25.9287 27.8606ZM25.6536 27.7879L25.4002 28.0171L25.5618 28.1798L25.7965 27.9242L25.6574 27.7842" fill="#FFFF00"/>
<path d="M25.6536 27.7879L25.4002 28.0171L25.5618 28.1798L25.7965 27.9242L25.6574 27.7842M25.2287 28.5256C25.3536 28.4016 25.3012 28.2807 25.3012 28.2807C25.3012 28.2807 25.1769 28.2313 25.0558 28.3515L25.2287 28.5256ZM25.7872 28.4069L25.1747 27.79C25.1634 27.7787 25.137 27.7824 25.1219 27.7974C25.1105 27.8087 25.1104 27.8313 25.1217 27.8427L25.7343 28.4595C25.7455 28.4709 25.7682 28.4709 25.7833 28.4559C25.7947 28.4446 25.7947 28.422 25.7835 28.4107L25.7872 28.4069ZM25.7154 28.4481L25.1367 27.8653C25.1254 27.854 25.1028 27.8539 25.0877 27.8689C25.0725 27.884 25.0725 27.9066 25.0837 27.9179L25.6662 28.5045C25.6813 28.5197 25.7001 28.516 25.7153 28.5009C25.7304 28.4859 25.7342 28.4671 25.7192 28.4519L25.7154 28.4481ZM25.9287 27.8606L25.8836 27.8151L25.8533 27.8452L25.8195 27.8111L25.8498 27.7811L25.8009 27.7319L25.7669 27.7657L25.733 27.7317L25.7709 27.6941L25.7258 27.6487L25.6501 27.7238C25.635 27.7389 25.6349 27.7539 25.6462 27.7653L25.8115 27.9318C25.8228 27.9432 25.8417 27.947 25.853 27.9357L25.9287 27.8606Z" stroke="black" stroke-width="0.0266667"/>
<path d="M25.7355 28.0975L25.6069 28.2252L25.7572 28.3766L25.8859 28.2488L25.7355 28.0975Z" fill="#FFFF00" stroke="black" stroke-width="0.0266667"/>
<path d="M25.3372 27.6963L25.2085 27.8241L25.3588 27.9755L25.4875 27.8477L25.3372 27.6963Z" fill="#FFFF00" stroke="black" stroke-width="0.0266667"/>
<path d="M26.0106 28.1777L25.9655 28.1323L25.9276 28.1698L25.8938 28.1358L25.9316 28.0982L25.8865 28.0528L25.8487 28.0904L25.8149 28.0563L25.8527 28.0187L25.8076 27.9733L25.7319 28.0485C25.7168 28.0635 25.7167 28.0786 25.728 28.0899L25.8896 28.2527C25.8956 28.2587 25.9037 28.2621 25.9122 28.2621C25.9207 28.2622 25.9288 28.2588 25.9349 28.2528L26.0106 28.1777Z" fill="#FFFF00" stroke="black" stroke-width="0.0266667"/>
<path d="M25.6122 27.7765L25.5671 27.7311L25.5292 27.7687L25.4954 27.7346L25.5333 27.697L25.4882 27.6516L25.4503 27.6892L25.4165 27.6551L25.4543 27.6175L25.4092 27.5721L25.3336 27.6473C25.3184 27.6623 25.3184 27.6774 25.3296 27.6888L25.4912 27.8515C25.4972 27.8575 25.5053 27.8609 25.5138 27.8609C25.5223 27.861 25.5305 27.8576 25.5365 27.8517L25.6122 27.7765Z" fill="#FFFF00" stroke="black" stroke-width="0.0266667"/>
<path d="M25.6644 27.9501C25.6871 27.9276 25.6533 27.8935 25.6305 27.9161L25.57 27.9762L25.6038 28.0103L25.6644 27.9501Z" fill="black"/>
<path d="M25.7803 28.2334C25.803 28.2109 25.7729 28.1806 25.7502 28.2031L25.7048 28.2482L25.7349 28.2785L25.7803 28.2334Z" fill="black"/>
<path d="M25.382 27.8323C25.4047 27.8097 25.3746 27.7795 25.3519 27.802L25.3065 27.8471L25.3365 27.8774L25.382 27.8323Z" fill="black"/>
<path d="M23.2038 26.126C23.2028 26.2386 23.2447 26.3473 23.3211 26.43C23.3567 26.4698 23.4002 26.5018 23.4489 26.5238C23.4976 26.5459 23.5503 26.5575 23.6038 26.558C23.7158 26.558 23.8171 26.5047 23.8864 26.43C23.9628 26.3473 24.0047 26.2386 24.0038 26.126V25.55H23.2038V26.126Z" fill="#003399"/>
<path d="M23.3904 25.8487C23.4346 25.8487 23.4704 25.8128 23.4704 25.7687C23.4704 25.7245 23.4346 25.6887 23.3904 25.6887C23.3462 25.6887 23.3104 25.7245 23.3104 25.7687C23.3104 25.8128 23.3462 25.8487 23.3904 25.8487Z" fill="white"/>
<path d="M23.8331 25.8487C23.8772 25.8487 23.9131 25.8128 23.9131 25.7687C23.9131 25.7245 23.8772 25.6887 23.8331 25.6887C23.7889 25.6887 23.7531 25.7245 23.7531 25.7687C23.7531 25.8128 23.7889 25.8487 23.8331 25.8487Z" fill="white"/>
<path d="M23.6091 26.062C23.6532 26.062 23.6891 26.0262 23.6891 25.982C23.6891 25.9378 23.6532 25.902 23.6091 25.902C23.5649 25.902 23.5291 25.9378 23.5291 25.982C23.5291 26.0262 23.5649 26.062 23.6091 26.062Z" fill="white"/>
<path d="M23.3904 26.286C23.4346 26.286 23.4704 26.2502 23.4704 26.206C23.4704 26.1618 23.4346 26.126 23.3904 26.126C23.3462 26.126 23.3104 26.1618 23.3104 26.206C23.3104 26.2502 23.3462 26.286 23.3904 26.286Z" fill="white"/>
<path d="M23.8331 26.286C23.8772 26.286 23.9131 26.2502 23.9131 26.206C23.9131 26.1618 23.8772 26.126 23.8331 26.126C23.7889 26.126 23.7531 26.1618 23.7531 26.206C23.7531 26.2502 23.7889 26.286 23.8331 26.286Z" fill="white"/>
<path d="M23.2038 24.7393C23.2028 24.8519 23.2447 24.9606 23.3211 25.0433C23.3567 25.0832 23.4002 25.1151 23.4489 25.1372C23.4976 25.1592 23.5503 25.1708 23.6038 25.1713C23.7158 25.1713 23.8171 25.118 23.8864 25.0433C23.9628 24.9606 24.0047 24.8519 24.0038 24.7393V24.1633H23.2038V24.7393Z" fill="#003399"/>
<path d="M23.3904 24.4619C23.4346 24.4619 23.4704 24.4261 23.4704 24.3819C23.4704 24.3378 23.4346 24.3019 23.3904 24.3019C23.3462 24.3019 23.3104 24.3378 23.3104 24.3819C23.3104 24.4261 23.3462 24.4619 23.3904 24.4619Z" fill="white"/>
<path d="M23.8331 24.4619C23.8772 24.4619 23.9131 24.4261 23.9131 24.3819C23.9131 24.3378 23.8772 24.3019 23.8331 24.3019C23.7889 24.3019 23.7531 24.3378 23.7531 24.3819C23.7531 24.4261 23.7889 24.4619 23.8331 24.4619Z" fill="white"/>
<path d="M23.6091 24.6753C23.6532 24.6753 23.6891 24.6394 23.6891 24.5953C23.6891 24.5511 23.6532 24.5153 23.6091 24.5153C23.5649 24.5153 23.5291 24.5511 23.5291 24.5953C23.5291 24.6394 23.5649 24.6753 23.6091 24.6753Z" fill="white"/>
<path d="M23.3904 24.8993C23.4346 24.8993 23.4704 24.8634 23.4704 24.8193C23.4704 24.7751 23.4346 24.7393 23.3904 24.7393C23.3462 24.7393 23.3104 24.7751 23.3104 24.8193C23.3104 24.8634 23.3462 24.8993 23.3904 24.8993Z" fill="white"/>
<path d="M23.8331 24.8993C23.8772 24.8993 23.9131 24.8634 23.9131 24.8193C23.9131 24.7751 23.8772 24.7393 23.8331 24.7393C23.7889 24.7393 23.7531 24.7751 23.7531 24.8193C23.7531 24.8634 23.7889 24.8993 23.8331 24.8993Z" fill="white"/>
<path d="M22.0944 26.126C22.0934 26.2386 22.1354 26.3473 22.2117 26.43C22.2473 26.4698 22.2909 26.5018 22.3395 26.5238C22.3882 26.5459 22.4409 26.5575 22.4944 26.558C22.6064 26.558 22.7077 26.5047 22.777 26.43C22.8534 26.3473 22.8953 26.2386 22.8944 26.126V25.55H22.0944V26.126Z" fill="#003399"/>
<path d="M22.281 25.8487C22.3252 25.8487 22.3611 25.8128 22.3611 25.7687C22.3611 25.7245 22.3252 25.6887 22.281 25.6887C22.2369 25.6887 22.201 25.7245 22.201 25.7687C22.201 25.8128 22.2369 25.8487 22.281 25.8487Z" fill="white"/>
<path d="M22.7237 25.8487C22.7679 25.8487 22.8037 25.8128 22.8037 25.7687C22.8037 25.7245 22.7679 25.6887 22.7237 25.6887C22.6796 25.6887 22.6437 25.7245 22.6437 25.7687C22.6437 25.8128 22.6796 25.8487 22.7237 25.8487Z" fill="white"/>
<path d="M22.4997 26.062C22.5439 26.062 22.5797 26.0262 22.5797 25.982C22.5797 25.9378 22.5439 25.902 22.4997 25.902C22.4556 25.902 22.4197 25.9378 22.4197 25.982C22.4197 26.0262 22.4556 26.062 22.4997 26.062Z" fill="white"/>
<path d="M22.281 26.286C22.3252 26.286 22.3611 26.2502 22.3611 26.206C22.3611 26.1618 22.3252 26.126 22.281 26.126C22.2369 26.126 22.201 26.1618 22.201 26.206C22.201 26.2502 22.2369 26.286 22.281 26.286Z" fill="white"/>
<path d="M22.7237 26.286C22.7679 26.286 22.8037 26.2502 22.8037 26.206C22.8037 26.1618 22.7679 26.126 22.7237 26.126C22.6796 26.126 22.6437 26.1618 22.6437 26.206C22.6437 26.2502 22.6796 26.286 22.7237 26.286Z" fill="white"/>
<path d="M24.3131 26.126C24.3121 26.2386 24.3541 26.3473 24.4304 26.43C24.466 26.4698 24.5096 26.5018 24.5582 26.5238C24.6069 26.5459 24.6596 26.5575 24.7131 26.558C24.8251 26.558 24.9264 26.5047 24.9957 26.43C25.0721 26.3473 25.114 26.2386 25.1131 26.126V25.55H24.3131V26.126Z" fill="#003399"/>
<path d="M24.4997 25.8487C24.5439 25.8487 24.5797 25.8128 24.5797 25.7687C24.5797 25.7245 24.5439 25.6887 24.4997 25.6887C24.4555 25.6887 24.4197 25.7245 24.4197 25.7687C24.4197 25.8128 24.4555 25.8487 24.4997 25.8487Z" fill="white"/>
<path d="M24.9424 25.8487C24.9865 25.8487 25.0224 25.8128 25.0224 25.7687C25.0224 25.7245 24.9865 25.6887 24.9424 25.6887C24.8982 25.6887 24.8624 25.7245 24.8624 25.7687C24.8624 25.8128 24.8982 25.8487 24.9424 25.8487Z" fill="white"/>
<path d="M24.7184 26.062C24.7625 26.062 24.7984 26.0262 24.7984 25.982C24.7984 25.9378 24.7625 25.902 24.7184 25.902C24.6742 25.902 24.6384 25.9378 24.6384 25.982C24.6384 26.0262 24.6742 26.062 24.7184 26.062Z" fill="white"/>
<path d="M24.4997 26.286C24.5439 26.286 24.5797 26.2502 24.5797 26.206C24.5797 26.1618 24.5439 26.126 24.4997 26.126C24.4555 26.126 24.4197 26.1618 24.4197 26.206C24.4197 26.2502 24.4555 26.286 24.4997 26.286Z" fill="white"/>
<path d="M24.9424 26.286C24.9865 26.286 25.0224 26.2502 25.0224 26.206C25.0224 26.1618 24.9865 26.126 24.9424 26.126C24.8982 26.126 24.8624 26.1618 24.8624 26.206C24.8624 26.2502 24.8982 26.286 24.9424 26.286Z" fill="white"/>
<path d="M23.2038 27.502C23.2028 27.6146 23.2447 27.7233 23.3211 27.806C23.3567 27.8459 23.4002 27.8778 23.4489 27.8998C23.4976 27.9219 23.5503 27.9335 23.6038 27.934C23.7158 27.934 23.8171 27.8807 23.8864 27.806C23.9628 27.7233 24.0047 27.6146 24.0038 27.502V26.926H23.2038V27.502Z" fill="#003399"/>
<path d="M23.3904 27.2248C23.4346 27.2248 23.4704 27.1889 23.4704 27.1448C23.4704 27.1006 23.4346 27.0648 23.3904 27.0648C23.3462 27.0648 23.3104 27.1006 23.3104 27.1448C23.3104 27.1889 23.3462 27.2248 23.3904 27.2248Z" fill="white"/>
<path d="M23.8331 27.2248C23.8772 27.2248 23.9131 27.1889 23.9131 27.1448C23.9131 27.1006 23.8772 27.0648 23.8331 27.0648C23.7889 27.0648 23.7531 27.1006 23.7531 27.1448C23.7531 27.1889 23.7889 27.2248 23.8331 27.2248Z" fill="white"/>
<path d="M23.6091 27.4381C23.6532 27.4381 23.6891 27.4023 23.6891 27.3581C23.6891 27.3139 23.6532 27.2781 23.6091 27.2781C23.5649 27.2781 23.5291 27.3139 23.5291 27.3581C23.5291 27.4023 23.5649 27.4381 23.6091 27.4381Z" fill="white"/>
<path d="M23.3904 27.6621C23.4346 27.6621 23.4704 27.6263 23.4704 27.5821C23.4704 27.5379 23.4346 27.5021 23.3904 27.5021C23.3462 27.5021 23.3104 27.5379 23.3104 27.5821C23.3104 27.6263 23.3462 27.6621 23.3904 27.6621Z" fill="white"/>
<path d="M23.8331 27.6621C23.8772 27.6621 23.9131 27.6263 23.9131 27.5821C23.9131 27.5379 23.8772 27.5021 23.8331 27.5021C23.7889 27.5021 23.7531 27.5379 23.7531 27.5821C23.7531 27.6263 23.7889 27.6621 23.8331 27.6621Z" fill="white"/>
</g>
</g>
</g>
<defs>
<filter id="filter0_d_552_6632" x="0" y="0" width="52" height="52" filterUnits="userSpaceOnUse" color-interpolation-filters="sRGB">
<feFlood flood-opacity="0" result="BackgroundImageFix"/>
<feColorMatrix in="SourceAlpha" type="matrix" values="0 0 0 0 0 0 0 0 0 0 0 0 0 0 0 0 0 0 127 0" result="hardAlpha"/>
<feMorphology radius="2" operator="dilate" in="SourceAlpha" result="effect1_dropShadow_552_6632"/>
<feOffset/>
<feGaussianBlur stdDeviation="6"/>
<feComposite in2="hardAlpha" operator="out"/>
<feColorMatrix type="matrix" values="0 0 0 0 0 0 0 0 0 0 0 0 0 0 0 0 0 0 0.08 0"/>
<feBlend mode="normal" in2="BackgroundImageFix" result="effect1_dropShadow_552_6632"/>
<feBlend mode="normal" in="SourceGraphic" in2="effect1_dropShadow_552_6632" result="shape"/>
</filter>
<clipPath id="clip0_552_6632">
<rect x="14" y="14" width="24" height="24" rx="6" fill="white"/>
</clipPath>
<clipPath id="clip1_552_6632">
<rect width="24" height="24" fill="white" transform="translate(14 14)"/>
</clipPath>
</defs>
</svg>
