<svg width="52" height="52" viewBox="0 0 52 52" fill="none" xmlns="http://www.w3.org/2000/svg">
<g filter="url(#filter0_d_552_10830)">
<g clip-path="url(#clip0_552_10830)">
<g clip-path="url(#clip1_552_10830)">
<mask id="mask0_552_10830" style="mask-type:luminance" maskUnits="userSpaceOnUse" x="13" y="14" width="25" height="24">
<path d="M13.9991 14H37.9954V37.9963H13.9991V14Z" fill="white"/>
</mask>
<g mask="url(#mask0_552_10830)">
<path fill-rule="evenodd" clip-rule="evenodd" d="M8.00006 14H43.9945V37.9963H8.00006V14Z" fill="#165D31"/>
<path fill-rule="evenodd" clip-rule="evenodd" d="M17.0712 20.8022C17.0325 21.3634 16.9793 22.3503 17.4583 22.4519C18.034 22.5051 17.7147 21.4746 17.9227 21.2908C17.9663 21.194 18.0388 21.194 18.0437 21.315V22.1858C18.0388 22.4761 18.2227 22.5535 18.3678 22.6164C18.5226 22.6019 18.6194 22.6067 18.6823 22.7519L18.75 24.2661C18.75 24.2661 19.1032 24.3629 19.1177 23.4147C19.1371 22.8583 19.0064 22.389 19.0838 22.2826C19.0838 22.1761 19.2193 22.1713 19.3161 22.2197C19.466 22.3261 19.5338 22.4616 19.766 22.4035C20.124 22.3068 20.3369 22.1326 20.3466 21.8617C20.3342 21.5948 20.2787 21.3318 20.1821 21.0828C20.1966 21.0344 20.1095 20.9134 20.1288 20.8651C20.1917 20.9618 20.2885 20.957 20.3127 20.8651C20.2498 20.6619 20.1579 20.4732 20.0031 20.3909C19.8773 20.2797 19.6934 20.3038 19.6257 20.5361C19.6178 20.841 19.7209 21.1385 19.916 21.373C19.9768 21.5045 20.0018 21.6497 19.9885 21.7939C19.8869 21.8568 19.7853 21.8278 19.6983 21.7407C19.6983 21.7407 19.4128 21.523 19.4128 21.4795C19.4902 20.9957 19.4322 20.9425 19.3886 20.807C19.3596 20.6232 19.2725 20.5651 19.2 20.4393C19.1274 20.3619 19.0355 20.3619 18.9871 20.4393C18.8613 20.657 18.9194 21.1215 19.0113 21.3295C19.079 21.523 19.1758 21.644 19.1274 21.644C19.0887 21.7504 19.0113 21.7262 18.9532 21.6004C18.8814 21.334 18.8472 21.0587 18.8516 20.7828C18.8274 20.5651 18.8032 20.1055 18.6581 19.9894C18.571 19.8733 18.4404 19.9313 18.3969 20.0378C18.3846 20.2475 18.3895 20.4578 18.4114 20.6667C18.5081 21.0054 18.5372 21.315 18.5855 21.6682C18.6 22.1423 18.3098 21.8762 18.3243 21.6391C18.392 21.3343 18.3727 20.8505 18.3146 20.7296C18.2662 20.6086 18.213 20.5796 18.1017 20.599C18.005 20.5893 17.7776 20.8409 17.7147 21.2666C17.7147 21.2666 17.6566 21.4843 17.6325 21.673C17.5986 21.8907 17.4583 22.0455 17.3567 21.644C17.2696 21.3537 17.2164 20.6328 17.0712 20.8022Z" fill="white"/>
<path fill-rule="evenodd" clip-rule="evenodd" d="M18.6387 23.1051L17.139 23.826C17.1535 23.4873 17.8502 22.8681 18.3243 22.8584C18.6339 22.8681 18.5565 22.9793 18.6387 23.1003V23.1051Z" fill="white"/>
<path fill-rule="evenodd" clip-rule="evenodd" d="M18.3775 23.5745C17.5841 25.6112 20.2256 25.8967 20.5207 23.6567C20.5498 23.5648 20.6659 23.4729 20.6804 23.6228C20.6175 25.6548 18.6388 25.7902 18.3001 25.1516C18.2179 25.0065 18.1937 24.6678 18.184 24.4646C18.1356 24.0679 17.9227 24.2227 17.8937 24.6195C17.8598 24.8372 17.8647 24.9001 17.8647 25.1129C17.9711 26.7095 20.5256 26.0225 20.9416 24.7017C21.1593 23.9712 20.9029 23.4293 21.0239 23.4293C21.2754 23.7051 21.6335 23.468 21.7109 23.3713C21.7447 23.3229 21.827 23.2939 21.885 23.3567C22.0786 23.5019 22.4317 23.4293 22.5043 23.1826C22.543 22.9358 22.5769 22.6843 22.5865 22.423C22.4269 22.4714 22.3059 22.5053 22.2963 22.5682L22.2624 22.7907C22.2479 22.8584 22.1076 22.8633 22.1027 22.7714C22.0398 22.4956 21.7883 22.4569 21.6335 22.8875C21.5319 22.9745 21.3432 22.9842 21.3238 22.8633C21.348 22.573 21.2319 22.5343 20.9997 22.6698L20.7723 20.9765C20.8691 20.9765 20.961 21.0442 21.0481 20.9329C20.9513 20.6281 20.7433 20.0137 20.632 19.9653C20.5739 19.8976 20.5304 19.9411 20.4578 19.9557C20.332 19.9944 20.2159 20.1008 20.2546 20.3088L20.6417 22.7375C20.661 22.8391 20.5739 22.9794 20.4627 22.9649C20.274 22.8342 20.2256 22.5778 19.9063 22.5875C19.6692 22.5875 19.4032 22.8439 19.3741 23.0907C19.3306 23.2842 19.3161 23.497 19.3741 23.6664C19.5338 23.8599 19.7321 23.8454 19.9063 23.797C20.0466 23.7389 20.1627 23.5986 20.2159 23.6325C20.2498 23.6761 20.2208 24.1405 19.5435 24.5033C19.1371 24.6872 18.8081 24.7259 18.6339 24.3921C18.5275 24.184 18.6436 23.3906 18.3775 23.5696V23.5745Z" fill="white"/>
<path fill-rule="evenodd" clip-rule="evenodd" d="M21.7302 21.4988C21.8899 21.4456 22.6398 20.5796 22.6398 20.5796L22.5285 20.4925C22.485 20.4538 22.4898 20.4199 22.5285 20.3812C22.7123 20.2748 22.6543 20.0329 22.5575 19.9264C22.4944 19.8949 22.4249 19.8785 22.3543 19.8785C22.2838 19.8785 22.2142 19.8949 22.1511 19.9264C22.0205 20.0571 21.9915 20.2554 22.0931 20.3812C22.1898 20.4296 22.2963 20.5263 22.2285 20.5844C21.9189 20.9134 21.0771 21.4794 21.1739 21.5036C21.1932 21.5278 21.7157 21.5278 21.7302 21.5036V21.4988ZM17.1874 24.5467C16.9068 24.9966 16.8826 25.6691 17.0422 25.8675C17.1196 25.9642 17.2551 26.0029 17.3567 25.9739C17.5357 25.8965 17.6131 25.5385 17.5696 25.4079C17.5115 25.3111 17.4631 25.3014 17.4051 25.3788C17.2793 25.6304 17.2261 25.4562 17.2164 25.3159C17.1971 25.0498 17.2212 24.7983 17.2503 24.6048C17.2841 24.4064 17.2503 24.4645 17.1874 24.5467ZM29.2388 23.821C28.9678 23.2356 28.5905 22.6551 28.4695 22.4325C28.1047 21.8548 27.7173 21.2915 27.3084 20.7441C27.0181 20.3957 27.7874 20.8892 27.2117 20.1974C26.9939 20.0038 26.9794 19.999 26.7956 19.8442C26.7037 19.7765 26.4811 19.6604 26.4424 19.8539C26.4232 19.9926 26.4297 20.1336 26.4618 20.2699C26.4811 20.3667 26.6214 20.5263 26.694 20.6231C27.6132 21.8568 28.4308 23.1098 29.2146 24.6773C29.3404 24.6193 29.3113 23.9226 29.2388 23.821Z" fill="white"/>
<path fill-rule="evenodd" clip-rule="evenodd" d="M28.0438 25.7901C27.9906 25.853 28.1744 26.1094 28.4163 26.1094C28.8227 26.061 29.1759 25.8336 29.5048 25.2386C29.5919 25.0934 29.7467 24.8032 29.7516 24.5661C29.7854 23.2115 29.6838 22.1568 29.4807 21.1795C29.471 21.0828 29.4807 20.9667 29.4952 20.9376C29.5194 20.9086 29.6064 20.9376 29.6548 20.8651C29.7226 20.7925 29.471 20.2071 29.3307 19.9845C29.2775 19.8829 29.2581 19.8152 29.1759 19.9942C29.0839 20.1394 29.0307 20.3958 29.0307 20.6328C29.2242 21.9681 29.2871 23.1389 29.4129 24.4693C29.4226 24.6 29.4032 24.7886 29.3162 24.8612C28.9623 25.2571 28.5287 25.5737 28.0438 25.7901ZM33.501 25.7853C33.2107 25.9498 33.2107 26.1433 33.4478 26.153C33.8493 26.1046 34.3283 26.0707 34.6573 25.5724C34.7444 25.4321 34.8508 25.0547 34.8556 24.8273C34.8847 23.4727 34.8363 22.4567 34.6331 21.4795C34.6234 21.3827 34.5799 21.165 34.5944 21.136C34.6234 21.0682 34.754 21.1408 34.8024 21.0634C34.8702 20.9957 34.4638 20.4683 34.3186 20.241C34.2654 20.1442 34.2461 20.0765 34.1638 20.2555C34.0719 20.4006 34.0429 20.6619 34.0767 20.8892C34.2944 22.3406 34.4541 23.4292 34.4831 24.7112C34.4686 24.837 34.4638 24.9048 34.4057 25.0547C34.2799 25.2192 34.1396 25.4224 34.0042 25.5192C33.8735 25.6159 33.5929 25.7127 33.501 25.7853Z" fill="white"/>
<path fill-rule="evenodd" clip-rule="evenodd" d="M33.7187 24.4838V23.5984C33.7149 23.3778 33.6655 23.1604 33.5735 22.9598C33.4865 22.7663 33.5397 22.6163 33.501 22.4083C33.4623 22.2051 33.4719 21.8955 33.4139 21.6536C33.3945 21.5568 33.3462 21.2569 33.3655 21.2278C33.3849 21.1601 33.4768 21.2278 33.5203 21.1504C33.5881 21.0779 33.2881 20.3038 33.1381 20.0861C33.0849 19.9893 32.9881 20.0183 32.8624 20.1828C32.7511 20.2844 32.7946 20.5263 32.8382 20.7537C33.1284 22.268 33.3413 23.642 33.2978 25.0789C33.2833 25.2047 33.7235 24.716 33.7187 24.4838ZM31.5755 22.6067C31.3965 22.6067 31.0143 22.2487 30.8981 22.0455C30.8814 21.9965 30.8749 21.9446 30.879 21.893C30.8832 21.8414 30.8979 21.7912 30.9223 21.7455C30.9901 21.6971 31.0965 21.6487 31.1739 21.6971C31.1739 21.6971 31.2513 21.8132 31.2368 21.8277C31.3336 21.8761 31.3819 21.8471 31.3916 21.8036C31.3965 21.7358 31.3578 21.6923 31.3578 21.61C31.4061 21.402 31.648 21.3681 31.7351 21.5036C31.8028 21.5859 31.827 21.76 31.8367 21.881C31.8367 21.939 31.74 21.8665 31.6819 21.881C31.6287 21.9003 31.6142 21.9632 31.6093 22.0213C31.5997 22.1761 31.5803 22.4228 31.5755 22.6018V22.6067ZM28.2082 24.8612C28.2566 24.3967 28.1937 23.5791 28.1889 23.3082C28.1695 22.6647 28.0631 21.4214 28.0147 21.2182C27.9567 20.8263 28.1744 21.2617 28.1453 21.0343C28.0728 20.6473 27.8551 20.3764 27.6035 20.0183C27.5212 19.9071 27.5261 19.8829 27.3955 20.0474C27.26 20.3667 27.3809 20.5844 27.4148 20.8311C27.5986 21.6391 27.7051 22.3793 27.7535 23.1146C27.8077 23.8795 27.8141 24.647 27.7728 25.4127C27.9131 25.4224 28.1357 25.1901 28.2082 24.8612Z" fill="white"/>
<path fill-rule="evenodd" clip-rule="evenodd" d="M34.3428 24.121C34.0186 23.584 33.5348 22.9986 33.4042 22.7809C32.971 22.1728 32.516 21.5805 32.0399 21.0053C31.6384 20.5844 32.2238 20.9376 31.9625 20.6135C31.74 20.3716 31.6722 20.2942 31.4884 20.149C31.3916 20.0861 31.3336 19.97 31.3045 20.1684C31.29 20.3425 31.2804 20.5457 31.29 20.6957C31.29 20.778 31.3771 20.9279 31.4497 21.0199C32.4173 22.2148 33.4816 23.4388 34.3379 24.9725C34.4589 24.9047 34.4202 24.2178 34.3379 24.121H34.3428Z" fill="white"/>
<path fill-rule="evenodd" clip-rule="evenodd" d="M19.7467 23.1243C19.7225 23.1679 19.6692 23.2211 19.6886 23.2695C19.7273 23.3179 19.7563 23.3324 19.8144 23.3372C19.8628 23.3372 19.9402 23.3469 19.9547 23.3179C19.9721 23.2965 19.9836 23.271 19.9878 23.2437C19.9921 23.2165 19.989 23.1887 19.9789 23.163C19.9305 23.0276 19.7757 23.076 19.7467 23.1243Z" fill="#165D31"/>
<path fill-rule="evenodd" clip-rule="evenodd" d="M30.6031 30.9958C31.0336 31.0103 31.3142 31.0151 31.6964 31.0587L32.1415 31.0103C32.6398 30.9619 32.664 31.7215 32.664 31.7215C32.6592 32.1665 32.485 32.1859 32.2673 32.2343C32.1415 32.2536 32.0738 32.1617 32.0109 32.0649C31.9287 32.0988 31.8174 32.1037 31.6771 32.0843C31.4981 32.0746 31.3191 32.0746 31.1449 32.0601C30.9514 32.0456 30.8498 32.0843 30.6611 32.0649C30.6176 32.1278 30.5644 32.2101 30.4531 32.1859C30.3563 32.1762 30.2402 31.9005 30.2741 31.6973C30.3418 31.5473 30.3225 31.5957 30.3176 31.5279C28.5566 31.4844 26.7859 31.407 25.0588 31.4312C23.7041 31.4312 22.3737 31.4892 21.0432 31.5473C20.3321 31.5376 19.7854 31.4215 19.4128 30.87C19.4467 30.87 21.2271 30.9764 21.7447 30.9425C22.7123 30.928 23.588 30.8506 24.5701 30.8216C26.5053 30.8555 28.4163 30.8555 30.3515 30.9909C30.1676 30.8651 30.158 30.5652 30.4482 30.4926C30.4676 30.4781 30.4821 30.6377 30.5257 30.6377C30.7482 30.6232 30.6514 30.928 30.6031 30.9958ZM22.843 20.3377C22.5527 21.1747 23.0075 22.0891 23.3268 22.002C23.559 22.0987 23.7041 21.6585 23.8009 21.1795C23.8638 21.0441 23.9122 21.0295 23.946 21.0973C23.9363 21.7359 23.9944 21.8762 24.1589 22.0697C24.2535 22.1542 24.3753 22.2021 24.5021 22.2048C24.629 22.2074 24.7526 22.1647 24.8507 22.0842L25.1362 21.7939C25.1991 21.731 25.2813 21.7262 25.3732 21.7843C25.4603 21.8665 25.4458 22.002 25.6345 22.0987C25.7893 22.1616 26.1279 22.1132 26.2053 21.9778C26.3069 21.7988 26.336 21.7359 26.3844 21.6682C26.4569 21.5714 26.5827 21.6101 26.5827 21.644C26.573 21.6972 26.5005 21.7552 26.5488 21.852C26.6359 21.9197 26.6601 21.8762 26.7133 21.8617C26.8972 21.7746 27.0375 21.3682 27.0375 21.3682C27.0423 21.2231 26.9601 21.2327 26.9069 21.2618L26.7617 21.3634C26.665 21.3779 26.4908 21.4359 26.4037 21.3005C26.3166 21.1408 26.3118 20.9134 26.2441 20.7489C26.2441 20.7393 26.1279 20.4925 26.2392 20.478C26.2924 20.4877 26.4134 20.5167 26.4327 20.42C26.4908 20.3232 26.3069 20.0474 26.1812 19.9071C26.0747 19.791 25.9199 19.7765 25.7748 19.8975C25.678 19.9942 25.6877 20.091 25.6683 20.1926C25.6516 20.2632 25.6516 20.3367 25.6684 20.4073C25.6852 20.4778 25.7183 20.5435 25.7651 20.599C25.8667 20.7973 26.0554 21.0537 25.9925 21.4214C25.9925 21.4214 25.8812 21.5907 25.6925 21.5666C25.6151 21.5472 25.4893 21.5182 25.4216 21.015C25.3732 20.6328 25.4313 20.1007 25.2716 19.8539C25.2136 19.6991 25.1749 19.554 25.0297 19.8152C24.991 19.912 24.8265 20.0668 24.9426 20.3861C25.0533 20.6673 25.0867 20.973 25.0394 21.2714C24.9717 21.373 24.9572 21.4117 24.8652 21.5133C24.7443 21.644 24.6088 21.6101 24.5072 21.5617C24.4105 21.4988 24.3331 21.465 24.2895 21.2569C24.2992 20.9279 24.3137 20.3909 24.2556 20.2748C24.1686 20.1007 24.0234 20.1635 23.9605 20.2168C23.6798 20.5281 23.4921 20.9119 23.4187 21.3247C23.3364 21.5907 23.2494 21.5182 23.1865 21.4069C23.0365 21.2618 23.0268 20.1539 22.843 20.3377Z" fill="white"/>
<path fill-rule="evenodd" clip-rule="evenodd" d="M23.7235 22.1617C23.8589 22.0649 23.7961 22.002 23.9944 22.2004C24.2497 22.6493 24.3987 23.1508 24.4298 23.6663C24.4153 23.7872 24.5024 23.8598 24.5411 23.8356C24.5605 23.555 25.2523 23.1583 25.8812 23.1002C25.978 23.0809 25.9296 22.897 25.9441 22.8003C25.9054 22.4519 26.1376 22.1326 26.4715 22.1084C26.9165 22.1762 27.0665 22.4132 27.0762 22.7761C27.0278 23.4776 26.2973 23.5985 25.8861 23.6469C25.8232 23.6759 25.799 23.705 25.8861 23.7388L27.6035 23.7437L27.6906 23.7921C27.7003 23.8404 27.6664 23.8017 27.5939 23.913C27.5213 24.0243 27.4294 24.2855 27.4245 24.4549C26.9096 24.6052 26.3815 24.7056 25.8474 24.7548C25.6635 24.8516 25.5716 24.9774 25.6055 25.1177C25.6683 25.2773 26.0844 25.4321 26.0844 25.4418C26.1618 25.4902 26.2537 25.6063 26.0602 25.8385C25.2233 25.8047 24.575 25.4466 24.3524 24.9435C24.2847 24.8951 24.2073 24.9435 24.1637 25.0112C23.8725 25.459 23.4525 25.8081 22.9591 26.0127C22.6253 26.0949 22.2866 25.9643 22.127 25.7466C22.0205 25.6208 22.0254 25.4853 21.9818 25.4563C21.8028 25.5337 20.2595 26.1917 20.4579 25.8869C20.8304 25.4805 21.4835 25.1854 22.0544 24.7887C22.1028 24.6581 22.1753 24.2081 22.4027 24.063C22.4124 24.063 22.364 24.3242 22.3689 24.4355C22.3689 24.5274 22.364 24.5613 22.3834 24.5371C22.4221 24.5129 23.1187 23.9662 23.172 23.7969C23.2397 23.7001 23.1913 23.4582 23.1913 23.4486C23.0655 23.1099 22.8817 23.0857 22.8139 22.9164C22.7511 22.6938 22.7801 22.4423 22.9059 22.3697C23.0171 22.2681 23.1478 22.2778 23.2736 22.389C23.4187 22.5148 23.5396 22.7616 23.5783 22.9454C23.5542 23.018 23.3945 22.897 23.3364 22.9357C23.4332 23.0325 23.4816 23.1534 23.5155 23.2986C23.6122 23.6856 23.5783 23.8308 23.4913 24.0823C23.1816 24.7306 22.7849 24.929 22.4366 25.166C22.4269 25.1709 22.4221 25.3354 22.5527 25.4225C22.6011 25.4708 22.7801 25.4902 22.9881 25.4225C23.4406 25.1726 23.8067 24.7914 24.038 24.3291C24.1008 23.9807 24.0138 23.6131 23.9218 23.2937C23.8164 23.0391 23.7196 22.7809 23.6316 22.5197C23.6219 22.3262 23.6364 22.2584 23.7283 22.1617H23.7235ZM19.2339 20.3523C19.4274 20.4442 19.7999 20.4006 19.7854 20.0862L19.7757 19.9362C19.737 19.8394 19.6257 19.8636 19.6015 19.9652C19.5919 19.9943 19.6161 20.0475 19.587 20.062C19.5677 20.0765 19.5048 20.0668 19.5096 19.9797C19.5096 19.9507 19.4903 19.9217 19.4757 19.9023C19.4612 19.8975 19.4564 19.8927 19.4322 19.8927C19.4032 19.8927 19.408 19.9023 19.3887 19.9265L19.3742 19.9991C19.3742 20.033 19.3596 20.0426 19.3354 20.0475C19.3113 20.0475 19.3161 20.0475 19.2967 20.0378C19.2822 20.0233 19.2677 20.0184 19.2677 19.9943L19.258 19.9168C19.2452 19.9026 19.2283 19.8925 19.2097 19.8878C19.0984 19.8878 19.0935 20.0136 19.0984 20.062C19.0887 20.0668 19.0839 20.2894 19.2339 20.3523Z" fill="white"/>
<path fill-rule="evenodd" clip-rule="evenodd" d="M25.02 22.8003C25.2135 22.897 25.6877 22.839 25.5715 22.5342L25.5619 22.3891C25.5232 22.2923 25.4167 22.3165 25.3877 22.4132C25.3829 22.4423 25.4022 22.4955 25.3732 22.51C25.3587 22.5294 25.2958 22.5197 25.2958 22.4326C25.2958 22.4036 25.2764 22.3745 25.2619 22.3552C25.2522 22.3455 25.2426 22.3455 25.2184 22.3455C25.1942 22.3455 25.1942 22.3504 25.1797 22.3745L25.1652 22.4471C25.1603 22.481 25.1458 22.4955 25.1264 22.4955C25.0974 22.4955 25.1071 22.4955 25.0829 22.4858C25.0732 22.4713 25.0539 22.4665 25.0539 22.4423C25.0539 22.4181 25.0539 22.3794 25.0442 22.3649C25.0345 22.3504 25.0152 22.3455 24.9958 22.3407C24.8894 22.3407 24.8797 22.4616 24.8846 22.51C24.8797 22.5197 24.8749 22.7374 25.02 22.8003ZM28.3969 21.7843C28.5904 21.8811 28.963 21.8375 28.9484 21.5231L28.9388 21.3731C28.9001 21.2763 28.7888 21.3005 28.7646 21.3973C28.7549 21.4311 28.7791 21.4795 28.7501 21.494C28.7307 21.5134 28.6678 21.5037 28.6727 21.4166C28.6727 21.3876 28.6485 21.3586 28.6388 21.3392C28.6243 21.3344 28.6195 21.3295 28.5904 21.3295C28.5662 21.3295 28.5662 21.3392 28.5517 21.3634L28.5372 21.436C28.5372 21.465 28.5227 21.4795 28.4985 21.4844C28.4743 21.4844 28.4792 21.4844 28.4598 21.4698C28.4453 21.4602 28.4308 21.4505 28.4308 21.4311C28.4308 21.4069 28.4259 21.3682 28.4163 21.3489C28.4066 21.3344 28.3921 21.3295 28.3679 21.3247C28.2615 21.3247 28.2566 21.4505 28.2615 21.494C28.2518 21.5037 28.2469 21.7263 28.3969 21.7843ZM30.1386 24.3339C29.7999 24.721 29.9499 25.3596 30.0273 25.495C30.1434 25.7273 30.2305 25.8724 30.4531 25.9837C30.6562 26.1288 30.8111 26.0369 30.8981 25.9353C31.1013 25.7273 31.1013 25.1902 31.1981 25.0838C31.2658 24.8903 31.4303 24.9242 31.5126 25.0112C31.5873 25.1164 31.687 25.2012 31.8028 25.258C31.9915 25.4225 32.2141 25.4515 32.4366 25.3064C32.5866 25.2193 32.6882 25.108 32.7753 24.8903C32.872 24.6242 32.8237 23.405 32.7995 22.6842C32.7946 22.6261 32.6059 21.6875 32.6059 21.6779C32.6059 21.6682 32.5769 21.1989 32.5576 21.0876C32.5576 21.0441 32.5431 21.0296 32.5914 21.0393C32.6398 21.078 32.6495 21.0828 32.6785 21.0973C32.7269 21.107 32.7753 21.0199 32.7462 20.9377L32.2721 20.0668C32.2383 20.033 32.1899 19.9943 32.127 20.0813C32.0904 20.1133 32.0611 20.1527 32.041 20.1969C32.021 20.2412 32.0107 20.2892 32.0109 20.3378C32.0254 20.5458 32.0593 20.7538 32.0738 20.9619L32.2673 22.0165C32.3253 22.7713 32.3399 23.3857 32.3979 24.1452C32.3882 24.4597 32.2915 24.7403 32.1947 24.7742C32.1947 24.7742 32.0544 24.8613 31.9625 24.7742C31.8899 24.7403 31.6142 24.3097 31.6142 24.3097C31.469 24.1791 31.3819 24.213 31.2755 24.3097C31.0046 24.5758 30.8788 25.079 30.6901 25.4225C30.6417 25.4999 30.5014 25.5676 30.3515 25.4176C29.9644 24.8854 30.1918 24.1404 30.1434 24.3339H30.1386ZM28.484 19.9362C28.663 20.0088 28.784 20.3716 28.7452 20.5458C28.7114 20.7587 28.6146 20.9957 28.5517 20.9619C28.4743 20.9377 28.6001 20.749 28.5275 20.5506C28.4888 20.4248 28.2469 20.1878 28.2711 20.12C28.2227 19.9749 28.3776 19.912 28.484 19.9362Z" fill="white"/>
<path fill-rule="evenodd" clip-rule="evenodd" d="M30.7143 24.5467C30.7482 24.1113 30.6853 23.8501 30.6756 23.5985C30.6659 23.3469 30.3853 21.4214 30.3369 21.2279C30.2644 20.865 30.603 21.1795 30.5643 20.9666C30.4482 20.7005 30.1628 20.3135 30.0709 20.0861C30.0176 19.9894 30.037 19.8974 29.916 20.0571C29.8116 20.3448 29.7752 20.6528 29.8096 20.957C30.0999 22.4712 30.395 23.7291 30.3466 25.1708C30.4869 25.1708 30.6466 24.8564 30.7143 24.5419V24.5467ZM33.7332 20.5457C33.8977 20.628 33.9896 21.0779 33.9751 21.2037C33.9412 21.4408 33.8541 21.6875 33.7912 21.6585C33.7284 21.6294 33.8058 21.3101 33.7719 21.2134C33.738 21.0731 33.5203 20.8215 33.5397 20.7441C33.4961 20.5893 33.6364 20.5215 33.7332 20.5506V20.5457ZM21.7495 23.7291C21.9044 23.792 21.9914 24.1162 21.9769 24.2129C21.9479 24.3871 21.8657 24.5709 21.8076 24.5516C21.7447 24.5274 21.8173 24.2952 21.7882 24.2226C21.7737 24.0436 21.5609 23.9517 21.5657 23.8791C21.527 23.734 21.6576 23.7098 21.7495 23.734V23.7291Z" fill="white"/>
<path fill-rule="evenodd" clip-rule="evenodd" d="M25.4796 24.2275C25.6731 24.2372 25.7747 24.3968 25.5909 24.4597C25.407 24.5226 25.228 24.571 25.228 24.8371C25.2958 25.2096 25.1313 25.079 25.0345 25.0306C24.9232 24.9484 24.6039 24.7548 24.5604 24.3291C24.5556 24.2323 24.633 24.1453 24.7588 24.1453C24.9523 24.1936 25.2329 24.2033 25.4748 24.2275H25.4796Z" fill="#165D31"/>
<path fill-rule="evenodd" clip-rule="evenodd" d="M17.6276 19.8297C17.855 19.8975 17.8695 20.2313 17.8502 20.3329C17.8211 20.5119 17.7389 20.7006 17.6808 20.6764C17.6179 20.657 17.6808 20.4151 17.6518 20.3377C17.6179 20.2313 17.4244 20.0378 17.4486 19.9797C17.4002 19.8636 17.5357 19.8104 17.6276 19.8346V19.8297ZM22.1221 21.4069C21.9479 21.5037 21.8802 21.7843 21.9866 21.9488C22.0882 22.0939 22.2479 22.0407 22.2721 22.0407C22.4414 22.06 22.543 21.7165 22.543 21.7165C22.543 21.7165 22.5478 21.6198 22.3495 21.8036C22.2624 21.8181 22.2527 21.7891 22.2285 21.7407C22.2079 21.6497 22.2181 21.5544 22.2576 21.4698C22.2866 21.3875 22.2189 21.3488 22.1221 21.4069ZM23.4283 19.6991C23.3461 19.762 23.1671 19.941 23.1623 20.149C23.1623 20.2651 23.1381 20.2651 23.2106 20.3425C23.2687 20.42 23.3268 20.4151 23.438 20.3571C23.4657 20.3391 23.4894 20.3157 23.5077 20.2882C23.5261 20.2608 23.5385 20.2299 23.5445 20.1974C23.5735 20.0619 23.4042 20.2603 23.3848 20.1103C23.3461 19.9749 23.4525 19.9168 23.5541 19.7813C23.5541 19.6894 23.5541 19.6265 23.4332 19.6991H23.4283ZM24.4879 19.8926C24.4457 20.0623 24.4198 20.2357 24.4105 20.4103C24.3814 20.5409 24.5459 20.5941 24.6233 20.4248C24.7346 20.12 24.7346 19.9894 24.7443 19.8588C24.7104 19.6652 24.5749 19.6652 24.4879 19.8878V19.8926ZM31.1401 23.2744C31.1594 23.2502 32.0786 22.597 32.0786 22.597C32.1706 22.568 32.1512 22.9357 32.1077 22.9357C31.8238 23.2109 31.497 23.438 31.1401 23.6082C31.0917 23.6372 31.0481 23.3566 31.1401 23.2695V23.2744ZM31.9722 23.2695C32.1319 23.3469 32.1996 23.821 32.1802 23.9468C32.1851 24.1984 32.0254 24.3968 31.9625 24.3629C31.8948 24.3339 31.9674 24.0533 31.9383 23.9565C31.9045 23.8162 31.7642 23.555 31.7884 23.4824C31.74 23.3227 31.8754 23.2405 31.9722 23.2695ZM26.5343 25.3015C26.5972 25.2047 26.7907 25.0741 26.7956 25.0741C26.8875 25.0257 26.9746 25.1079 26.9697 25.1031C26.9843 25.195 26.9117 25.2773 26.9359 25.3982C26.9552 25.4466 26.9697 25.4998 27.0617 25.4805C27.2068 25.3692 27.3423 25.3595 27.4874 25.3498C27.5987 25.3595 27.5987 25.5434 27.5309 25.5482C27.26 25.6063 27.1439 25.6788 26.9504 25.7514C26.8585 25.8046 26.7811 25.7369 26.7811 25.732C26.7811 25.7272 26.7327 25.6788 26.7665 25.5579C26.7714 25.4611 26.7327 25.4127 26.6553 25.4224C26.5924 25.4514 26.5392 25.4708 26.5101 25.4031C26.4956 25.3547 26.4956 25.3305 26.5343 25.3015ZM32.935 25.553C32.9737 25.6014 33.0027 25.6498 32.935 25.732L32.7608 25.8772C32.7269 25.9352 32.7124 26.0126 32.8043 26.0368C32.9737 26.0852 33.3704 25.8288 33.3704 25.824C33.4333 25.7756 33.4139 25.6837 33.4042 25.6837C33.3704 25.6401 33.2833 25.6643 33.2301 25.6595C33.201 25.6595 33.114 25.645 33.1527 25.5676C33.1914 25.5192 33.201 25.4901 33.2252 25.4273C33.2543 25.3692 33.2301 25.3305 33.1333 25.2966C33.0366 25.2821 32.9978 25.2918 32.8914 25.2966C32.8285 25.3111 32.8092 25.3353 32.7947 25.4079C32.8043 25.5143 32.8672 25.5095 32.9398 25.553H32.935Z" fill="white"/>
<path fill-rule="evenodd" clip-rule="evenodd" d="M26.5682 22.8922C26.544 22.9406 26.4569 22.9358 26.3746 22.8922C26.2924 22.8487 26.2537 22.7713 26.2779 22.7278C26.3021 22.6842 26.3891 22.6842 26.4714 22.7278C26.5536 22.7713 26.5923 22.8487 26.5682 22.8922ZM22.393 20.3862C22.3446 20.4007 22.2817 20.3572 22.2527 20.2894C22.2237 20.2217 22.2382 20.1685 22.2866 20.154C22.3349 20.1394 22.3978 20.1878 22.4269 20.2507C22.4559 20.3136 22.4414 20.3765 22.393 20.3862Z" fill="#165D31"/>
<path fill-rule="evenodd" clip-rule="evenodd" d="M30.6514 31.5764C31.0868 31.5958 31.5029 31.5813 31.9383 31.6054C32.0206 31.6683 31.9625 31.8377 31.9093 31.8232L31.5416 31.8135C31.5416 31.6732 31.1787 31.6974 31.1933 31.8183C30.9997 31.8425 30.8256 31.8135 30.6321 31.8038C30.574 31.7312 30.5837 31.6054 30.6514 31.5764Z" fill="#165D31"/>
</g>
</g>
</g>
</g>
<defs>
<filter id="filter0_d_552_10830" x="0" y="0" width="52" height="52" filterUnits="userSpaceOnUse" color-interpolation-filters="sRGB">
<feFlood flood-opacity="0" result="BackgroundImageFix"/>
<feColorMatrix in="SourceAlpha" type="matrix" values="0 0 0 0 0 0 0 0 0 0 0 0 0 0 0 0 0 0 127 0" result="hardAlpha"/>
<feMorphology radius="2" operator="dilate" in="SourceAlpha" result="effect1_dropShadow_552_10830"/>
<feOffset/>
<feGaussianBlur stdDeviation="6"/>
<feComposite in2="hardAlpha" operator="out"/>
<feColorMatrix type="matrix" values="0 0 0 0 0 0 0 0 0 0 0 0 0 0 0 0 0 0 0.08 0"/>
<feBlend mode="normal" in2="BackgroundImageFix" result="effect1_dropShadow_552_10830"/>
<feBlend mode="normal" in="SourceGraphic" in2="effect1_dropShadow_552_10830" result="shape"/>
</filter>
<clipPath id="clip0_552_10830">
<rect x="14" y="14" width="24" height="24" rx="6" fill="white"/>
</clipPath>
<clipPath id="clip1_552_10830">
<rect width="24" height="24" fill="white" transform="translate(14 14)"/>
</clipPath>
</defs>
</svg>
