<svg width="52" height="52" viewBox="0 0 52 52" fill="none" xmlns="http://www.w3.org/2000/svg">
<g filter="url(#filter0_d_552_574)">
<g clip-path="url(#clip0_552_574)">
<g clip-path="url(#clip1_552_574)">
<mask id="mask0_552_574" style="mask-type:luminance" maskUnits="userSpaceOnUse" x="14" y="14" width="25" height="25">
<path d="M14 14H38.0002V38.0002H14V14Z" fill="white"/>
</mask>
<g mask="url(#mask0_552_574)">
<path fill-rule="evenodd" clip-rule="evenodd" d="M14 14H59.6004V15.8462H14V14ZM14 17.6923H59.6004V19.5385H14V17.6923ZM14 21.3847H59.6004V23.2309H14V21.3847ZM14 25.077H59.6004V26.9232H14V25.077ZM14 28.7694H59.6004V30.6155H14V28.7694ZM14 32.4617H59.6004V34.3079H14V32.4617ZM14 36.1541H59.6004V38.0002H14V36.1541Z" fill="#BD3D44"/>
<path fill-rule="evenodd" clip-rule="evenodd" d="M14 15.8462H59.6004V17.6923H14V15.8462ZM14 19.5385H59.6004V21.3847H14V19.5385ZM14 23.2309H59.6004V25.077H14V23.2309ZM14 26.9232H59.6004V28.7694H14V26.9232ZM14 30.6156H59.6004V32.4617H14V30.6156ZM14 34.3079H59.6004V36.1541H14V34.3079Z" fill="white"/>
<path fill-rule="evenodd" clip-rule="evenodd" d="M14 14H32.2402V26.9232H14V14Z" fill="#192F5D"/>
<path fill-rule="evenodd" clip-rule="evenodd" d="M15.5138 14.5538L15.6985 15.0708H16.2154L15.7908 15.3846L15.9569 15.8831L15.5138 15.5692L15.1077 15.8831L15.2738 15.3846L14.8307 15.0708H15.3846L15.5138 14.5538ZM18.56 14.5538L18.7262 15.0708H19.2616L18.8185 15.3846L19.0031 15.8831L18.56 15.5692L18.1169 15.8831L18.3016 15.3846L17.8585 15.0708H18.3939L18.56 14.5538ZM21.6062 14.5538L21.7724 15.0708H22.3077L21.8647 15.3846L22.0493 15.8831L21.6062 15.5692L21.1631 15.8831L21.3477 15.3846L20.9047 15.0708H21.44L21.6062 14.5538ZM24.6339 14.5538L24.8185 15.0708H25.3355L24.9108 15.3846L25.077 15.8831L24.6339 15.5692L24.2093 15.8831L24.3755 15.3846L23.9324 15.0708H24.4862L24.6339 14.5538ZM27.6801 14.5538L27.8463 15.0708H28.3817L27.9386 15.3846L28.1232 15.8831L27.6616 15.5692L27.237 15.8831L27.4032 15.3846L26.9601 15.0708H27.4955L27.6801 14.5538ZM30.7263 14.5538L30.8924 15.0708H31.4278L30.9848 15.3846L31.1694 15.8831L30.7263 15.5692L30.2832 15.8831L30.4678 15.3846L30.0247 15.0708H30.5601L30.7263 14.5538ZM17.0462 15.8462L17.2123 16.3631H17.7477L17.3046 16.6769L17.4892 17.1754L17.0462 16.8616L16.6031 17.1754L16.7877 16.6769L16.3446 16.3631H16.88L17.0462 15.8462ZM20.0739 15.8462L20.2585 16.3631H20.7754L20.3508 16.6769L20.517 17.1754L20.0739 16.8616L19.6493 17.1754L19.8154 16.6769L19.3723 16.3631H19.9262L20.0739 15.8462ZM23.1201 15.8462L23.2862 16.3631H23.8216L23.3785 16.6769L23.5631 17.1754L23.1201 16.8616L22.677 17.1754L22.8616 16.6769L22.4185 16.3631H22.9539L23.1201 15.8462ZM26.1662 15.8462L26.3324 16.3631H26.8678L26.4247 16.6769L26.6093 17.1754L26.1662 16.8616L25.7232 17.1754L25.9078 16.6769L25.4647 16.3631H26.0001L26.1662 15.8462ZM29.194 15.8462L29.3786 16.3631H29.8771L29.4524 16.6769L29.6186 17.1754L29.1755 16.8616L28.7509 17.1754L28.917 16.6769L28.474 16.3631H29.0278L29.194 15.8462ZM15.5323 17.1385L15.68 17.6554H16.2338L15.7908 17.9693L15.9569 18.4677L15.5138 18.1539L15.1077 18.4677L15.2738 17.9693L14.8307 17.6554H15.3846L15.5323 17.1385ZM18.56 17.1385L18.7262 17.6554H19.2616L18.8369 17.9693L19.0031 18.4677L18.56 18.1539L18.1354 18.4677L18.3016 17.9693L17.8585 17.6554H18.3939L18.56 17.1385ZM21.6062 17.1385L21.7724 17.6554H22.3077L21.8647 17.9693L22.0493 18.4677L21.6062 18.1539L21.1631 18.4677L21.3477 17.9693L20.9047 17.6554H21.44L21.6062 17.1385ZM24.6339 17.1385L24.8185 17.6554H25.3355L24.9108 17.9693L25.077 18.4677L24.6339 18.1539L24.2093 18.4677L24.3755 17.9693L23.9324 17.6554H24.4862L24.6339 17.1385ZM27.6801 17.1385L27.8463 17.6554H28.3817L27.957 17.9693L28.1232 18.4677L27.6801 18.1539L27.2555 18.4677L27.4216 17.9693L26.9786 17.6554H27.514L27.6801 17.1385ZM30.7263 17.1385L30.8924 17.6554H31.4278L30.9848 17.9693L31.1694 18.4677L30.7263 18.1539L30.2832 18.4677L30.4678 17.9693L30.0247 17.6554H30.5601L30.7263 17.1385ZM17.0462 18.4308L17.2123 18.9477H17.7477L17.3046 19.2616L17.4892 19.7601L17.0462 19.4462L16.6031 19.7601L16.7877 19.2616L16.3446 18.9477H16.88L17.0462 18.4308ZM20.0739 18.4308L20.2585 18.9477H20.7754L20.3508 19.2616L20.517 19.7601L20.0739 19.4462L19.6493 19.7601L19.8154 19.2616L19.3723 18.9477H19.9262L20.0739 18.4308ZM23.1201 18.4308L23.2862 18.9477H23.8216L23.397 19.2616L23.5631 19.7601L23.1201 19.4462L22.6954 19.7601L22.8616 19.2616L22.4185 18.9477H22.9539L23.1201 18.4308ZM26.1662 18.4308L26.3324 18.9477H26.8678L26.4247 19.2616L26.6093 19.7601L26.1662 19.4462L25.7232 19.7601L25.9078 19.2616L25.4647 18.9477H26.0001L26.1662 18.4308ZM29.194 18.4308L29.3786 18.9477H29.8771L29.4524 19.2616L29.6186 19.7601L29.1755 19.4462L28.7509 19.7601L28.917 19.2616L28.474 18.9477H29.0278L29.194 18.4308ZM15.5323 19.7231L15.68 20.2401H16.2338L15.7908 20.5539L15.9569 21.0524L15.5138 20.7385L15.1077 21.0524L15.2738 20.5539L14.8307 20.2401H15.3846L15.5323 19.7231ZM18.56 19.7231L18.7262 20.2401H19.2616L18.8369 20.5539L19.0031 21.0524L18.56 20.7385L18.1354 21.0524L18.3016 20.5539L17.8585 20.2401H18.3939L18.56 19.7231ZM21.6062 19.7231L21.7724 20.2401H22.3077L21.8647 20.5539L22.0493 21.0524L21.6062 20.7385L21.1631 21.0524L21.3477 20.5539L20.9047 20.2401H21.44L21.6062 19.7231ZM24.6339 19.7231L24.8185 20.2401H25.3355L24.9108 20.5539L25.077 21.0524L24.6339 20.7385L24.2093 21.0524L24.3755 20.5539L23.9324 20.2401H24.4862L24.6339 19.7231ZM27.6801 19.7231L27.8463 20.2401H28.3817L27.957 20.5539L28.1232 21.0524L27.6801 20.7385L27.2555 21.0524L27.4216 20.5539L26.9786 20.2401H27.514L27.6801 19.7231ZM30.7263 19.7231L30.8924 20.2401H31.4278L30.9848 20.5539L31.1694 21.0524L30.7263 20.7385L30.2832 21.0524L30.4678 20.5539L30.0247 20.2401H30.5601L30.7263 19.7231ZM17.0462 21.0155L17.2123 21.5324H17.7477L17.3046 21.8462L17.4892 22.3447L17.0462 22.0308L16.6031 22.3447L16.7877 21.8462L16.3446 21.5324H16.88L17.0462 21.0155ZM20.0739 21.0155L20.2585 21.5324H20.7754L20.3508 21.8462L20.517 22.3447L20.0739 22.0308L19.6493 22.3447L19.8154 21.8462L19.3723 21.5324H19.9262L20.0739 21.0155ZM23.1201 21.0155L23.2862 21.5324H23.8216L23.397 21.8462L23.5631 22.3447L23.1201 22.0308L22.6954 22.3447L22.8616 21.8462L22.4185 21.5324H22.9539L23.1201 21.0155ZM26.1662 21.0155L26.3324 21.5324H26.8678L26.4247 21.8462L26.6093 22.3447L26.1662 22.0308L25.7232 22.3447L25.9078 21.8462L25.4647 21.5324H26.0001L26.1662 21.0155ZM29.194 21.0155L29.3786 21.5324H29.8771L29.4524 21.8462L29.6186 22.3447L29.1755 22.0308L28.7509 22.3447L28.917 21.8462L28.474 21.5324H29.0278L29.194 21.0155ZM15.5323 22.3078L15.68 22.8247H16.2338L15.7908 23.1385L15.9569 23.637L15.5138 23.3232L15.1077 23.637L15.2738 23.1385L14.8307 22.8247H15.3846L15.5323 22.3078ZM18.56 22.3078L18.7262 22.8247H19.2616L18.8369 23.1385L19.0031 23.637L18.56 23.3232L18.1354 23.637L18.3016 23.1385L17.8585 22.8247H18.3939L18.56 22.3078ZM21.6062 22.3078L21.7724 22.8247H22.3077L21.8647 23.1385L22.0493 23.637L21.6062 23.3232L21.1631 23.637L21.3477 23.1385L20.9047 22.8247H21.44L21.6062 22.3078ZM24.6339 22.3078L24.8185 22.8247H25.3355L24.9108 23.1385L25.077 23.637L24.6339 23.3232L24.2093 23.637L24.3755 23.1385L23.9324 22.8247H24.4862L24.6339 22.3078ZM27.6801 22.3078L27.8463 22.8247H28.3817L27.957 23.1385L28.1232 23.637L27.6801 23.3232L27.2555 23.637L27.4216 23.1385L26.9786 22.8247H27.514L27.6801 22.3078ZM30.7263 22.3078L30.8924 22.8247H31.4278L30.9848 23.1385L31.1694 23.637L30.7263 23.3232L30.2832 23.637L30.4678 23.1385L30.0247 22.8247H30.5601L30.7263 22.3078ZM17.0462 23.6001L17.2123 24.117H17.7477L17.3046 24.4309L17.4892 24.9293L17.0462 24.6155L16.6031 24.9293L16.7877 24.4309L16.3446 24.117H16.88L17.0462 23.6001ZM20.0739 23.6001L20.2585 24.117H20.7754L20.3508 24.4309L20.517 24.9293L20.0739 24.6155L19.6493 24.9293L19.8154 24.4309L19.3723 24.117H19.9262L20.0739 23.6001ZM23.1201 23.6001L23.2862 24.117H23.8216L23.397 24.4309L23.5631 24.9293L23.1201 24.6155L22.6954 24.9293L22.8616 24.4309L22.4185 24.117H22.9539L23.1201 23.6001ZM26.1662 23.6001L26.3324 24.117H26.8678L26.4247 24.4309L26.6093 24.9293L26.1662 24.6155L25.7232 24.9293L25.9078 24.4309L25.4647 24.117H26.0001L26.1662 23.6001ZM29.194 23.6001L29.3786 24.117H29.8771L29.4524 24.4309L29.6186 24.9293L29.1755 24.6155L28.7509 24.9293L28.917 24.4309L28.474 24.117H29.0278L29.194 23.6001ZM15.5323 24.8924L15.68 25.4093H16.2338L15.7908 25.7232L15.9569 26.2217L15.5138 25.9078L15.1077 26.2217L15.2738 25.7232L14.8307 25.4093H15.3846L15.5323 24.8924ZM18.56 24.8924L18.7262 25.4093H19.2616L18.8369 25.7232L19.0031 26.2217L18.56 25.9078L18.1354 26.2217L18.3016 25.7232L17.8585 25.4093H18.3939L18.56 24.8924ZM21.6062 24.8924L21.7724 25.4093H22.3077L21.8647 25.7232L22.0493 26.2217L21.6062 25.9078L21.1631 26.2217L21.3477 25.7232L20.9047 25.4093H21.44L21.6062 24.8924ZM24.6339 24.8924L24.8185 25.4093H25.3355L24.9108 25.7232L25.077 26.2217L24.6339 25.9078L24.2093 26.2217L24.3755 25.7232L23.9324 25.4093H24.4862L24.6339 24.8924ZM27.6801 24.8924L27.8463 25.4093H28.3817L27.957 25.7232L28.1232 26.2217L27.6801 25.9078L27.2555 26.2217L27.4216 25.7232L26.9786 25.4093H27.514L27.6801 24.8924ZM30.7263 24.8924L30.8924 25.4093H31.4278L30.9848 25.7232L31.1694 26.2217L30.7263 25.9078L30.2832 26.2217L30.4678 25.7232L30.0247 25.4093H30.5601L30.7263 24.8924Z" fill="white"/>
</g>
</g>
</g>
</g>
<defs>
<filter id="filter0_d_552_574" x="0" y="0" width="52" height="52" filterUnits="userSpaceOnUse" color-interpolation-filters="sRGB">
<feFlood flood-opacity="0" result="BackgroundImageFix"/>
<feColorMatrix in="SourceAlpha" type="matrix" values="0 0 0 0 0 0 0 0 0 0 0 0 0 0 0 0 0 0 127 0" result="hardAlpha"/>
<feMorphology radius="2" operator="dilate" in="SourceAlpha" result="effect1_dropShadow_552_574"/>
<feOffset/>
<feGaussianBlur stdDeviation="6"/>
<feComposite in2="hardAlpha" operator="out"/>
<feColorMatrix type="matrix" values="0 0 0 0 0 0 0 0 0 0 0 0 0 0 0 0 0 0 0.08 0"/>
<feBlend mode="normal" in2="BackgroundImageFix" result="effect1_dropShadow_552_574"/>
<feBlend mode="normal" in="SourceGraphic" in2="effect1_dropShadow_552_574" result="shape"/>
</filter>
<clipPath id="clip0_552_574">
<rect x="14" y="14" width="24" height="24" rx="6" fill="white"/>
</clipPath>
<clipPath id="clip1_552_574">
<rect width="24" height="24" fill="white" transform="translate(14 14)"/>
</clipPath>
</defs>
</svg>
